<?xml version="1.0" encoding="utf-8"?>
<!-- Generator: Adobe Illustrator 19.1.0, SVG Export Plug-In . SVG Version: 6.00 Build 0)  -->
<svg version="1.1" xmlns="http://www.w3.org/2000/svg" xmlns:xlink="http://www.w3.org/1999/xlink" x="0px" y="0px"
	 viewBox="185.1 -8.9 565.5 576" style="enable-background:new 185.1 -8.9 565.5 576;" xml:space="preserve">
<style type="text/css">
	.st0{fill:#FFFFFF;stroke:#6C11CC;stroke-miterlimit:10;}
	.st1{stroke:#6C11CC;stroke-miterlimit:10;}
	.st2{font-family:'MyriadPro-Regular';}
	.st3{font-size:11px;}
	.st4{fill:#FFFFFF;stroke:#CC155F;stroke-miterlimit:10;}
	.st5{stroke:#CC155F;stroke-miterlimit:10;}
	.st6{stroke:#57BABC;stroke-miterlimit:10;}
	.st7{fill:#FFFFFF;stroke:#57BABC;stroke-miterlimit:10;}
	.st8{fill:#FFFFFF;stroke:#DBD067;stroke-miterlimit:10;}
	.st9{stroke:#DBD067;stroke-miterlimit:10;}
	.st10{fill:#FFFFFF;stroke:#CE55CE;stroke-miterlimit:10;}
	.st11{stroke:#CE55CE;stroke-miterlimit:10;}
	.st12{fill:#FFFFFF;stroke:#EDE60F;stroke-miterlimit:10;}
	.st13{stroke:#EDE60F;stroke-miterlimit:10;}
	.st14{stroke:#59966C;stroke-miterlimit:10;}
	.st15{fill:#FFFFFF;stroke:#59966C;stroke-miterlimit:10;}
	.st16{fill:#FFFFFF;stroke:#C211CC;stroke-miterlimit:10;}
	.st17{stroke:#C211CC;stroke-miterlimit:10;}
	.st18{fill:#FFFFFF;stroke:#0E7BCC;stroke-miterlimit:10;}
	.st19{stroke:#0E7BCC;stroke-miterlimit:10;}
	.st20{fill:#FFFFFF;stroke:#38CC0E;stroke-miterlimit:10;}
	.st21{stroke:#38CC0E;stroke-miterlimit:10;}
	.st22{fill:#FFFFFF;stroke:#CC910D;stroke-miterlimit:10;}
	.st23{stroke:#CC910D;stroke-miterlimit:10;}
	.st24{fill:#FFFFFF;stroke:#FF1806;stroke-miterlimit:10;}
	.st25{stroke:#FF1806;stroke-miterlimit:10;}
	.st26{fill:#FFFFFF;}
	.st27{font-size:9px;}
</style>
<g id="december">
	<g>
		<g>
			<path class="st0" d="M699.5,131.6c-5.4,0-9.8-4.4-9.8-9.8s4.4-9.8,9.8-9.8s9.8,4.4,9.8,9.8S704.9,131.6,699.5,131.6z"/>
		</g>
	</g>
	<g>
		<g>
			<path class="st0" d="M685.4,113.6c-5.4,0-9.8-4.4-9.8-9.8s4.4-9.8,9.8-9.8c5.4,0,9.8,4.4,9.8,9.8S690.8,113.6,685.4,113.6z"/>
		</g>
	</g>
	<g>
		<g>
			<path class="st0" d="M669.1,97.3c-5.4,0-9.8-4.4-9.8-9.8c0-5.4,4.4-9.8,9.8-9.8c5.4,0,9.8,4.4,9.8,9.8
				C678.9,92.9,674.5,97.3,669.1,97.3z"/>
		</g>
	</g>
	<g>
		<g>
			<path class="st0" d="M652.2,81.9c-5.4,0-9.8-4.4-9.8-9.8c0-5.4,4.4-9.8,9.8-9.8c5.4,0,9.8,4.4,9.8,9.8
				C662,77.5,657.6,81.9,652.2,81.9z"/>
		</g>
	</g>
	<g>
		<g>
			<path class="st0" d="M633.4,68.6c-5.4,0-9.8-4.4-9.8-9.8s4.4-9.8,9.8-9.8c5.4,0,9.8,4.4,9.8,9.8S638.8,68.6,633.4,68.6z"/>
		</g>
	</g>
	<g>
		<g>
			<path class="st0" d="M614.2,56.1c-5.4,0-9.8-4.4-9.8-9.8s4.4-9.8,9.8-9.8c5.4,0,9.8,4.4,9.8,9.8S619.6,56.1,614.2,56.1z"/>
		</g>
	</g>
	<g>
		<g>
			<path class="st0" d="M593.4,46.2c-5.4,0-9.8-4.4-9.8-9.8c0-5.4,4.4-9.8,9.8-9.8c5.4,0,9.8,4.4,9.8,9.8
				C603.2,41.8,598.8,46.2,593.4,46.2z"/>
		</g>
	</g>
	<g>
		<g>
			<path class="st0" d="M572.4,37c-5.4,0-9.8-4.4-9.8-9.8c0-5.4,4.4-9.8,9.8-9.8c5.4,0,9.8,4.4,9.8,9.8
				C582.2,32.6,577.8,37,572.4,37z"/>
		</g>
	</g>
	<g>
		<g>
			<path class="st0" d="M550.3,30.9c-5.4,0-9.8-4.4-9.8-9.8c0-5.4,4.4-9.8,9.8-9.8c5.4,0,9.8,4.4,9.8,9.8
				C560.1,26.5,555.7,30.9,550.3,30.9z"/>
		</g>
	</g>
	<g>
		<g>
			<path class="st0" d="M528.1,25c-5.4,0-9.8-4.4-9.8-9.8c0-5.4,4.4-9.8,9.8-9.8c5.4,0,9.8,4.4,9.8,9.8
				C537.9,20.6,533.5,25,528.1,25z"/>
		</g>
	</g>
	<g>
		<g>
			<path class="st0" d="M505.2,23c-5.4,0-9.8-4.4-9.8-9.8c0-5.4,4.4-9.8,9.8-9.8c5.4,0,9.8,4.4,9.8,9.8C515,18.6,510.6,23,505.2,23z
				"/>
		</g>
	</g>
	<g>
		<g>
			<path class="st0" d="M482.3,20.9c-5.4,0-9.8-4.4-9.8-9.8c0-5.4,4.4-9.8,9.8-9.8c5.4,0,9.8,4.4,9.8,9.8
				C492.1,16.5,487.7,20.9,482.3,20.9z"/>
		</g>
	</g>
	<g>
		<g>
			<path class="st0" d="M459.4,22.6c-5.4,0-9.8-4.4-9.8-9.8S454,3,459.4,3c5.4,0,9.8,4.4,9.8,9.8S464.8,22.6,459.4,22.6z"/>
		</g>
	</g>
	<g>
		<g>
			<path class="st0" d="M436.5,24.6c-5.4,0-9.8-4.4-9.8-9.8s4.4-9.8,9.8-9.8s9.8,4.4,9.8,9.8S441.9,24.6,436.5,24.6z"/>
		</g>
	</g>
	<g>
		<g>
			<path class="st0" d="M414.1,29.7c-5.4,0-9.8-4.4-9.8-9.8c0-5.4,4.4-9.8,9.8-9.8c5.4,0,9.8,4.4,9.8,9.8
				C423.9,25.3,419.5,29.7,414.1,29.7z"/>
		</g>
	</g>
	<g>
		<g>
			<path class="st0" d="M392,35.8c-5.4,0-9.8-4.4-9.8-9.8c0-5.4,4.4-9.8,9.8-9.8s9.8,4.4,9.8,9.8C401.8,31.4,397.4,35.8,392,35.8z"
				/>
		</g>
	</g>
	<g>
		<g>
			<path class="st0" d="M370.7,44.3c-5.4,0-9.8-4.4-9.8-9.8c0-5.4,4.4-9.8,9.8-9.8c5.4,0,9.8,4.4,9.8,9.8
				C380.5,39.9,376.1,44.3,370.7,44.3z"/>
		</g>
	</g>
	<g>
		<g>
			<path class="st0" d="M349.9,54.1c-5.4,0-9.8-4.4-9.8-9.8s4.4-9.8,9.8-9.8c5.4,0,9.8,4.4,9.8,9.8S355.3,54.1,349.9,54.1z"/>
		</g>
	</g>
	<g>
		<g>
			<path class="st0" d="M330.3,66c-5.4,0-9.8-4.4-9.8-9.8c0-5.4,4.4-9.8,9.8-9.8c5.4,0,9.8,4.4,9.8,9.8
				C340.1,61.6,335.7,66,330.3,66z"/>
		</g>
	</g>
	<g>
		<g>
			<path class="st0" d="M311.6,79.2c-5.4,0-9.8-4.4-9.8-9.8c0-5.4,4.4-9.8,9.8-9.8c5.4,0,9.8,4.4,9.8,9.8
				C321.4,74.8,317,79.2,311.6,79.2z"/>
		</g>
	</g>
	<g>
		<g>
			<path class="st0" d="M294.1,94.1c-5.4,0-9.8-4.4-9.8-9.8s4.4-9.8,9.8-9.8c5.4,0,9.8,4.4,9.8,9.8S299.5,94.1,294.1,94.1z"/>
		</g>
	</g>
	<g>
		<g>
			<path class="st0" d="M277.9,110.4c-5.4,0-9.8-4.4-9.8-9.8c0-5.4,4.4-9.8,9.8-9.8c5.4,0,9.8,4.4,9.8,9.8
				C287.7,106,283.3,110.4,277.9,110.4z"/>
		</g>
	</g>
	<g>
		<g>
			<path class="st0" d="M263.1,127.9c-5.4,0-9.8-4.4-9.8-9.8c0-5.4,4.4-9.8,9.8-9.8c5.4,0,9.8,4.4,9.8,9.8
				C272.9,123.5,268.5,127.9,263.1,127.9z"/>
		</g>
	</g>
	<g>
		<g>
			<path class="st0" d="M249.8,146.6c-5.4,0-9.8-4.4-9.8-9.8s4.4-9.8,9.8-9.8c5.4,0,9.8,4.4,9.8,9.8S255.2,146.6,249.8,146.6z"/>
		</g>
	</g>
	<g>
		<g>
			<path class="st0" d="M238.1,166.3c-5.4,0-9.8-4.4-9.8-9.8c0-5.4,4.4-9.8,9.8-9.8c5.4,0,9.8,4.4,9.8,9.8
				C247.9,161.9,243.5,166.3,238.1,166.3z"/>
		</g>
	</g>
	<g>
		<g>
			<path class="st0" d="M228.2,187.1c-5.4,0-9.8-4.4-9.8-9.8s4.4-9.8,9.8-9.8c5.4,0,9.8,4.4,9.8,9.8S233.6,187.1,228.2,187.1z"/>
		</g>
	</g>
	<g>
		<g>
			<path class="st0" d="M219.8,208.4c-5.4,0-9.8-4.4-9.8-9.8c0-5.4,4.4-9.8,9.8-9.8c5.4,0,9.8,4.4,9.8,9.8
				C229.6,204,225.2,208.4,219.8,208.4z"/>
		</g>
	</g>
	<g>
		<g>
			<path class="st0" d="M213.8,230.5c-5.4,0-9.8-4.4-9.8-9.8c0-5.4,4.4-9.8,9.8-9.8c5.4,0,9.8,4.4,9.8,9.8
				C223.6,226.1,219.2,230.5,213.8,230.5z"/>
		</g>
	</g>
	<g>
		<g>
			<path class="st0" d="M208.8,252.9c-5.4,0-9.8-4.4-9.8-9.8c0-5.4,4.4-9.8,9.8-9.8c5.4,0,9.8,4.4,9.8,9.8
				C218.6,248.5,214.2,252.9,208.8,252.9z"/>
		</g>
	</g>
	<g>
		<g>
			<path class="st0" d="M206.8,275.8c-5.4,0-9.8-4.4-9.8-9.8c0-5.4,4.4-9.8,9.8-9.8c5.4,0,9.8,4.4,9.8,9.8
				C216.6,271.4,212.2,275.8,206.8,275.8z"/>
		</g>
	</g>
	<g>
		<g>
			<path class="st0" d="M205.3,298.7c-5.4,0-9.8-4.4-9.8-9.8c0-5.4,4.4-9.8,9.8-9.8c5.4,0,9.8,4.4,9.8,9.8
				C215.1,294.3,210.7,298.7,205.3,298.7z"/>
		</g>
	</g>
	<g>
		<g>
			<path class="st1" d="M207.6,321.6c-5.4,0-9.8-4.4-9.8-9.8s4.4-9.8,9.8-9.8c5.4,0,9.8,4.4,9.8,9.8S213,321.6,207.6,321.6z"/>
		</g>
	</g>
</g>
<g id="december_numbers">
	<text transform="matrix(1 0 0 1 202.4785 292.1385)" class="st2 st3">1</text>
	<text transform="matrix(1 0 0 1 203.9785 269.2383)" class="st2 st3">2</text>
	<text transform="matrix(1 0 0 1 205.9783 246.3387)" class="st2 st3">3</text>
	<text transform="matrix(1 0 0 1 210.9787 223.9386)" class="st2 st3">4</text>
	<text transform="matrix(1 0 0 1 216.9783 201.8386)" class="st2 st3">5</text>
	<text transform="matrix(1 0 0 1 225.3787 180.5386)" class="st2 st3">6</text>
	<text transform="matrix(1 0 0 1 235.2784 159.7383)" class="st2 st3">7</text>
	<text transform="matrix(1 0 0 1 246.9785 140.0383)" class="st2 st3">8</text>
	<text transform="matrix(1 0 0 1 260.2786 121.3384)" class="st2 st3">9</text>
	<text transform="matrix(1 0 0 1 272.2572 103.8383)" class="st2 st3">10</text>
	<text transform="matrix(1 0 0 1 288.457 87.5387)" class="st2 st3">11</text>
	<text transform="matrix(1 0 0 1 304.7912 72.6386)" class="st2 st3">12 </text>
	<text transform="matrix(1 0 0 1 324.6571 59.4385)" class="st2 st3">13</text>
	<text transform="matrix(1 0 0 1 344.257 47.5387)" class="st2 st3">14</text>
	<text transform="matrix(1 0 0 1 365.0574 37.7383)" class="st2 st3">15</text>
	<text transform="matrix(1 0 0 1 386.3571 29.2383)" class="st2 st3">16</text>
	<text transform="matrix(1 0 0 1 408.4573 23.1385)" class="st2 st3">17</text>
	<text transform="matrix(1 0 0 1 430.8571 18.0383)" class="st2 st3">18</text>
	<text transform="matrix(1 0 0 1 453.7572 16.0385)" class="st2 st3">19</text>
	<text transform="matrix(1 0 0 1 476.6572 14.3385)" class="st2 st3">20</text>
	<text transform="matrix(1 0 0 1 499.5571 16.4385)" class="st2 st3">21</text>
	<text transform="matrix(1 0 0 1 522.4571 18.4383)" class="st2 st3">22</text>
	<text transform="matrix(1 0 0 1 544.657 24.3386)" class="st2 st3">23</text>
	<text transform="matrix(1 0 0 1 566.757 30.4387)" class="st2 st3">24</text>
	<text transform="matrix(1 0 0 1 587.7571 39.7145)" class="st2 st3">25</text>
	<text transform="matrix(1 0 0 1 608.5573 49.5385)" class="st2 st3">26</text>
	<text transform="matrix(1 0 0 1 627.7574 62.0384)" class="st2 st3">27</text>
	<text transform="matrix(1 0 0 1 646.5571 75.3386)" class="st2 st3">28</text>
	<text transform="matrix(1 0 0 1 663.457 90.7383)" class="st2 st3">29</text>
	<text transform="matrix(1 0 0 1 679.7571 107.0385)" class="st2 st3">30</text>
	<text transform="matrix(1 0 0 1 693.8571 125.0386)" class="st2 st3">31</text>
</g>
<g id="november">
	<path class="st4" d="M350.4,514.4c0,5.4-4.4,9.8-9.8,9.8c-5.4,0-9.8-4.4-9.8-9.8c0-5.4,4.4-9.8,9.8-9.8
		C346,504.6,350.4,509,350.4,514.4z"/>
	<path class="st4" d="M592.8,520.6c0,5.4-4.4,9.8-9.8,9.8s-9.8-4.4-9.8-9.8c0-5.4,4.4-9.8,9.8-9.8S592.8,515.2,592.8,520.6z"/>
	<path class="st4" d="M613,509.6c0,5.4-4.4,9.8-9.8,9.8c-5.4,0-9.8-4.4-9.8-9.8c0-5.4,4.4-9.8,9.8-9.8
		C608.6,499.8,613,504.2,613,509.6z"/>
	<g>
		<g>
			<path class="st4" d="M209.9,324.8c-5.4,0-9.8,4.4-9.8,9.8c0,5.4,4.4,9.8,9.8,9.8c5.4,0,9.8-4.4,9.8-9.8
				C219.7,329.2,215.3,324.8,209.9,324.8z"/>
		</g>
	</g>
	<g>
		<g>
			<path class="st4" d="M215.9,347c-5.4,0-9.8,4.4-9.8,9.8s4.4,9.8,9.8,9.8c5.4,0,9.8-4.4,9.8-9.8S221.3,347,215.9,347z"/>
		</g>
	</g>
	<g>
		<g>
			<path class="st4" d="M222.7,368.9c-5.4,0-9.8,4.4-9.8,9.8c0,5.4,4.4,9.8,9.8,9.8c5.4,0,9.8-4.4,9.8-9.8
				C232.5,373.3,228.1,368.9,222.7,368.9z"/>
		</g>
	</g>
	<g>
		<g>
			<path class="st4" d="M231.9,389.9c-5.4,0-9.8,4.4-9.8,9.8c0,5.4,4.4,9.8,9.8,9.8c5.4,0,9.8-4.4,9.8-9.8
				C241.7,394.3,237.3,389.9,231.9,389.9z"/>
		</g>
	</g>
	<g>
		<g>
			<path class="st4" d="M242.9,410.1c-5.4,0-9.8,4.4-9.8,9.8c0,5.4,4.4,9.8,9.8,9.8c5.4,0,9.8-4.4,9.8-9.8
				C252.7,414.5,248.3,410.1,242.9,410.1z"/>
		</g>
	</g>
	<g>
		<g>
			<path class="st4" d="M255.2,429.4c-5.4,0-9.8,4.4-9.8,9.8c0,5.4,4.4,9.8,9.8,9.8c5.4,0,9.8-4.4,9.8-9.8
				C265,433.8,260.6,429.4,255.2,429.4z"/>
		</g>
	</g>
	<g>
		<g>
			<path class="st4" d="M269.8,447.1c-5.4,0-9.8,4.4-9.8,9.8c0,5.4,4.4,9.8,9.8,9.8c5.4,0,9.8-4.4,9.8-9.8
				C279.6,451.5,275.2,447.1,269.8,447.1z"/>
		</g>
	</g>
	<g>
		<g>
			<path class="st4" d="M284.9,464.3c-5.4,0-9.8,4.4-9.8,9.8c0,5.4,4.4,9.8,9.8,9.8c5.4,0,9.8-4.4,9.8-9.8
				C294.7,468.7,290.3,464.3,284.9,464.3z"/>
		</g>
	</g>
	<g>
		<g>
			<path class="st4" d="M302.7,478.9c-5.4,0-9.8,4.4-9.8,9.8c0,5.4,4.4,9.8,9.8,9.8c5.4,0,9.8-4.4,9.8-9.8
				C312.5,483.3,308.1,478.9,302.7,478.9z"/>
		</g>
	</g>
	<g>
		<g>
			<path class="st4" d="M321.3,493.5c-5.4,0-9.8,4.4-9.8,9.8s4.4,9.8,9.8,9.8c5.4,0,9.8-4.4,9.8-9.8S326.7,493.5,321.3,493.5z"/>
		</g>
	</g>
	<g>
		<g>
			<path class="st4" d="M360.8,515.5c-5.4,0-9.8,4.4-9.8,9.8s4.4,9.8,9.8,9.8c5.4,0,9.8-4.4,9.8-9.8S366.2,515.5,360.8,515.5z"/>
		</g>
	</g>
	<g>
		<g>
			<path class="st4" d="M382.3,523.3c-5.4,0-9.8,4.4-9.8,9.8c0,5.4,4.4,9.8,9.8,9.8c5.4,0,9.8-4.4,9.8-9.8
				C392.1,527.7,387.7,523.3,382.3,523.3z"/>
		</g>
	</g>
	<g>
		<g>
			<path class="st4" d="M404.3,530.1c-5.4,0-9.8,4.4-9.8,9.8c0,5.4,4.4,9.8,9.8,9.8c5.4,0,9.8-4.4,9.8-9.8
				C414.1,534.5,409.7,530.1,404.3,530.1z"/>
		</g>
	</g>
	<g>
		<g>
			<path class="st4" d="M426.7,534.5c-5.4,0-9.8,4.4-9.8,9.8s4.4,9.8,9.8,9.8c5.4,0,9.8-4.4,9.8-9.8S432.1,534.5,426.7,534.5z"/>
		</g>
	</g>
	<g>
		<g>
			<path class="st4" d="M449.6,536.8c-5.4,0-9.8,4.4-9.8,9.8c0,5.4,4.4,9.8,9.8,9.8c5.4,0,9.8-4.4,9.8-9.8
				C459.4,541.2,455,536.8,449.6,536.8z"/>
		</g>
	</g>
	<g>
		<g>
			<path class="st4" d="M472.5,538.1c-5.4,0-9.8,4.4-9.8,9.8c0,5.4,4.4,9.8,9.8,9.8s9.8-4.4,9.8-9.8
				C482.3,542.5,477.9,538.1,472.5,538.1z"/>
		</g>
	</g>
	<g>
		<g>
			<path class="st4" d="M495.3,535.8c-5.4,0-9.8,4.4-9.8,9.8c0,5.4,4.4,9.8,9.8,9.8c5.4,0,9.8-4.4,9.8-9.8
				C505.1,540.2,500.7,535.8,495.3,535.8z"/>
		</g>
	</g>
	<g>
		<g>
			<path class="st4" d="M518.2,533.5c-5.4,0-9.8,4.4-9.8,9.8s4.4,9.8,9.8,9.8c5.4,0,9.8-4.4,9.8-9.8S523.6,533.5,518.2,533.5z"/>
		</g>
	</g>
	<g>
		<g>
			<path class="st4" d="M540.2,527.2c-5.4,0-9.8,4.4-9.8,9.8c0,5.4,4.4,9.8,9.8,9.8c5.4,0,9.8-4.4,9.8-9.8
				C550,531.6,545.6,527.2,540.2,527.2z"/>
		</g>
	</g>
	<g>
		<g>
			<path class="st4" d="M562.2,520.3c-5.4,0-9.8,4.4-9.8,9.8c0,5.4,4.4,9.8,9.8,9.8c5.4,0,9.8-4.4,9.8-9.8
				C572,524.7,567.6,520.3,562.2,520.3z"/>
		</g>
	</g>
	<g>
		<g>
			<path class="st4" d="M622.3,506.8c-5.4,0-9.8-4.4-9.8-9.8c0-5.4,4.4-9.8,9.8-9.8c5.4,0,9.8,4.4,9.8,9.8
				C632.1,502.4,627.7,506.8,622.3,506.8z"/>
		</g>
	</g>
	<g>
		<g>
			<path class="st4" d="M640,492.2c-5.4,0-9.8-4.4-9.8-9.8c0-5.4,4.4-9.8,9.8-9.8s9.8,4.4,9.8,9.8
				C649.8,487.8,645.4,492.2,640,492.2z"/>
		</g>
	</g>
	<g>
		<g>
			<path class="st4" d="M656.9,476.7c-5.4,0-9.8-4.4-9.8-9.8c0-5.4,4.4-9.8,9.8-9.8c5.4,0,9.8,4.4,9.8,9.8
				C666.7,472.3,662.3,476.7,656.9,476.7z"/>
		</g>
	</g>
	<g>
		<g>
			<path class="st4" d="M671.6,459c-5.4,0-9.8-4.4-9.8-9.8c0-5.4,4.4-9.8,9.8-9.8c5.4,0,9.8,4.4,9.8,9.8
				C681.4,454.6,677,459,671.6,459z"/>
		</g>
	</g>
	<g>
		<g>
			<path class="st4" d="M685.9,441.1c-5.4,0-9.8-4.4-9.8-9.8s4.4-9.8,9.8-9.8c5.4,0,9.8,4.4,9.8,9.8S691.3,441.1,685.9,441.1z"/>
		</g>
	</g>
	<g>
		<g>
			<path class="st4" d="M696.9,420.9c-5.4,0-9.8-4.4-9.8-9.8c0-5.4,4.4-9.8,9.8-9.8c5.4,0,9.8,4.4,9.8,9.8
				C706.7,416.5,702.3,420.9,696.9,420.9z"/>
		</g>
	</g>
	<g>
		<g>
			<path class="st4" d="M707.9,400.7c-5.4,0-9.8-4.4-9.8-9.8c0-5.4,4.4-9.8,9.8-9.8c5.4,0,9.8,4.4,9.8,9.8
				C717.7,396.3,713.3,400.7,707.9,400.7z"/>
		</g>
	</g>
	<g>
		<g>
			<path class="st5" d="M715.2,379c-5.4,0-9.8-4.4-9.8-9.8c0-5.4,4.4-9.8,9.8-9.8c5.4,0,9.8,4.4,9.8,9.8
				C725,374.6,720.6,379,715.2,379z"/>
		</g>
	</g>
</g>
<g id="november_numbers">
	<text transform="matrix(1 0 0 1 705.0784 394.1386)" class="st2 st3">1</text>
	<text transform="matrix(1 0 0 1 694.0782 414.3381)" class="st2 st3">2</text>
	<text transform="matrix(1 0 0 1 683.0786 434.5382)" class="st2 st3">3</text>
	<text transform="matrix(1 0 0 1 668.7786 452.4385)" class="st2 st3">4</text>
	<text transform="matrix(1 0 0 1 654.0786 470.1387)" class="st2 st3">5</text>
	<text transform="matrix(1 0 0 1 637.1783 485.6382)" class="st2 st3">6</text>
	<text transform="matrix(1 0 0 1 619.4784 500.2385)" class="st2 st3">7</text>
	<text transform="matrix(1 0 0 1 600.3783 512.8381)" class="st2 st3">8</text>
	<text transform="matrix(1 0 0 1 580.1785 523.8388)" class="st2 st3">9</text>
	<text transform="matrix(1 0 0 1 556.5574 533.3384)" class="st2 st3">10</text>
	<text transform="matrix(1 0 0 1 534.5573 540.2386)" class="st2 st3">11</text>
	<text transform="matrix(1 0 0 1 511.3912 546.5388)" class="st2 st3">12 </text>
	<text transform="matrix(1 0 0 1 489.657 548.8387)" class="st2 st3">13</text>
	<text transform="matrix(1 0 0 1 466.8572 551.139)" class="st2 st3">14</text>
	<text transform="matrix(1 0 0 1 443.9574 549.8383)" class="st2 st3">15</text>
	<text transform="matrix(1 0 0 1 421.057 547.5386)" class="st2 st3">16</text>
	<text transform="matrix(1 0 0 1 398.657 543.1385)" class="st2 st3">17</text>
	<text transform="matrix(1 0 0 1 376.6574 536.3387)" class="st2 st3">18</text>
	<text transform="matrix(1 0 0 1 355.1571 528.5386)" class="st2 st3">19</text>
	<text transform="matrix(1 0 0 1 334.9573 517.6385)" class="st2 st3">20</text>
	<text transform="matrix(1 0 0 1 315.6287 506.5384)" class="st2 st3">21</text>
	<text transform="matrix(1 0 0 1 297.0572 491.9387)" class="st2 st3">22</text>
	<text transform="matrix(1 0 0 1 279.2574 477.3381)" class="st2 st3">23</text>
	<text transform="matrix(1 0 0 1 264.1574 460.139)" class="st2 st3">24</text>
	<text transform="matrix(1 0 0 1 249.557 442.4384)" class="st2 st3">25</text>
	<text transform="matrix(1 0 0 1 237.2572 423.1389)" class="st2 st3">26</text>
	<text transform="matrix(1 0 0 1 226.2572 402.9389)" class="st2 st3">27</text>
	<text transform="matrix(1 0 0 1 217.0572 381.9384)" class="st2 st3">28</text>
	<text transform="matrix(1 0 0 1 210.2572 360.0381)" class="st2 st3">29</text>
	<text transform="matrix(1 0 0 1 204.257 337.8381)" class="st2 st3">30</text>
</g>
<g id="october">
	<path class="st6" d="M275.6,158.9c0,5.4-4.4,9.8-9.8,9.8c-5.4,0-9.8-4.4-9.8-9.8c0-5.4,4.4-9.8,9.8-9.8
		C271.2,149.1,275.6,153.5,275.6,158.9z"/>
	<path class="st7" d="M287.9,139.6c0,5.4-4.4,9.8-9.8,9.8c-5.4,0-9.8-4.4-9.8-9.8c0-5.4,4.4-9.8,9.8-9.8
		C283.5,129.8,287.9,134.2,287.9,139.6z"/>
	<path class="st7" d="M438.5,41.3c0,5.4-4.4,9.8-9.8,9.8c-5.4,0-9.8-4.4-9.8-9.8s4.4-9.8,9.8-9.8C434.1,31.5,438.5,35.9,438.5,41.3z
		"/>
	<g>
		<g>
			<path class="st7" d="M722.1,337.4c-5.4,0-9.8,4.4-9.8,9.8c0,5.4,4.4,9.8,9.8,9.8c5.4,0,9.8-4.4,9.8-9.8
				C731.9,341.8,727.5,337.4,722.1,337.4z"/>
		</g>
	</g>
	<g>
		<g>
			<path class="st7" d="M726.1,314.9c-5.4,0-9.8,4.4-9.8,9.8c0,5.4,4.4,9.8,9.8,9.8c5.4,0,9.8-4.4,9.8-9.8
				C735.9,319.3,731.5,314.9,726.1,314.9z"/>
		</g>
	</g>
	<g>
		<g>
			<path class="st7" d="M728.4,292c-5.4,0-9.8,4.4-9.8,9.8s4.4,9.8,9.8,9.8c5.4,0,9.8-4.4,9.8-9.8S733.8,292,728.4,292z"/>
		</g>
	</g>
	<g>
		<g>
			<path class="st7" d="M729.3,269.2c-5.4,0-9.8,4.4-9.8,9.8c0,5.4,4.4,9.8,9.8,9.8c5.4,0,9.8-4.4,9.8-9.8
				C739.1,273.6,734.7,269.2,729.3,269.2z"/>
		</g>
	</g>
	<g>
		<g>
			<path class="st7" d="M727,246.3c-5.4,0-9.8,4.4-9.8,9.8c0,5.4,4.4,9.8,9.8,9.8s9.8-4.4,9.8-9.8
				C736.8,250.7,732.4,246.3,727,246.3z"/>
		</g>
	</g>
	<g>
		<g>
			<path class="st7" d="M724.2,223.5c-5.4,0-9.8,4.4-9.8,9.8s4.4,9.8,9.8,9.8c5.4,0,9.8-4.4,9.8-9.8S729.6,223.5,724.2,223.5z"/>
		</g>
	</g>
	<g>
		<g>
			<path class="st7" d="M717.4,201.6c-5.4,0-9.8,4.4-9.8,9.8c0,5.4,4.4,9.8,9.8,9.8c5.4,0,9.8-4.4,9.8-9.8
				C727.2,206,722.8,201.6,717.4,201.6z"/>
		</g>
	</g>
	<g>
		<g>
			<path class="st7" d="M710.6,179.6c-5.4,0-9.8,4.4-9.8,9.8c0,5.4,4.4,9.8,9.8,9.8c5.4,0,9.8-4.4,9.8-9.8
				C720.4,184,716,179.6,710.6,179.6z"/>
		</g>
	</g>
	<g>
		<g>
			<path class="st7" d="M699.8,159.4c-5.4,0-9.8,4.4-9.8,9.8c0,5.4,4.4,9.8,9.8,9.8c5.4,0,9.8-4.4,9.8-9.8
				C709.6,163.8,705.2,159.4,699.8,159.4z"/>
		</g>
	</g>
	<g>
		<g>
			<path class="st7" d="M688.8,139.2c-5.4,0-9.8,4.4-9.8,9.8c0,5.4,4.4,9.8,9.8,9.8c5.4,0,9.8-4.4,9.8-9.8
				C698.6,143.6,694.2,139.2,688.8,139.2z"/>
		</g>
	</g>
	<g>
		<g>
			<path class="st7" d="M674.7,121.1c-5.4,0-9.8,4.4-9.8,9.8c0,5.4,4.4,9.8,9.8,9.8c5.4,0,9.8-4.4,9.8-9.8
				C684.5,125.5,680.1,121.1,674.7,121.1z"/>
		</g>
	</g>
	<g>
		<g>
			<path class="st7" d="M660.1,103.4c-5.4,0-9.8,4.4-9.8,9.8c0,5.4,4.4,9.8,9.8,9.8c5.4,0,9.8-4.4,9.8-9.8
				C669.9,107.8,665.5,103.4,660.1,103.4z"/>
		</g>
	</g>
	<g>
		<g>
			<path class="st7" d="M643,88c-5.4,0-9.8,4.4-9.8,9.8s4.4,9.8,9.8,9.8s9.8-4.4,9.8-9.8S648.4,88,643,88z"/>
		</g>
	</g>
	<g>
		<g>
			<path class="st7" d="M625.3,73.4c-5.4,0-9.8,4.4-9.8,9.8c0,5.4,4.4,9.8,9.8,9.8c5.4,0,9.8-4.4,9.8-9.8
				C635.1,77.8,630.7,73.4,625.3,73.4z"/>
		</g>
	</g>
	<g>
		<g>
			<path class="st7" d="M605.9,61.3c-5.4,0-9.8,4.4-9.8,9.8c0,5.4,4.4,9.8,9.8,9.8c5.4,0,9.8-4.4,9.8-9.8
				C615.7,65.7,611.3,61.3,605.9,61.3z"/>
		</g>
	</g>
	<g>
		<g>
			<path class="st7" d="M585.7,50.3c-5.4,0-9.8,4.4-9.8,9.8c0,5.4,4.4,9.8,9.8,9.8c5.4,0,9.8-4.4,9.8-9.8
				C595.5,54.7,591.1,50.3,585.7,50.3z"/>
		</g>
	</g>
	<g>
		<g>
			<path class="st7" d="M564.4,41.8c-5.4,0-9.8,4.4-9.8,9.8c0,5.4,4.4,9.8,9.8,9.8c5.4,0,9.8-4.4,9.8-9.8
				C574.2,46.2,569.8,41.8,564.4,41.8z"/>
		</g>
	</g>
	<g>
		<g>
			<path class="st7" d="M542.5,35c-5.4,0-9.8,4.4-9.8,9.8s4.4,9.8,9.8,9.8s9.8-4.4,9.8-9.8S547.9,35,542.5,35z"/>
		</g>
	</g>
	<g>
		<g>
			<path class="st7" d="M520.1,30.2c-5.4,0-9.8,4.4-9.8,9.8c0,5.4,4.4,9.8,9.8,9.8c5.4,0,9.8-4.4,9.8-9.8
				C529.9,34.6,525.5,30.2,520.1,30.2z"/>
		</g>
	</g>
	<g>
		<g>
			<path class="st7" d="M497.3,27.9c-5.4,0-9.8,4.4-9.8,9.8c0,5.4,4.4,9.8,9.8,9.8c5.4,0,9.8-4.4,9.8-9.8
				C507.1,32.3,502.7,27.9,497.3,27.9z"/>
		</g>
	</g>
	<g>
		<g>
			<path class="st7" d="M474.4,26.7c-5.4,0-9.8,4.4-9.8,9.8c0,5.4,4.4,9.8,9.8,9.8c5.4,0,9.8-4.4,9.8-9.8
				C484.2,31.1,479.8,26.7,474.4,26.7z"/>
		</g>
	</g>
	<g>
		<g>
			<path class="st7" d="M451.5,29c-5.4,0-9.8,4.4-9.8,9.8s4.4,9.8,9.8,9.8s9.8-4.4,9.8-9.8S456.9,29,451.5,29z"/>
		</g>
	</g>
	<g>
		<g>
			<path class="st7" d="M406.7,38.3c-5.4,0-9.8,4.4-9.8,9.8c0,5.4,4.4,9.8,9.8,9.8c5.4,0,9.8-4.4,9.8-9.8
				C416.5,42.7,412.1,38.3,406.7,38.3z"/>
		</g>
	</g>
	<g>
		<g>
			<path class="st7" d="M384.8,45.1c-5.4,0-9.8,4.4-9.8,9.8c0,5.4,4.4,9.8,9.8,9.8c5.4,0,9.8-4.4,9.8-9.8
				C394.6,49.5,390.2,45.1,384.8,45.1z"/>
		</g>
	</g>
	<g>
		<g>
			<path class="st7" d="M364.4,55.7c-5.4,0-9.8,4.4-9.8,9.8c0,5.4,4.4,9.8,9.8,9.8c5.4,0,9.8-4.4,9.8-9.8
				C374.2,60.1,369.8,55.7,364.4,55.7z"/>
		</g>
	</g>
	<g>
		<g>
			<path class="st7" d="M344.2,66.7c-5.4,0-9.8,4.4-9.8,9.8c0,5.4,4.4,9.8,9.8,9.8c5.4,0,9.8-4.4,9.8-9.8
				C354,71.1,349.6,66.7,344.2,66.7z"/>
		</g>
	</g>
	<g>
		<g>
			<path class="st7" d="M326,80.6c-5.4,0-9.8,4.4-9.8,9.8c0,5.4,4.4,9.8,9.8,9.8s9.8-4.4,9.8-9.8C335.8,85,331.4,80.6,326,80.6z"/>
		</g>
	</g>
	<g>
		<g>
			<path class="st7" d="M308.3,95.2c-5.4,0-9.8,4.4-9.8,9.8c0,5.4,4.4,9.8,9.8,9.8c5.4,0,9.8-4.4,9.8-9.8
				C318.1,99.6,313.7,95.2,308.3,95.2z"/>
		</g>
	</g>
	<g>
		<g>
			<path class="st7" d="M292.8,112.1c-5.4,0-9.8,4.4-9.8,9.8c0,5.4,4.4,9.8,9.8,9.8c5.4,0,9.8-4.4,9.8-9.8
				C302.6,116.5,298.2,112.1,292.8,112.1z"/>
		</g>
	</g>
</g>
<g id="october_numbers">
	<text transform="matrix(1 0 0 1 275.2785 142.8383)" class="st2 st3">1</text>
	<text transform="matrix(1 0 0 1 289.9785 125.1387)" class="st2 st3">2</text>
	<text transform="matrix(1 0 0 1 305.4782 108.2383)" class="st2 st3">3</text>
	<text transform="matrix(1 0 0 1 323.1786 93.6383)" class="st2 st3">4</text>
	<text transform="matrix(1 0 0 1 341.3785 79.7385)" class="st2 st3">5</text>
	<text transform="matrix(1 0 0 1 361.5782 68.7387)" class="st2 st3">6</text>
	<text transform="matrix(1 0 0 1 381.9785 58.1385)" class="st2 st3">7</text>
	<text transform="matrix(1 0 0 1 403.8786 51.3387)" class="st2 st3">8</text>
	<text transform="matrix(1 0 0 1 425.8786 44.5386)" class="st2 st3">9</text>
	<text transform="matrix(1 0 0 1 445.8571 42.0387)" class="st2 st3">10</text>
	<text transform="matrix(1 0 0 1 468.7574 39.7384)" class="st2 st3">11</text>
	<text transform="matrix(1 0 0 1 490.4911 40.9385)" class="st2 st3">12 </text>
	<text transform="matrix(1 0 0 1 514.4571 43.2383)" class="st2 st3">13</text>
	<text transform="matrix(1 0 0 1 536.8574 48.0383)" class="st2 st3">14</text>
	<text transform="matrix(1 0 0 1 558.757 54.8385)" class="st2 st3">15</text>
	<text transform="matrix(1 0 0 1 580.0571 63.3386)" class="st2 st3">16</text>
	<text transform="matrix(1 0 0 1 600.2574 74.3385)" class="st2 st3">17</text>
	<text transform="matrix(1 0 0 1 619.6569 86.4384)" class="st2 st3">18</text>
	<text transform="matrix(1 0 0 1 637.357 101.0387)" class="st2 st3">19</text>
	<text transform="matrix(1 0 0 1 654.457 116.4384)" class="st2 st3">20</text>
	<text transform="matrix(1 0 0 1 669.0574 134.1383)" class="st2 st3">21</text>
	<text transform="matrix(1 0 0 1 683.1573 152.2384)" class="st2 st3">22</text>
	<text transform="matrix(1 0 0 1 694.1573 172.4384)" class="st2 st3">23</text>
	<text transform="matrix(1 0 0 1 704.957 192.6385)" class="st2 st3">24</text>
	<text transform="matrix(1 0 0 1 711.7571 214.6383)" class="st2 st3">25</text>
	<text transform="matrix(1 0 0 1 718.5571 236.5386)" class="st2 st3">26</text>
	<text transform="matrix(1 0 0 1 721.3572 259.3386)" class="st2 st3">27</text>
	<text transform="matrix(1 0 0 1 723.6573 282.2384)" class="st2 st3">28</text>
	<text transform="matrix(1 0 0 1 722.7571 305.0382)" class="st2 st3">29</text>
	<text transform="matrix(1 0 0 1 720.4573 327.939)" class="st2 st3">30</text>
	<text transform="matrix(1 0 0 1 716.4573 350.4383)" class="st2 st3">31</text>
</g>
<g id="september">
	<path class="st8" d="M241.7,267.3c0,5.4-4.4,9.8-9.8,9.8c-5.4,0-9.8-4.4-9.8-9.8s4.4-9.8,9.8-9.8
		C237.3,257.5,241.7,261.9,241.7,267.3z"/>
	<path class="st8" d="M252.1,357.8c0,5.4-4.4,9.8-9.8,9.8c-5.4,0-9.8-4.4-9.8-9.8s4.4-9.8,9.8-9.8
		C247.7,348,252.1,352.4,252.1,357.8z"/>
	<path class="st8" d="M431.1,518.8c0,5.4-4.4,9.8-9.8,9.8c-5.4,0-9.8-4.4-9.8-9.8s4.4-9.8,9.8-9.8
		C426.7,509,431.1,513.4,431.1,518.8z"/>
	<path class="st8" d="M499.7,521.2c0,5.4-4.4,9.8-9.8,9.8c-5.4,0-9.8-4.4-9.8-9.8c0-5.4,4.4-9.8,9.8-9.8
		C495.3,511.4,499.7,515.8,499.7,521.2z"/>
	<g>
		<g>
			<path class="st8" d="M254.8,169.3c-5.4,0-9.8,4.4-9.8,9.8c0,5.4,4.4,9.8,9.8,9.8c5.4,0,9.8-4.4,9.8-9.8
				C264.6,173.7,260.2,169.3,254.8,169.3z"/>
		</g>
	</g>
	<g>
		<g>
			<path class="st8" d="M246.1,190.4c-5.4,0-9.8,4.4-9.8,9.8c0,5.4,4.4,9.8,9.8,9.8c5.4,0,9.8-4.4,9.8-9.8
				C255.9,194.8,251.5,190.4,246.1,190.4z"/>
		</g>
	</g>
	<g>
		<g>
			<path class="st8" d="M239.2,212.3c-5.4,0-9.8,4.4-9.8,9.8c0,5.4,4.4,9.8,9.8,9.8c5.4,0,9.8-4.4,9.8-9.8
				C249,216.7,244.6,212.3,239.2,212.3z"/>
		</g>
	</g>
	<g>
		<g>
			<path class="st8" d="M234.2,234.7c-5.4,0-9.8,4.4-9.8,9.8c0,5.4,4.4,9.8,9.8,9.8c5.4,0,9.8-4.4,9.8-9.8
				C244,239.1,239.6,234.7,234.2,234.7z"/>
		</g>
	</g>
	<g>
		<g>
			<path class="st8" d="M230.4,280.4c-5.4,0-9.8,4.4-9.8,9.8c0,5.4,4.4,9.8,9.8,9.8c5.4,0,9.8-4.4,9.8-9.8
				C240.2,284.8,235.8,280.4,230.4,280.4z"/>
		</g>
	</g>
	<g>
		<g>
			<path class="st8" d="M232.7,303.3c-5.4,0-9.8,4.4-9.8,9.8c0,5.4,4.4,9.8,9.8,9.8c5.4,0,9.8-4.4,9.8-9.8
				C242.5,307.7,238.1,303.3,232.7,303.3z"/>
		</g>
	</g>
	<g>
		<g>
			<path class="st8" d="M235.5,326.1c-5.4,0-9.8,4.4-9.8,9.8c0,5.4,4.4,9.8,9.8,9.8s9.8-4.4,9.8-9.8
				C245.3,330.5,240.9,326.1,235.5,326.1z"/>
		</g>
	</g>
	<g>
		<g>
			<path class="st8" d="M249.3,369.8c-5.4,0-9.8,4.4-9.8,9.8c0,5.4,4.4,9.8,9.8,9.8c5.4,0,9.8-4.4,9.8-9.8
				C259.1,374.2,254.7,369.8,249.3,369.8z"/>
		</g>
	</g>
	<g>
		<g>
			<path class="st8" d="M260.3,390.1c-5.4,0-9.8,4.4-9.8,9.8c0,5.4,4.4,9.8,9.8,9.8c5.4,0,9.8-4.4,9.8-9.8
				C270.1,394.5,265.7,390.1,260.3,390.1z"/>
		</g>
	</g>
	<g>
		<g>
			<path class="st8" d="M271.5,410.1c-5.4,0-9.8,4.4-9.8,9.8c0,5.4,4.4,9.8,9.8,9.8s9.8-4.4,9.8-9.8
				C281.3,414.5,276.9,410.1,271.5,410.1z"/>
		</g>
	</g>
	<g>
		<g>
			<path class="st8" d="M286.1,427.8c-5.4,0-9.8,4.4-9.8,9.8c0,5.4,4.4,9.8,9.8,9.8c5.4,0,9.8-4.4,9.8-9.8
				C295.9,432.2,291.5,427.8,286.1,427.8z"/>
		</g>
	</g>
	<g>
		<g>
			<path class="st8" d="M301,445.3c-5.4,0-9.8,4.4-9.8,9.8c0,5.4,4.4,9.8,9.8,9.8s9.8-4.4,9.8-9.8
				C310.8,449.7,306.4,445.3,301,445.3z"/>
		</g>
	</g>
	<g>
		<g>
			<path class="st8" d="M318.8,459.9c-5.4,0-9.8,4.4-9.8,9.8c0,5.4,4.4,9.8,9.8,9.8c5.4,0,9.8-4.4,9.8-9.8
				C328.6,464.3,324.2,459.9,318.8,459.9z"/>
		</g>
	</g>
	<g>
		<g>
			<path class="st8" d="M336.7,474.2c-5.4,0-9.8,4.4-9.8,9.8c0,5.4,4.4,9.8,9.8,9.8c5.4,0,9.8-4.4,9.8-9.8
				C346.5,478.6,342.1,474.2,336.7,474.2z"/>
		</g>
	</g>
	<g>
		<g>
			<path class="st8" d="M356.9,485.1c-5.4,0-9.8,4.4-9.8,9.8c0,5.4,4.4,9.8,9.8,9.8c5.4,0,9.8-4.4,9.8-9.8
				C366.7,489.5,362.3,485.1,356.9,485.1z"/>
		</g>
	</g>
	<g>
		<g>
			<path class="st8" d="M377.3,495.7c-5.4,0-9.8,4.4-9.8,9.8c0,5.4,4.4,9.8,9.8,9.8c5.4,0,9.8-4.4,9.8-9.8
				C387.1,500.1,382.7,495.7,377.3,495.7z"/>
		</g>
	</g>
	<g>
		<g>
			<path class="st8" d="M399.3,502.5c-5.4,0-9.8,4.4-9.8,9.8s4.4,9.8,9.8,9.8c5.4,0,9.8-4.4,9.8-9.8S404.7,502.5,399.3,502.5z"/>
		</g>
	</g>
	<g>
		<g>
			<path class="st8" d="M444.2,511.3c-5.4,0-9.8,4.4-9.8,9.8c0,5.4,4.4,9.8,9.8,9.8c5.4,0,9.8-4.4,9.8-9.8
				C454,515.7,449.6,511.3,444.2,511.3z"/>
		</g>
	</g>
	<g>
		<g>
			<path class="st8" d="M467,513.6c-5.4,0-9.8,4.4-9.8,9.8c0,5.4,4.4,9.8,9.8,9.8s9.8-4.4,9.8-9.8C476.8,518,472.4,513.6,467,513.6z
				"/>
		</g>
	</g>
	<g>
		<g>
			<path class="st8" d="M512.8,528.7c-5.4,0-9.8-4.4-9.8-9.8c0-5.4,4.4-9.8,9.8-9.8c5.4,0,9.8,4.4,9.8,9.8
				C522.6,524.3,518.2,528.7,512.8,528.7z"/>
		</g>
	</g>
	<g>
		<g>
			<path class="st8" d="M534.8,522.4c-5.4,0-9.8-4.4-9.8-9.8c0-5.4,4.4-9.8,9.8-9.8c5.4,0,9.8,4.4,9.8,9.8
				C544.6,518,540.2,522.4,534.8,522.4z"/>
		</g>
	</g>
	<g>
		<g>
			<path class="st8" d="M556.8,515.6c-5.4,0-9.8-4.4-9.8-9.8s4.4-9.8,9.8-9.8c5.4,0,9.8,4.4,9.8,9.8S562.2,515.6,556.8,515.6z"/>
		</g>
	</g>
	<g>
		<g>
			<path class="st8" d="M577.2,505.2c-5.4,0-9.8-4.4-9.8-9.8c0-5.4,4.4-9.8,9.8-9.8c5.4,0,9.8,4.4,9.8,9.8
				C587,500.8,582.6,505.2,577.2,505.2z"/>
		</g>
	</g>
	<g>
		<g>
			<path class="st8" d="M597.4,494.2c-5.4,0-9.8-4.4-9.8-9.8c0-5.4,4.4-9.8,9.8-9.8c5.4,0,9.8,4.4,9.8,9.8
				C607.2,489.8,602.8,494.2,597.4,494.2z"/>
		</g>
	</g>
	<g>
		<g>
			<path class="st8" d="M615.5,480.1c-5.4,0-9.8-4.4-9.8-9.8s4.4-9.8,9.8-9.8s9.8,4.4,9.8,9.8S620.9,480.1,615.5,480.1z"/>
		</g>
	</g>
	<g>
		<g>
			<path class="st8" d="M633.3,465.5c-5.4,0-9.8-4.4-9.8-9.8c0-5.4,4.4-9.8,9.8-9.8c5.4,0,9.8,4.4,9.8,9.8
				C643.1,461.1,638.7,465.5,633.3,465.5z"/>
		</g>
	</g>
	<g>
		<g>
			<path class="st9" d="M648.3,448.1c-5.4,0-9.8-4.4-9.8-9.8s4.4-9.8,9.8-9.8c5.4,0,9.8,4.4,9.8,9.8S653.7,448.1,648.3,448.1z"/>
		</g>
	</g>
</g>
<g id="september_numbers">
	<text transform="matrix(1 0 0 1 630.4784 458.9381)" class="st2 st3">1</text>
	<text transform="matrix(1 0 0 1 612.6786 473.5386)" class="st2 st3">2</text>
	<text transform="matrix(1 0 0 1 594.5783 487.6383)" class="st2 st3">3</text>
	<text transform="matrix(1 0 0 1 574.3784 498.6389)" class="st2 st3">4</text>
	<text transform="matrix(1 0 0 1 553.9786 509.0387)" class="st2 st3">5</text>
	<text transform="matrix(1 0 0 1 531.9784 515.8389)" class="st2 st3">6</text>
	<text transform="matrix(1 0 0 1 509.9783 522.1387)" class="st2 st3">7</text>
	<text transform="matrix(1 0 0 1 487.0785 524.439)" class="st2 st3">8</text>
	<text transform="matrix(1 0 0 1 464.1783 526.6385)" class="st2 st3">9</text>
	<text transform="matrix(1 0 0 1 438.5571 524.3384)" class="st2 st3">10</text>
	<text transform="matrix(1 0 0 1 415.657 522.0381)" class="st2 st3">11</text>
	<text transform="matrix(1 0 0 1 392.491 515.5386)" class="st2 st3">12 </text>
	<text transform="matrix(1 0 0 1 371.6572 508.7386)" class="st2 st3">13</text>
	<text transform="matrix(1 0 0 1 351.8 498.1389)" class="st2 st3">14</text>
	<text transform="matrix(1 0 0 1 331.0573 487.2387)" class="st2 st3">15</text>
	<text transform="matrix(1 0 0 1 313.157 472.9389)" class="st2 st3">16</text>
	<text transform="matrix(1 0 0 1 295.3571 458.3386)" class="st2 st3">17</text>
	<text transform="matrix(1 0 0 1 280.4573 440.8383)" class="st2 st3">18</text>
	<text transform="matrix(1 0 0 1 265.8571 423.1381)" class="st2 st3">19</text>
	<text transform="matrix(1 0 0 1 254.6569 403.1386)" class="st2 st3">20</text>
	<text transform="matrix(1 0 0 1 243.6573 382.8387)" class="st2 st3">21</text>
	<text transform="matrix(1 0 0 1 236.6572 361.0388)" class="st2 st3">22</text>
	<text transform="matrix(1 0 0 1 229.8571 339.1382)" class="st2 st3">23</text>
	<text transform="matrix(1 0 0 1 227.057 316.3382)" class="st2 st3">24</text>
	<text transform="matrix(1 0 0 1 224.7573 293.4383)" class="st2 st3">25</text>
	<text transform="matrix(1 0 0 1 226.2573 270.5385)" class="st2 st3">26</text>
	<text transform="matrix(1 0 0 1 228.5574 247.7383)" class="st2 st3">27</text>
	<text transform="matrix(1 0 0 1 233.5571 225.3383)" class="st2 st3">28</text>
	<text transform="matrix(1 0 0 1 240.4572 203.4384)" class="st2 st3">29</text>
	<text transform="matrix(1 0 0 1 249.1571 182.3385)" class="st2 st3">30</text>
</g>
<g id="august">
	<path class="st10" d="M516.1,74.4c-5.4,0-9.8-4.4-9.8-9.8c0-5.4,4.4-9.8,9.8-9.8c5.4,0,9.8,4.4,9.8,9.8
		C525.9,70,521.5,74.4,516.1,74.4z"/>
	<path class="st10" d="M695,380.5c0,5.4-4.4,9.8-9.8,9.8c-5.4,0-9.8-4.4-9.8-9.8c0-5.4,4.4-9.8,9.8-9.8
		C690.6,370.7,695,375.1,695,380.5z"/>
	<path class="st10" d="M702.3,358.7c0,5.4-4.4,9.8-9.8,9.8s-9.8-4.4-9.8-9.8c0-5.4,4.4-9.8,9.8-9.8S702.3,353.3,702.3,358.7z"/>
	<g>
		<g>
			<path class="st10" d="M662.9,410.8c-5.4,0-9.8,4.4-9.8,9.8c0,5.4,4.4,9.8,9.8,9.8c5.4,0,9.8-4.4,9.8-9.8
				C672.7,415.2,668.3,410.8,662.9,410.8z"/>
		</g>
	</g>
	<g>
		<g>
			<path class="st10" d="M674.2,390.9c-5.4,0-9.8,4.4-9.8,9.8c0,5.4,4.4,9.8,9.8,9.8c5.4,0,9.8-4.4,9.8-9.8
				C684,395.3,679.6,390.9,674.2,390.9z"/>
		</g>
	</g>
	<g>
		<g>
			<path class="st10" d="M699.3,346.5c-5.4,0-9.8-4.4-9.8-9.8c0-5.4,4.4-9.8,9.8-9.8c5.4,0,9.8,4.4,9.8,9.8
				C709.1,342.1,704.7,346.5,699.3,346.5z"/>
		</g>
	</g>
	<g>
		<g>
			<path class="st10" d="M702.2,323.8c-5.4,0-9.8-4.4-9.8-9.8c0-5.4,4.4-9.8,9.8-9.8c5.4,0,9.8,4.4,9.8,9.8
				C712,319.4,707.6,323.8,702.2,323.8z"/>
		</g>
	</g>
	<g>
		<g>
			<path class="st10" d="M704.5,300.9c-5.4,0-9.8-4.4-9.8-9.8c0-5.4,4.4-9.8,9.8-9.8s9.8,4.4,9.8,9.8
				C714.3,296.5,709.9,300.9,704.5,300.9z"/>
		</g>
	</g>
	<g>
		<g>
			<path class="st10" d="M703.2,278c-5.4,0-9.8-4.4-9.8-9.8c0-5.4,4.4-9.8,9.8-9.8c5.4,0,9.8,4.4,9.8,9.8
				C713,273.6,708.6,278,703.2,278z"/>
		</g>
	</g>
	<g>
		<g>
			<path class="st10" d="M700.9,255.2c-5.4,0-9.8-4.4-9.8-9.8c0-5.4,4.4-9.8,9.8-9.8c5.4,0,9.8,4.4,9.8,9.8
				C710.7,250.8,706.3,255.2,700.9,255.2z"/>
		</g>
	</g>
	<g>
		<g>
			<path class="st10" d="M695,233c-5.4,0-9.8-4.4-9.8-9.8c0-5.4,4.4-9.8,9.8-9.8s9.8,4.4,9.8,9.8C704.8,228.6,700.4,233,695,233z"/>
		</g>
	</g>
	<g>
		<g>
			<path class="st10" d="M688.2,211.1c-5.4,0-9.8-4.4-9.8-9.8s4.4-9.8,9.8-9.8c5.4,0,9.8,4.4,9.8,9.8S693.6,211.1,688.2,211.1z"/>
		</g>
	</g>
	<g>
		<g>
			<path class="st10" d="M677.8,190.6c-5.4,0-9.8-4.4-9.8-9.8s4.4-9.8,9.8-9.8c5.4,0,9.8,4.4,9.8,9.8S683.2,190.6,677.8,190.6z"/>
		</g>
	</g>
	<g>
		<g>
			<path class="st10" d="M666.8,170.4c-5.4,0-9.8-4.4-9.8-9.8c0-5.4,4.4-9.8,9.8-9.8c5.4,0,9.8,4.4,9.8,9.8
				C676.6,166,672.2,170.4,666.8,170.4z"/>
		</g>
	</g>
	<g>
		<g>
			<path class="st10" d="M652.3,152.7c-5.4,0-9.8-4.4-9.8-9.8c0-5.4,4.4-9.8,9.8-9.8c5.4,0,9.8,4.4,9.8,9.8
				C662.1,148.3,657.7,152.7,652.3,152.7z"/>
		</g>
	</g>
	<g>
		<g>
			<path class="st10" d="M637.4,135.2c-5.4,0-9.8-4.4-9.8-9.8c0-5.4,4.4-9.8,9.8-9.8c5.4,0,9.8,4.4,9.8,9.8
				C647.2,130.8,642.8,135.2,637.4,135.2z"/>
		</g>
	</g>
	<g>
		<g>
			<path class="st10" d="M619.6,120.6c-5.4,0-9.8-4.4-9.8-9.8s4.4-9.8,9.8-9.8c5.4,0,9.8,4.4,9.8,9.8S625,120.6,619.6,120.6z"/>
		</g>
	</g>
	<g>
		<g>
			<path class="st10" d="M601.4,106.8c-5.4,0-9.8-4.4-9.8-9.8c0-5.4,4.4-9.8,9.8-9.8c5.4,0,9.8,4.4,9.8,9.8
				C611.2,102.4,606.8,106.8,601.4,106.8z"/>
		</g>
	</g>
	<g>
		<g>
			<path class="st10" d="M581.2,95.8c-5.4,0-9.8-4.4-9.8-9.8c0-5.4,4.4-9.8,9.8-9.8c5.4,0,9.8,4.4,9.8,9.8
				C591,91.4,586.6,95.8,581.2,95.8z"/>
		</g>
	</g>
	<g>
		<g>
			<path class="st10" d="M560.4,86.2c-5.4,0-9.8-4.4-9.8-9.8c0-5.4,4.4-9.8,9.8-9.8c5.4,0,9.8,4.4,9.8,9.8
				C570.2,81.8,565.8,86.2,560.4,86.2z"/>
		</g>
	</g>
	<g>
		<g>
			<path class="st10" d="M538.4,79.4c-5.4,0-9.8-4.4-9.8-9.8c0-5.4,4.4-9.8,9.8-9.8c5.4,0,9.8,4.4,9.8,9.8
				C548.2,75,543.8,79.4,538.4,79.4z"/>
		</g>
	</g>
	<g>
		<g>
			<path class="st10" d="M516.1,74.4c-5.4,0-9.8-4.4-9.8-9.8c0-5.4,4.4-9.8,9.8-9.8c5.4,0,9.8,4.4,9.8,9.8
				C525.9,70,521.5,74.4,516.1,74.4z"/>
			<path class="st10" d="M525.9,64.6c0,5.4-4.4,9.8-9.8,9.8c-5.4,0-9.8-4.4-9.8-9.8c0-5.4,4.4-9.8,9.8-9.8
				C521.5,54.8,525.9,59.2,525.9,64.6z"/>
		</g>
	</g>
	<g>
		<g>
			<path class="st10" d="M493.3,72.1c-5.4,0-9.8-4.4-9.8-9.8s4.4-9.8,9.8-9.8c5.4,0,9.8,4.4,9.8,9.8S498.7,72.1,493.3,72.1z"/>
		</g>
	</g>
	<g>
		<g>
			<path class="st10" d="M470.4,71.7c-5.4,0-9.8-4.4-9.8-9.8c0-5.4,4.4-9.8,9.8-9.8c5.4,0,9.8,4.4,9.8,9.8
				C480.2,67.3,475.8,71.7,470.4,71.7z"/>
		</g>
	</g>
	<g>
		<g>
			<path class="st10" d="M447.5,74c-5.4,0-9.8-4.4-9.8-9.8c0-5.4,4.4-9.8,9.8-9.8s9.8,4.4,9.8,9.8C457.3,69.6,452.9,74,447.5,74z"/>
		</g>
	</g>
	<g>
		<g>
			<path class="st10" d="M425,78.3c-5.4,0-9.8-4.4-9.8-9.8c0-5.4,4.4-9.8,9.8-9.8s9.8,4.4,9.8,9.8C434.8,73.9,430.4,78.3,425,78.3z"
				/>
		</g>
	</g>
	<g>
		<g>
			<path class="st10" d="M403.1,85.1c-5.4,0-9.8-4.4-9.8-9.8s4.4-9.8,9.8-9.8c5.4,0,9.8,4.4,9.8,9.8S408.5,85.1,403.1,85.1z"/>
		</g>
	</g>
	<g>
		<g>
			<path class="st10" d="M382,94.1c-5.4,0-9.8-4.4-9.8-9.8s4.4-9.8,9.8-9.8s9.8,4.4,9.8,9.8S387.4,94.1,382,94.1z"/>
		</g>
	</g>
	<g>
		<g>
			<path class="st10" d="M361.8,105c-5.4,0-9.8-4.4-9.8-9.8c0-5.4,4.4-9.8,9.8-9.8c5.4,0,9.8,4.4,9.8,9.8
				C371.6,100.6,367.2,105,361.8,105z"/>
		</g>
	</g>
	<g>
		<g>
			<path class="st10" d="M343.2,118.3c-5.4,0-9.8-4.4-9.8-9.8c0-5.4,4.4-9.8,9.8-9.8c5.4,0,9.8,4.4,9.8,9.8
				C353,113.9,348.6,118.3,343.2,118.3z"/>
		</g>
	</g>
	<g>
		<g>
			<path class="st10" d="M325.4,132.9c-5.4,0-9.8-4.4-9.8-9.8c0-5.4,4.4-9.8,9.8-9.8c5.4,0,9.8,4.4,9.8,9.8
				C335.2,128.5,330.8,132.9,325.4,132.9z"/>
		</g>
	</g>
	<g>
		<g>
			<path class="st10" d="M310,149.8c-5.4,0-9.8-4.4-9.8-9.8c0-5.4,4.4-9.8,9.8-9.8s9.8,4.4,9.8,9.8
				C319.8,145.4,315.4,149.8,310,149.8z"/>
		</g>
	</g>
	<g>
		<g>
			<path class="st11" d="M295.4,167.6c-5.4,0-9.8-4.4-9.8-9.8s4.4-9.8,9.8-9.8c5.4,0,9.8,4.4,9.8,9.8S300.8,167.6,295.4,167.6z"/>
		</g>
	</g>
</g>
<g id="august_numbers">
	<text transform="matrix(1 0 0 1 307.1783 143.2386)" class="st2 st3">1</text>
	<text transform="matrix(1 0 0 1 322.5784 126.3387)" class="st2 st3">2</text>
	<text transform="matrix(1 0 0 1 340.3786 111.7387)" class="st2 st3">3</text>
	<text transform="matrix(1 0 0 1 358.9783 98.4383)" class="st2 st3">4</text>
	<text transform="matrix(1 0 0 1 379.1784 87.5387)" class="st2 st3">5</text>
	<text transform="matrix(1 0 0 1 400.2786 78.5388)" class="st2 st3">6</text>
	<text transform="matrix(1 0 0 1 422.1784 71.7386)" class="st2 st3">7</text>
	<text transform="matrix(1 0 0 1 444.6784 67.4385)" class="st2 st3">8</text>
	<text transform="matrix(1 0 0 1 467.5786 65.1385)" class="st2 st3">9</text>
	<text transform="matrix(1 0 0 1 487.6571 65.5387)" class="st2 st3">10</text>
	<text transform="matrix(1 0 0 1 510.4574 67.8383)" class="st2 st3">11</text>
	<text transform="matrix(1 0 0 1 531.591 72.8385)" class="st2 st3">12 </text>
	<text transform="matrix(1 0 0 1 554.757 79.6385)" class="st2 st3">13</text>
	<text transform="matrix(1 0 0 1 575.5571 89.2383)" class="st2 st3">14</text>
	<text transform="matrix(1 0 0 1 595.757 100.2387)" class="st2 st3">15</text>
	<text transform="matrix(1 0 0 1 613.9572 114.0386)" class="st2 st3">16</text>
	<text transform="matrix(1 0 0 1 631.7573 128.6386)" class="st2 st3">17</text>
	<text transform="matrix(1 0 0 1 646.6571 146.1386)" class="st2 st3">18</text>
	<text transform="matrix(1 0 0 1 661.157 163.8387)" class="st2 st3">19</text>
	<text transform="matrix(1 0 0 1 672.157 184.0386)" class="st2 st3">20</text>
	<text transform="matrix(1 0 0 1 682.5574 204.5385)" class="st2 st3">21</text>
	<text transform="matrix(1 0 0 1 689.3573 226.4385)" class="st2 st3">22</text>
	<text transform="matrix(1 0 0 1 695.257 248.6387)" class="st2 st3">23</text>
	<text transform="matrix(1 0 0 1 697.5573 271.4383)" class="st2 st3">24</text>
	<text transform="matrix(1 0 0 1 698.8572 294.3382)" class="st2 st3">25</text>
	<text transform="matrix(1 0 0 1 696.5573 317.2387)" class="st2 st3">26</text>
	<text transform="matrix(1 0 0 1 693.6574 339.9384)" class="st2 st3">27</text>
	<text transform="matrix(1 0 0 1 686.8574 361.9383)" class="st2 st3">28</text>
	<text transform="matrix(1 0 0 1 679.5573 383.7384)" class="st2 st3">29</text>
	<text transform="matrix(1 0 0 1 668.5571 403.9383)" class="st2 st3">30</text>
	<text transform="matrix(1 0 0 1 657.257 423.8384)" class="st2 st3">31</text>
</g>
<g id="july">
	<path class="st12" d="M270.4,333c0,5.4-4.4,9.8-9.8,9.8c-5.4,0-9.8-4.4-9.8-9.8c0-5.4,4.4-9.8,9.8-9.8
		C266,323.2,270.4,327.6,270.4,333z"/>
	<path class="st12" d="M341.5,448.2c0,5.4-4.4,9.8-9.8,9.8c-5.4,0-9.8-4.4-9.8-9.8c0-5.4,4.4-9.8,9.8-9.8
		C337.1,438.4,341.5,442.8,341.5,448.2z"/>
	<path class="st12" d="M444.5,495.1c0,5.4-4.4,9.8-9.8,9.8c-5.4,0-9.8-4.4-9.8-9.8c0-5.4,4.4-9.8,9.8-9.8
		C440.1,485.3,444.5,489.7,444.5,495.1z"/>
	<path class="st12" d="M632.2,430.6c0,5.4-4.4,9.8-9.8,9.8c-5.4,0-9.8-4.4-9.8-9.8c0-5.4,4.4-9.8,9.8-9.8
		C627.8,420.8,632.2,425.2,632.2,430.6z"/>
	<g>
		<g>
			<path class="st12" d="M283.9,167.8c-5.4,0-9.8,4.4-9.8,9.8c0,5.4,4.4,9.8,9.8,9.8c5.4,0,9.8-4.4,9.8-9.8
				C293.7,172.2,289.3,167.8,283.9,167.8z"/>
		</g>
	</g>
	<g>
		<g>
			<path class="st12" d="M273,188c-5.4,0-9.8,4.4-9.8,9.8s4.4,9.8,9.8,9.8s9.8-4.4,9.8-9.8S278.4,188,273,188z"/>
		</g>
	</g>
	<g>
		<g>
			<path class="st12" d="M266,209.9c-5.4,0-9.8,4.4-9.8,9.8c0,5.4,4.4,9.8,9.8,9.8s9.8-4.4,9.8-9.8
				C275.8,214.3,271.4,209.9,266,209.9z"/>
		</g>
	</g>
	<g>
		<g>
			<path class="st12" d="M259.5,231.9c-5.4,0-9.8,4.4-9.8,9.8c0,5.4,4.4,9.8,9.8,9.8s9.8-4.4,9.8-9.8
				C269.3,236.3,264.9,231.9,259.5,231.9z"/>
		</g>
	</g>
	<g>
		<g>
			<path class="st12" d="M257.2,254.8c-5.4,0-9.8,4.4-9.8,9.8c0,5.4,4.4,9.8,9.8,9.8c5.4,0,9.8-4.4,9.8-9.8
				C267,259.2,262.6,254.8,257.2,254.8z"/>
		</g>
	</g>
	<g>
		<g>
			<path class="st12" d="M255.2,277.7c-5.4,0-9.8,4.4-9.8,9.8c0,5.4,4.4,9.8,9.8,9.8c5.4,0,9.8-4.4,9.8-9.8
				C265,282.1,260.6,277.7,255.2,277.7z"/>
		</g>
	</g>
	<g>
		<g>
			<path class="st12" d="M257.5,300.5c-5.4,0-9.8,4.4-9.8,9.8s4.4,9.8,9.8,9.8s9.8-4.4,9.8-9.8S262.9,300.5,257.5,300.5z"/>
		</g>
	</g>
	<g>
		<g>
			<path class="st12" d="M267.5,345.2c-5.4,0-9.8,4.4-9.8,9.8c0,5.4,4.4,9.8,9.8,9.8s9.8-4.4,9.8-9.8
				C277.3,349.6,272.9,345.2,267.5,345.2z"/>
		</g>
	</g>
	<g>
		<g>
			<path class="st12" d="M275.8,366.5c-5.4,0-9.8,4.4-9.8,9.8s4.4,9.8,9.8,9.8c5.4,0,9.8-4.4,9.8-9.8S281.2,366.5,275.8,366.5z"/>
		</g>
	</g>
	<g>
		<g>
			<path class="st12" d="M286.8,386.7c-5.4,0-9.8,4.4-9.8,9.8c0,5.4,4.4,9.8,9.8,9.8c5.4,0,9.8-4.4,9.8-9.8
				C296.6,391.1,292.2,386.7,286.8,386.7z"/>
		</g>
	</g>
	<g>
		<g>
			<path class="st12" d="M299.9,405.4c-5.4,0-9.8,4.4-9.8,9.8c0,5.4,4.4,9.8,9.8,9.8c5.4,0,9.8-4.4,9.8-9.8
				C309.7,409.8,305.3,405.4,299.9,405.4z"/>
		</g>
	</g>
	<g>
		<g>
			<path class="st12" d="M314.6,423.2c-5.4,0-9.8,4.4-9.8,9.8c0,5.4,4.4,9.8,9.8,9.8c5.4,0,9.8-4.4,9.8-9.8
				C324.4,427.6,320,423.2,314.6,423.2z"/>
		</g>
	</g>
	<g>
		<g>
			<path class="st12" d="M349.6,452.8c-5.4,0-9.8,4.4-9.8,9.8c0,5.4,4.4,9.8,9.8,9.8c5.4,0,9.8-4.4,9.8-9.8
				C359.4,457.2,355,452.8,349.6,452.8z"/>
		</g>
	</g>
	<g>
		<g>
			<path class="st12" d="M369.8,463.8c-5.4,0-9.8,4.4-9.8,9.8c0,5.4,4.4,9.8,9.8,9.8c5.4,0,9.8-4.4,9.8-9.8
				C379.6,468.2,375.2,463.8,369.8,463.8z"/>
		</g>
	</g>
	<g>
		<g>
			<path class="st12" d="M390.4,473.7c-5.4,0-9.8,4.4-9.8,9.8c0,5.4,4.4,9.8,9.8,9.8c5.4,0,9.8-4.4,9.8-9.8
				C400.2,478.1,395.8,473.7,390.4,473.7z"/>
		</g>
	</g>
	<g>
		<g>
			<path class="st12" d="M412.4,480.5c-5.4,0-9.8,4.4-9.8,9.8s4.4,9.8,9.8,9.8c5.4,0,9.8-4.4,9.8-9.8S417.8,480.5,412.4,480.5z"/>
		</g>
	</g>
	<g>
		<g>
			<path class="st12" d="M457.6,487.6c-5.4,0-9.8,4.4-9.8,9.8c0,5.4,4.4,9.8,9.8,9.8c5.4,0,9.8-4.4,9.8-9.8
				C467.4,492,463,487.6,457.6,487.6z"/>
		</g>
	</g>
	<g>
		<g>
			<path class="st12" d="M480.5,487.3c-5.4,0-9.8,4.4-9.8,9.8c0,5.4,4.4,9.8,9.8,9.8s9.8-4.4,9.8-9.8
				C490.3,491.7,485.9,487.3,480.5,487.3z"/>
		</g>
	</g>
	<g>
		<g>
			<path class="st12" d="M503.3,485c-5.4,0-9.8,4.4-9.8,9.8s4.4,9.8,9.8,9.8c5.4,0,9.8-4.4,9.8-9.8S508.7,485,503.3,485z"/>
		</g>
	</g>
	<g>
		<g>
			<path class="st12" d="M525.6,479.6c-5.4,0-9.8,4.4-9.8,9.8c0,5.4,4.4,9.8,9.8,9.8c5.4,0,9.8-4.4,9.8-9.8
				C535.4,484,531,479.6,525.6,479.6z"/>
		</g>
	</g>
	<g>
		<g>
			<path class="st12" d="M547.5,472.8c-5.4,0-9.8,4.4-9.8,9.8c0,5.4,4.4,9.8,9.8,9.8s9.8-4.4,9.8-9.8
				C557.3,477.2,552.9,472.8,547.5,472.8z"/>
		</g>
	</g>
	<g>
		<g>
			<path class="st12" d="M567.9,462.3c-5.4,0-9.8,4.4-9.8,9.8c0,5.4,4.4,9.8,9.8,9.8c5.4,0,9.8-4.4,9.8-9.8
				C577.7,466.7,573.3,462.3,567.9,462.3z"/>
		</g>
	</g>
	<g>
		<g>
			<path class="st12" d="M587.9,451c-5.4,0-9.8,4.4-9.8,9.8s4.4,9.8,9.8,9.8c5.4,0,9.8-4.4,9.8-9.8S593.3,451,587.9,451z"/>
		</g>
	</g>
	<g>
		<g>
			<path class="st12" d="M605.6,436.4c-5.4,0-9.8,4.4-9.8,9.8c0,5.4,4.4,9.8,9.8,9.8c5.4,0,9.8-4.4,9.8-9.8
				C615.4,440.8,611,436.4,605.6,436.4z"/>
		</g>
	</g>
	<g>
		<g>
			<path class="st12" d="M637,422.7c-5.4,0-9.8-4.4-9.8-9.8c0-5.4,4.4-9.8,9.8-9.8s9.8,4.4,9.8,9.8
				C646.8,418.3,642.4,422.7,637,422.7z"/>
		</g>
	</g>
	<g>
		<g>
			<path class="st12" d="M649.7,403.6c-5.4,0-9.8-4.4-9.8-9.8s4.4-9.8,9.8-9.8c5.4,0,9.8,4.4,9.8,9.8S655.1,403.6,649.7,403.6z"/>
		</g>
	</g>
	<g>
		<g>
			<path class="st12" d="M660.6,383.4c-5.4,0-9.8-4.4-9.8-9.8c0-5.4,4.4-9.8,9.8-9.8c5.4,0,9.8,4.4,9.8,9.8
				C670.4,379,666,383.4,660.6,383.4z"/>
		</g>
	</g>
	<g>
		<g>
			<path class="st13" d="M668.5,361.9c-5.4,0-9.8-4.4-9.8-9.8c0-5.4,4.4-9.8,9.8-9.8s9.8,4.4,9.8,9.8
				C678.3,357.5,673.9,361.9,668.5,361.9z"/>
		</g>
	</g>
</g>
<g id="july_numbers">
	<text transform="matrix(1 0 0 1 657.7783 376.8384)" class="st2 st3">1</text>
	<text transform="matrix(1 0 0 1 646.8785 397.039)" class="st2 st3">2</text>
	<text transform="matrix(1 0 0 1 634.1785 416.1387)" class="st2 st3">3</text>
	<text transform="matrix(1 0 0 1 619.5786 433.8146)" class="st2 st3">4</text>
	<text transform="matrix(1 0 0 1 602.7783 449.4388)" class="st2 st3">5</text>
	<text transform="matrix(1 0 0 1 585.0786 464.0386)" class="st2 st3">6</text>
	<text transform="matrix(1 0 0 1 565.0784 475.3382)" class="st2 st3">7</text>
	<text transform="matrix(1 0 0 1 544.6784 485.8387)" class="st2 st3">8</text>
	<text transform="matrix(1 0 0 1 522.7785 492.6381)" class="st2 st3">9</text>
	<text transform="matrix(1 0 0 1 497.6574 498.039)" class="st2 st3">10</text>
	<text transform="matrix(1 0 0 1 474.8571 500.3384)" class="st2 st3">11</text>
	<text transform="matrix(1 0 0 1 450.7912 500.6383)" class="st2 st3">12 </text>
	<text transform="matrix(1 0 0 1 429.0572 498.3385)" class="st2 st3">13</text>
	<text transform="matrix(1 0 0 1 406.7572 493.5381)" class="st2 st3">14</text>
	<text transform="matrix(1 0 0 1 384.7573 486.7388)" class="st2 st3">15</text>
	<text transform="matrix(1 0 0 1 364.1573 476.8383)" class="st2 st3">16</text>
	<text transform="matrix(1 0 0 1 343.9571 465.8387)" class="st2 st3">17</text>
	<text transform="matrix(1 0 0 1 326.0573 451.4384)" class="st2 st3">18</text>
	<text transform="matrix(1 0 0 1 308.9572 436.2386)" class="st2 st3">19</text>
	<text transform="matrix(1 0 0 1 294.2571 418.4383)" class="st2 st3">20</text>
	<text transform="matrix(1 0 0 1 281.157 399.7381)" class="st2 st3">21</text>
	<text transform="matrix(1 0 0 1 270.1574 379.5388)" class="st2 st3">22</text>
	<text transform="matrix(1 0 0 1 261.8574 358.2385)" class="st2 st3">23</text>
	<text transform="matrix(1 0 0 1 254.9573 336.2387)" class="st2 st3">24</text>
	<text transform="matrix(1 0 0 1 251.8572 313.5389)" class="st2 st3">25</text>
	<text transform="matrix(1 0 0 1 249.5572 290.7389)" class="st2 st3">26</text>
	<text transform="matrix(1 0 0 1 251.5573 267.8384)" class="st2 st3">27</text>
	<text transform="matrix(1 0 0 1 253.8574 244.9383)" class="st2 st3">28</text>
	<text transform="matrix(1 0 0 1 260.3572 222.9386)" class="st2 st3">29</text>
	<text transform="matrix(1 0 0 1 267.3573 201.0388)" class="st2 st3">30</text>
	<text transform="matrix(1 0 0 1 278.2572 180.8383)" class="st2 st3">31</text>
</g>
<g id="june">
	<path class="st14" d="M291.9,303.9c0,5.4-4.4,9.8-9.8,9.8c-5.4,0-9.8-4.4-9.8-9.8c0-5.4,4.4-9.8,9.8-9.8
		C287.5,294.1,291.9,298.5,291.9,303.9z"/>
	<path class="st15" d="M525.7,90.1c0,5.4-4.4,9.8-9.8,9.8c-5.4,0-9.8-4.4-9.8-9.8c0-5.4,4.4-9.8,9.8-9.8
		C521.3,80.3,525.7,84.7,525.7,90.1z"/>
	<g>
		<g>
			<path class="st15" d="M675.3,339.9c-5.4,0-9.8-4.4-9.8-9.8c0-5.4,4.4-9.8,9.8-9.8c5.4,0,9.8,4.4,9.8,9.8
				C685.1,335.5,680.7,339.9,675.3,339.9z"/>
		</g>
	</g>
	<g>
		<g>
			<path class="st15" d="M677.8,317.1c-5.4,0-9.8-4.4-9.8-9.8s4.4-9.8,9.8-9.8c5.4,0,9.8,4.4,9.8,9.8S683.2,317.1,677.8,317.1z"/>
		</g>
	</g>
	<g>
		<g>
			<path class="st15" d="M679.8,294.2c-5.4,0-9.8-4.4-9.8-9.8c0-5.4,4.4-9.8,9.8-9.8c5.4,0,9.8,4.4,9.8,9.8
				C689.6,289.8,685.2,294.2,679.8,294.2z"/>
		</g>
	</g>
	<g>
		<g>
			<path class="st15" d="M677.2,271.4c-5.4,0-9.8-4.4-9.8-9.8c0-5.4,4.4-9.8,9.8-9.8c5.4,0,9.8,4.4,9.8,9.8
				C687,267,682.6,271.4,677.2,271.4z"/>
		</g>
	</g>
	<g>
		<g>
			<path class="st15" d="M674.3,248.6c-5.4,0-9.8-4.4-9.8-9.8s4.4-9.8,9.8-9.8c5.4,0,9.8,4.4,9.8,9.8S679.7,248.6,674.3,248.6z"/>
		</g>
	</g>
	<g>
		<g>
			<path class="st15" d="M666.5,227c-5.4,0-9.8-4.4-9.8-9.8c0-5.4,4.4-9.8,9.8-9.8s9.8,4.4,9.8,9.8C676.3,222.6,671.9,227,666.5,227
				z"/>
		</g>
	</g>
	<g>
		<g>
			<path class="st15" d="M658.3,205.6c-5.4,0-9.8-4.4-9.8-9.8s4.4-9.8,9.8-9.8c5.4,0,9.8,4.4,9.8,9.8S663.7,205.6,658.3,205.6z"/>
		</g>
	</g>
	<g>
		<g>
			<path class="st15" d="M645.9,186.2c-5.4,0-9.8-4.4-9.8-9.8c0-5.4,4.4-9.8,9.8-9.8c5.4,0,9.8,4.4,9.8,9.8
				C655.7,181.8,651.3,186.2,645.9,186.2z"/>
		</g>
	</g>
	<g>
		<g>
			<path class="st15" d="M632.8,167.4c-5.4,0-9.8-4.4-9.8-9.8c0-5.4,4.4-9.8,9.8-9.8c5.4,0,9.8,4.4,9.8,9.8
				C642.6,163,638.2,167.4,632.8,167.4z"/>
		</g>
	</g>
	<g>
		<g>
			<path class="st15" d="M616.6,151.2c-5.4,0-9.8-4.4-9.8-9.8c0-5.4,4.4-9.8,9.8-9.8c5.4,0,9.8,4.4,9.8,9.8
				C626.4,146.8,622,151.2,616.6,151.2z"/>
		</g>
	</g>
	<g>
		<g>
			<path class="st15" d="M599.4,136.1c-5.4,0-9.8-4.4-9.8-9.8s4.4-9.8,9.8-9.8c5.4,0,9.8,4.4,9.8,9.8S604.8,136.1,599.4,136.1z"/>
		</g>
	</g>
	<g>
		<g>
			<path class="st15" d="M580,123.7c-5.4,0-9.8-4.4-9.8-9.8c0-5.4,4.4-9.8,9.8-9.8s9.8,4.4,9.8,9.8
				C589.8,119.3,585.4,123.7,580,123.7z"/>
		</g>
	</g>
	<g>
		<g>
			<path class="st15" d="M559.8,113.1c-5.4,0-9.8-4.4-9.8-9.8s4.4-9.8,9.8-9.8c5.4,0,9.8,4.4,9.8,9.8S565.2,113.1,559.8,113.1z"/>
		</g>
	</g>
	<g>
		<g>
			<path class="st15" d="M538.1,105.4c-5.4,0-9.8-4.4-9.8-9.8c0-5.4,4.4-9.8,9.8-9.8c5.4,0,9.8,4.4,9.8,9.8
				C547.9,101,543.5,105.4,538.1,105.4z"/>
		</g>
	</g>
	<g>
		<g>
			<path class="st15" d="M493.1,77.7c-5.4,0-9.8,4.4-9.8,9.8c0,5.4,4.4,9.8,9.8,9.8c5.4,0,9.8-4.4,9.8-9.8
				C502.9,82.1,498.5,77.7,493.1,77.7z"/>
		</g>
	</g>
	<g>
		<g>
			<path class="st15" d="M470.3,77.3c-5.4,0-9.8,4.4-9.8,9.8c0,5.4,4.4,9.8,9.8,9.8c5.4,0,9.8-4.4,9.8-9.8
				C480.1,81.7,475.7,77.3,470.3,77.3z"/>
		</g>
	</g>
	<g>
		<g>
			<path class="st15" d="M447.4,79.9c-5.4,0-9.8,4.4-9.8,9.8c0,5.4,4.4,9.8,9.8,9.8c5.4,0,9.8-4.4,9.8-9.8
				C457.2,84.3,452.8,79.9,447.4,79.9z"/>
		</g>
	</g>
	<g>
		<g>
			<path class="st15" d="M425.1,84.7c-5.4,0-9.8,4.4-9.8,9.8c0,5.4,4.4,9.8,9.8,9.8c5.4,0,9.8-4.4,9.8-9.8
				C434.9,89.1,430.5,84.7,425.1,84.7z"/>
		</g>
	</g>
	<g>
		<g>
			<path class="st15" d="M403.5,92.4c-5.4,0-9.8,4.4-9.8,9.8c0,5.4,4.4,9.8,9.8,9.8s9.8-4.4,9.8-9.8
				C413.3,96.8,408.9,92.4,403.5,92.4z"/>
		</g>
	</g>
	<g>
		<g>
			<path class="st15" d="M382.9,102.3c-5.4,0-9.8,4.4-9.8,9.8c0,5.4,4.4,9.8,9.8,9.8c5.4,0,9.8-4.4,9.8-9.8
				C392.7,106.7,388.3,102.3,382.9,102.3z"/>
		</g>
	</g>
	<g>
		<g>
			<path class="st15" d="M363.5,114.6c-5.4,0-9.8,4.4-9.8,9.8c0,5.4,4.4,9.8,9.8,9.8s9.8-4.4,9.8-9.8
				C373.3,119,368.9,114.6,363.5,114.6z"/>
		</g>
	</g>
	<g>
		<g>
			<path class="st15" d="M345.8,129.2c-5.4,0-9.8,4.4-9.8,9.8c0,5.4,4.4,9.8,9.8,9.8c5.4,0,9.8-4.4,9.8-9.8
				C355.6,133.6,351.2,129.2,345.8,129.2z"/>
		</g>
	</g>
	<g>
		<g>
			<path class="st15" d="M329.6,145.4c-5.4,0-9.8,4.4-9.8,9.8c0,5.4,4.4,9.8,9.8,9.8c5.4,0,9.8-4.4,9.8-9.8
				C339.4,149.8,335,145.4,329.6,145.4z"/>
		</g>
	</g>
	<g>
		<g>
			<path class="st15" d="M315.9,163.7c-5.4,0-9.8,4.4-9.8,9.8c0,5.4,4.4,9.8,9.8,9.8c5.4,0,9.8-4.4,9.8-9.8
				C325.7,168.1,321.3,163.7,315.9,163.7z"/>
		</g>
	</g>
	<g>
		<g>
			<path class="st15" d="M303.6,183.1c-5.4,0-9.8,4.4-9.8,9.8c0,5.4,4.4,9.8,9.8,9.8c5.4,0,9.8-4.4,9.8-9.8
				C313.4,187.5,309,183.1,303.6,183.1z"/>
		</g>
	</g>
	<g>
		<g>
			<path class="st15" d="M294.6,204.2c-5.4,0-9.8,4.4-9.8,9.8c0,5.4,4.4,9.8,9.8,9.8c5.4,0,9.8-4.4,9.8-9.8
				C304.4,208.6,300,204.2,294.6,204.2z"/>
		</g>
	</g>
	<g>
		<g>
			<path class="st15" d="M286.9,225.8c-5.4,0-9.8,4.4-9.8,9.8c0,5.4,4.4,9.8,9.8,9.8c5.4,0,9.8-4.4,9.8-9.8
				C296.7,230.2,292.3,225.8,286.9,225.8z"/>
		</g>
	</g>
	<g>
		<g>
			<path class="st15" d="M283.2,248.4c-5.4,0-9.8,4.4-9.8,9.8c0,5.4,4.4,9.8,9.8,9.8c5.4,0,9.8-4.4,9.8-9.8
				C293,252.8,288.6,248.4,283.2,248.4z"/>
		</g>
	</g>
	<g>
		<g>
			<path class="st15" d="M280.6,271.2c-5.4,0-9.8,4.4-9.8,9.8c0,5.4,4.4,9.8,9.8,9.8c5.4,0,9.8-4.4,9.8-9.8
				C290.4,275.6,286,271.2,280.6,271.2z"/>
		</g>
	</g>
</g>
<g id="june_numbers">
	<text transform="matrix(1 0 0 1 277.7787 284.2384)" class="st2 st3">1</text>
	<text transform="matrix(1 0 0 1 280.3784 261.4386)" class="st2 st3">2</text>
	<text transform="matrix(1 0 0 1 284.0786 238.8387)" class="st2 st3">3</text>
	<text transform="matrix(1 0 0 1 291.7784 217.2385)" class="st2 st3">4</text>
	<text transform="matrix(1 0 0 1 300.7784 196.1387)" class="st2 st3">5</text>
	<text transform="matrix(1 0 0 1 313.0784 176.7383)" class="st2 st3">6</text>
	<text transform="matrix(1 0 0 1 326.7784 158.4388)" class="st2 st3">7</text>
	<text transform="matrix(1 0 0 1 342.9786 142.2387)" class="st2 st3">8</text>
	<text transform="matrix(1 0 0 1 360.6786 127.6387)" class="st2 st3">9</text>
	<text transform="matrix(1 0 0 1 377.2571 115.3386)" class="st2 st3">10</text>
	<text transform="matrix(1 0 0 1 397.8574 105.4384)" class="st2 st3">11</text>
	<text transform="matrix(1 0 0 1 418.2914 97.7387)" class="st2 st3">12 </text>
	<text transform="matrix(1 0 0 1 441.7573 92.9386)" class="st2 st3">13</text>
	<text transform="matrix(1 0 0 1 464.6573 90.3385)" class="st2 st3">14</text>
	<text transform="matrix(1 0 0 1 487.4572 90.7386)" class="st2 st3">15</text>
	<text transform="matrix(1 0 0 1 510.257 93.3385)" class="st2 st3">16</text>
	<text transform="matrix(1 0 0 1 532.4573 98.8387)" class="st2 st3">17</text>
	<text transform="matrix(1 0 0 1 554.157 106.5384)" class="st2 st3">18</text>
	<text transform="matrix(1 0 0 1 574.3572 117.1387)" class="st2 st3">19</text>
	<text transform="matrix(1 0 0 1 593.757 129.5386)" class="st2 st3">20</text>
	<text transform="matrix(1 0 0 1 610.9573 144.6384)" class="st2 st3">21</text>
	<text transform="matrix(1 0 0 1 627.1573 160.8386)" class="st2 st3">22</text>
	<text transform="matrix(1 0 0 1 640.2571 179.6387)" class="st2 st3">23</text>
	<text transform="matrix(1 0 0 1 652.6572 199.0385)" class="st2 st3">24</text>
	<text transform="matrix(1 0 0 1 660.857 220.4385)" class="st2 st3">25</text>
	<text transform="matrix(1 0 0 1 668.657 242.0386)" class="st2 st3">26</text>
	<text transform="matrix(1 0 0 1 671.557 264.8387)" class="st2 st3">27</text>
	<text transform="matrix(1 0 0 1 674.1572 287.6387)" class="st2 st3">28</text>
	<text transform="matrix(1 0 0 1 672.1573 310.5382)" class="st2 st3">29</text>
	<text transform="matrix(1 0 0 1 669.6573 333.3384)" class="st2 st3">30</text>
</g>
<g id="may">
	<g>
		<g>
			<path class="st16" d="M284.7,336.5c-5.4,0-9.8-4.4-9.8-9.8c0-5.4,4.4-9.8,9.8-9.8c5.4,0,9.8,4.4,9.8,9.8
				C294.5,332.1,290.1,336.5,284.7,336.5z"/>
		</g>
	</g>
	<g>
		<g>
			<path class="st16" d="M291.9,358.3c-5.4,0-9.8-4.4-9.8-9.8c0-5.4,4.4-9.8,9.8-9.8c5.4,0,9.8,4.4,9.8,9.8
				C301.7,353.9,297.3,358.3,291.9,358.3z"/>
		</g>
	</g>
	<g>
		<g>
			<path class="st16" d="M300,379.7c-5.4,0-9.8-4.4-9.8-9.8c0-5.4,4.4-9.8,9.8-9.8s9.8,4.4,9.8,9.8
				C309.8,375.3,305.4,379.7,300,379.7z"/>
		</g>
	</g>
	<g>
		<g>
			<path class="st16" d="M312.4,399.1c-5.4,0-9.8-4.4-9.8-9.8s4.4-9.8,9.8-9.8c5.4,0,9.8,4.4,9.8,9.8S317.8,399.1,312.4,399.1z"/>
		</g>
	</g>
	<g>
		<g>
			<path class="st16" d="M325.8,417.6c-5.4,0-9.8-4.4-9.8-9.8s4.4-9.8,9.8-9.8c5.4,0,9.8,4.4,9.8,9.8S331.2,417.6,325.8,417.6z"/>
		</g>
	</g>
	<g>
		<g>
			<path class="st16" d="M342.1,433.9c-5.4,0-9.8-4.4-9.8-9.8c0-5.4,4.4-9.8,9.8-9.8c5.4,0,9.8,4.4,9.8,9.8
				C351.9,429.5,347.5,433.9,342.1,433.9z"/>
		</g>
	</g>
	<g>
		<g>
			<path class="st16" d="M359.9,448.2c-5.4,0-9.8-4.4-9.8-9.8c0-5.4,4.4-9.8,9.8-9.8c5.4,0,9.8,4.4,9.8,9.8
				C369.7,443.8,365.3,448.2,359.9,448.2z"/>
		</g>
	</g>
	<g>
		<g>
			<path class="st16" d="M379.3,460.5c-5.4,0-9.8-4.4-9.8-9.8c0-5.4,4.4-9.8,9.8-9.8c5.4,0,9.8,4.4,9.8,9.8
				C389.1,456.1,384.7,460.5,379.3,460.5z"/>
		</g>
	</g>
	<g>
		<g>
			<path class="st16" d="M400.3,469.6c-5.4,0-9.8-4.4-9.8-9.8s4.4-9.8,9.8-9.8c5.4,0,9.8,4.4,9.8,9.8S405.7,469.6,400.3,469.6z"/>
		</g>
	</g>
	<g>
		<g>
			<path class="st16" d="M421.9,477.4c-5.4,0-9.8-4.4-9.8-9.8c0-5.4,4.4-9.8,9.8-9.8c5.4,0,9.8,4.4,9.8,9.8
				C431.7,473,427.3,477.4,421.9,477.4z"/>
		</g>
	</g>
	<g>
		<g>
			<path class="st16" d="M444.6,480.6c-5.4,0-9.8-4.4-9.8-9.8s4.4-9.8,9.8-9.8c5.4,0,9.8,4.4,9.8,9.8S450,480.6,444.6,480.6z"/>
		</g>
	</g>
	<g>
		<g>
			<path class="st16" d="M467.4,483.2c-5.4,0-9.8-4.4-9.8-9.8c0-5.4,4.4-9.8,9.8-9.8c5.4,0,9.8,4.4,9.8,9.8
				C477.2,478.8,472.8,483.2,467.4,483.2z"/>
		</g>
	</g>
	<g>
		<g>
			<path class="st16" d="M490.3,480.6c-5.4,0-9.8-4.4-9.8-9.8s4.4-9.8,9.8-9.8c5.4,0,9.8,4.4,9.8,9.8S495.7,480.6,490.3,480.6z"/>
		</g>
	</g>
	<g>
		<g>
			<path class="st16" d="M513,477.4c-5.4,0-9.8-4.4-9.8-9.8c0-5.4,4.4-9.8,9.8-9.8s9.8,4.4,9.8,9.8C522.8,473,518.4,477.4,513,477.4
				z"/>
		</g>
	</g>
	<g>
		<g>
			<path class="st16" d="M534.6,469.7c-5.4,0-9.8-4.4-9.8-9.8c0-5.4,4.4-9.8,9.8-9.8c5.4,0,9.8,4.4,9.8,9.8
				C544.4,465.3,540,469.7,534.6,469.7z"/>
		</g>
	</g>
	<g>
		<g>
			<path class="st16" d="M555.6,460.6c-5.4,0-9.8-4.4-9.8-9.8s4.4-9.8,9.8-9.8c5.4,0,9.8,4.4,9.8,9.8S561,460.6,555.6,460.6z"/>
		</g>
	</g>
	<g>
		<g>
			<path class="st16" d="M575,448.3c-5.4,0-9.8-4.4-9.8-9.8c0-5.4,4.4-9.8,9.8-9.8s9.8,4.4,9.8,9.8
				C584.8,443.9,580.4,448.3,575,448.3z"/>
		</g>
	</g>
	<g>
		<g>
			<path class="st16" d="M592.8,434c-5.4,0-9.8-4.4-9.8-9.8c0-5.4,4.4-9.8,9.8-9.8c5.4,0,9.8,4.4,9.8,9.8
				C602.6,429.6,598.2,434,592.8,434z"/>
		</g>
	</g>
	<g>
		<g>
			<path class="st16" d="M609.1,417.7c-5.4,0-9.8-4.4-9.8-9.8c0-5.4,4.4-9.8,9.8-9.8c5.4,0,9.8,4.4,9.8,9.8
				C618.9,413.3,614.5,417.7,609.1,417.7z"/>
		</g>
	</g>
	<g>
		<g>
			<path class="st16" d="M622.6,399.2c-5.4,0-9.8-4.4-9.8-9.8c0-5.4,4.4-9.8,9.8-9.8c5.4,0,9.8,4.4,9.8,9.8
				C632.4,394.8,628,399.2,622.6,399.2z"/>
		</g>
	</g>
	<g>
		<g>
			<path class="st16" d="M634.9,379.8c-5.4,0-9.8-4.4-9.8-9.8c0-5.4,4.4-9.8,9.8-9.8c5.4,0,9.8,4.4,9.8,9.8
				C644.7,375.4,640.3,379.8,634.9,379.8z"/>
		</g>
	</g>
	<g>
		<g>
			<path class="st16" d="M643,358.4c-5.4,0-9.8-4.4-9.8-9.8c0-5.4,4.4-9.8,9.8-9.8s9.8,4.4,9.8,9.8C652.8,354,648.4,358.4,643,358.4
				z"/>
		</g>
	</g>
	<g>
		<g>
			<path class="st16" d="M650.3,336.6c-5.4,0-9.8-4.4-9.8-9.8s4.4-9.8,9.8-9.8c5.4,0,9.8,4.4,9.8,9.8S655.7,336.6,650.3,336.6z"/>
		</g>
	</g>
	<g>
		<g>
			<path class="st16" d="M652.9,313.8c-5.4,0-9.8-4.4-9.8-9.8c0-5.4,4.4-9.8,9.8-9.8c5.4,0,9.8,4.4,9.8,9.8
				C662.7,309.4,658.3,313.8,652.9,313.8z"/>
		</g>
	</g>
	<g>
		<g>
			<path class="st16" d="M654.5,291c-5.4,0-9.8-4.4-9.8-9.8c0-5.4,4.4-9.8,9.8-9.8s9.8,4.4,9.8,9.8C664.3,286.6,659.9,291,654.5,291
				z"/>
		</g>
	</g>
	<g>
		<g>
			<path class="st16" d="M651.8,268.1c-5.4,0-9.8-4.4-9.8-9.8s4.4-9.8,9.8-9.8c5.4,0,9.8,4.4,9.8,9.8S657.2,268.1,651.8,268.1z"/>
		</g>
	</g>
	<g>
		<g>
			<path class="st16" d="M646.9,245.8c-5.4,0-9.8-4.4-9.8-9.8c0-5.4,4.4-9.8,9.8-9.8c5.4,0,9.8,4.4,9.8,9.8
				C656.7,241.4,652.3,245.8,646.9,245.8z"/>
		</g>
	</g>
	<g>
		<g>
			<path class="st16" d="M639.1,224.2c-5.4,0-9.8-4.4-9.8-9.8c0-5.4,4.4-9.8,9.8-9.8c5.4,0,9.8,4.4,9.8,9.8
				C648.9,219.8,644.5,224.2,639.1,224.2z"/>
		</g>
	</g>
	<g>
		<g>
			<path class="st16" d="M628,204.2c-5.4,0-9.8-4.4-9.8-9.8c0-5.4,4.4-9.8,9.8-9.8s9.8,4.4,9.8,9.8
				C637.8,199.8,633.4,204.2,628,204.2z"/>
		</g>
	</g>
	<g>
		<g>
			<path class="st16" d="M615.3,185.1c-5.4,0-9.8-4.4-9.8-9.8s4.4-9.8,9.8-9.8c5.4,0,9.8,4.4,9.8,9.8S620.7,185.1,615.3,185.1z"/>
		</g>
	</g>
	<g>
		<g>
			<path class="st16" d="M599.1,168.8c-5.4,0-9.8-4.4-9.8-9.8c0-5.4,4.4-9.8,9.8-9.8c5.4,0,9.8,4.4,9.8,9.8
				C608.9,164.4,604.5,168.8,599.1,168.8z"/>
		</g>
	</g>
	<g>
		<g>
			<path class="st17" d="M581.5,154.2c-5.4,0-9.8-4.4-9.8-9.8c0-5.4,4.4-9.8,9.8-9.8s9.8,4.4,9.8,9.8
				C591.3,149.8,586.9,154.2,581.5,154.2z"/>
		</g>
	</g>
</g>
<g id="may_numbers">
	<text transform="matrix(1 0 0 1 596.2784 162.2384)" class="st2 st3">1</text>
	<text transform="matrix(1 0 0 1 612.4786 178.5385)" class="st2 st3">2</text>
	<text transform="matrix(1 0 0 1 625.1786 197.6384)" class="st2 st3">3</text>
	<text transform="matrix(1 0 0 1 636.2786 217.6383)" class="st2 st3">4</text>
	<text transform="matrix(1 0 0 1 644.0786 239.2385)" class="st2 st3">5</text>
	<text transform="matrix(1 0 0 1 648.9783 261.5386)" class="st2 st3">6</text>
	<text transform="matrix(1 0 0 1 651.6783 284.4388)" class="st2 st3">7</text>
	<text transform="matrix(1 0 0 1 650.0784 307.2383)" class="st2 st3">8</text>
	<text transform="matrix(1 0 0 1 647.4786 330.0381)" class="st2 st3">9</text>
	<text transform="matrix(1 0 0 1 629.2573 373.2389)" class="st2 st3">11</text>
	<text transform="matrix(1 0 0 1 615.7912 392.6387)" class="st2 st3">12 </text>
	<text transform="matrix(1 0 0 1 603.4571 411.1385)" class="st2 st3">13</text>
	<text transform="matrix(1 0 0 1 587.157 427.4388)" class="st2 st3">14</text>
	<text transform="matrix(1 0 0 1 569.3573 441.7386)" class="st2 st3">15</text>
	<text transform="matrix(1 0 0 1 549.957 454.0382)" class="st2 st3">16</text>
	<text transform="matrix(1 0 0 1 528.957 463.1387)" class="st2 st3">17</text>
	<text transform="matrix(1 0 0 1 507.3571 470.8381)" class="st2 st3">18</text>
	<text transform="matrix(1 0 0 1 484.6573 474.0389)" class="st2 st3">19</text>
	<text transform="matrix(1 0 0 1 461.757 476.6381)" class="st2 st3">20</text>
	<text transform="matrix(1 0 0 1 438.9572 474.0382)" class="st2 st3">21</text>
	<text transform="matrix(1 0 0 1 416.2574 470.839)" class="st2 st3">22</text>
	<text transform="matrix(1 0 0 1 394.6573 463.0385)" class="st2 st3">23</text>
	<text transform="matrix(1 0 0 1 373.6571 453.9381)" class="st2 st3">24</text>
	<text transform="matrix(1 0 0 1 354.2571 441.6386)" class="st2 st3">25</text>
	<text transform="matrix(1 0 0 1 336.4572 427.3388)" class="st2 st3">26</text>
	<text transform="matrix(1 0 0 1 320.157 411.0385)" class="st2 st3">27</text>
	<text transform="matrix(1 0 0 1 306.7571 392.5382)" class="st2 st3">28</text>
	<text transform="matrix(1 0 0 1 294.3572 373.1384)" class="st2 st3">29</text>
	<text transform="matrix(1 0 0 1 286.257 351.7384)" class="st2 st3">30</text>
	<text transform="matrix(1 0 0 1 279.0574 329.9389)" class="st2 st3">31</text>
	<text transform="matrix(1 0 0 1 637.3573 351.8384)" class="st2 st3">10</text>
</g>
<g id="april">
	<path class="st18" d="M397,138.8c0,5.4-4.4,9.8-9.8,9.8c-5.4,0-9.8-4.4-9.8-9.8s4.4-9.8,9.8-9.8C392.6,129,397,133.4,397,138.8z"/>
	<g>
		<g>
			<path class="st18" d="M562.2,141.8c-5.4,0-9.8-4.4-9.8-9.8c0-5.4,4.4-9.8,9.8-9.8c5.4,0,9.8,4.4,9.8,9.8
				C572,137.4,567.6,141.8,562.2,141.8z"/>
		</g>
	</g>
	<g>
		<g>
			<path class="st18" d="M541.1,132.9c-5.4,0-9.8-4.4-9.8-9.8c0-5.4,4.4-9.8,9.8-9.8c5.4,0,9.8,4.4,9.8,9.8
				C550.9,128.5,546.5,132.9,541.1,132.9z"/>
		</g>
	</g>
	<g>
		<g>
			<path class="st18" d="M519.4,125.3c-5.4,0-9.8-4.4-9.8-9.8c0-5.4,4.4-9.8,9.8-9.8c5.4,0,9.8,4.4,9.8,9.8
				C529.2,120.9,524.8,125.3,519.4,125.3z"/>
		</g>
	</g>
	<g>
		<g>
			<path class="st18" d="M496.6,122.7c-5.4,0-9.8-4.4-9.8-9.8c0-5.4,4.4-9.8,9.8-9.8c5.4,0,9.8,4.4,9.8,9.8
				C506.4,118.3,502,122.7,496.6,122.7z"/>
		</g>
	</g>
	<g>
		<g>
			<path class="st18" d="M473.8,121.5c-5.4,0-9.8-4.4-9.8-9.8c0-5.4,4.4-9.8,9.8-9.8c5.4,0,9.8,4.4,9.8,9.8
				C483.6,117.1,479.2,121.5,473.8,121.5z"/>
		</g>
	</g>
	<g>
		<g>
			<path class="st18" d="M450.9,124.1c-5.4,0-9.8-4.4-9.8-9.8s4.4-9.8,9.8-9.8c5.4,0,9.8,4.4,9.8,9.8S456.3,124.1,450.9,124.1z"/>
		</g>
	</g>
	<g>
		<g>
			<path class="st18" d="M428.7,129.4c-5.4,0-9.8-4.4-9.8-9.8c0-5.4,4.4-9.8,9.8-9.8c5.4,0,9.8,4.4,9.8,9.8
				C438.5,125,434.1,129.4,428.7,129.4z"/>
		</g>
	</g>
	<g>
		<g>
			<path class="st18" d="M407.1,137.1c-5.4,0-9.8-4.4-9.8-9.8s4.4-9.8,9.8-9.8c5.4,0,9.8,4.4,9.8,9.8S412.5,137.1,407.1,137.1z"/>
		</g>
	</g>
	<g>
		<g>
			<path class="st18" d="M368.3,141.9c-5.4,0-9.8,4.4-9.8,9.8c0,5.4,4.4,9.8,9.8,9.8c5.4,0,9.8-4.4,9.8-9.8
				C378.1,146.3,373.7,141.9,368.3,141.9z"/>
		</g>
	</g>
	<g>
		<g>
			<path class="st18" d="M352,158.1c-5.4,0-9.8,4.4-9.8,9.8c0,5.4,4.4,9.8,9.8,9.8s9.8-4.4,9.8-9.8
				C361.8,162.5,357.4,158.1,352,158.1z"/>
		</g>
	</g>
	<g>
		<g>
			<path class="st18" d="M337.6,175.8c-5.4,0-9.8,4.4-9.8,9.8c0,5.4,4.4,9.8,9.8,9.8c5.4,0,9.8-4.4,9.8-9.8
				C347.4,180.2,343,175.8,337.6,175.8z"/>
		</g>
	</g>
	<g>
		<g>
			<path class="st18" d="M325.3,195.2c-5.4,0-9.8,4.4-9.8,9.8c0,5.4,4.4,9.8,9.8,9.8c5.4,0,9.8-4.4,9.8-9.8
				C335.1,199.6,330.7,195.2,325.3,195.2z"/>
		</g>
	</g>
	<g>
		<g>
			<path class="st18" d="M316.6,216.4c-5.4,0-9.8,4.4-9.8,9.8c0,5.4,4.4,9.8,9.8,9.8c5.4,0,9.8-4.4,9.8-9.8
				C326.4,220.8,322,216.4,316.6,216.4z"/>
		</g>
	</g>
	<g>
		<g>
			<path class="st18" d="M309.4,238.2c-5.4,0-9.8,4.4-9.8,9.8c0,5.4,4.4,9.8,9.8,9.8c5.4,0,9.8-4.4,9.8-9.8
				C319.2,242.6,314.8,238.2,309.4,238.2z"/>
		</g>
	</g>
	<g>
		<g>
			<path class="st18" d="M306.7,261c-5.4,0-9.8,4.4-9.8,9.8s4.4,9.8,9.8,9.8c5.4,0,9.8-4.4,9.8-9.8S312.1,261,306.7,261z"/>
		</g>
	</g>
	<g>
		<g>
			<path class="st18" d="M305.9,283.9c-5.4,0-9.8,4.4-9.8,9.8c0,5.4,4.4,9.8,9.8,9.8c5.4,0,9.8-4.4,9.8-9.8
				C315.7,288.3,311.3,283.9,305.9,283.9z"/>
		</g>
	</g>
	<g>
		<g>
			<path class="st18" d="M308.5,306.7c-5.4,0-9.8,4.4-9.8,9.8c0,5.4,4.4,9.8,9.8,9.8s9.8-4.4,9.8-9.8
				C318.3,311.1,313.9,306.7,308.5,306.7z"/>
		</g>
	</g>
	<g>
		<g>
			<path class="st18" d="M314.8,328.7c-5.4,0-9.8,4.4-9.8,9.8c0,5.4,4.4,9.8,9.8,9.8c5.4,0,9.8-4.4,9.8-9.8
				C324.6,333.1,320.2,328.7,314.8,328.7z"/>
		</g>
	</g>
	<g>
		<g>
			<path class="st18" d="M323.1,350c-5.4,0-9.8,4.4-9.8,9.8s4.4,9.8,9.8,9.8c5.4,0,9.8-4.4,9.8-9.8S328.5,350,323.1,350z"/>
		</g>
	</g>
	<g>
		<g>
			<path class="st18" d="M335.4,369.4c-5.4,0-9.8,4.4-9.8,9.8c0,5.4,4.4,9.8,9.8,9.8c5.4,0,9.8-4.4,9.8-9.8
				C345.2,373.8,340.8,369.4,335.4,369.4z"/>
		</g>
	</g>
	<g>
		<g>
			<path class="st18" d="M350,387.1c-5.4,0-9.8,4.4-9.8,9.8c0,5.4,4.4,9.8,9.8,9.8s9.8-4.4,9.8-9.8
				C359.8,391.5,355.4,387.1,350,387.1z"/>
		</g>
	</g>
	<g>
		<g>
			<path class="st18" d="M366.3,403.2c-5.4,0-9.8,4.4-9.8,9.8c0,5.4,4.4,9.8,9.8,9.8c5.4,0,9.8-4.4,9.8-9.8
				C376.1,407.6,371.7,403.2,366.3,403.2z"/>
		</g>
	</g>
	<g>
		<g>
			<path class="st18" d="M385.7,415.5c-5.4,0-9.8,4.4-9.8,9.8s4.4,9.8,9.8,9.8c5.4,0,9.8-4.4,9.8-9.8S391.1,415.5,385.7,415.5z"/>
		</g>
	</g>
	<g>
		<g>
			<path class="st18" d="M406.1,425.7c-5.4,0-9.8,4.4-9.8,9.8c0,5.4,4.4,9.8,9.8,9.8c5.4,0,9.8-4.4,9.8-9.8
				C415.9,430.1,411.5,425.7,406.1,425.7z"/>
		</g>
	</g>
	<g>
		<g>
			<path class="st18" d="M427.8,433.5c-5.4,0-9.8,4.4-9.8,9.8s4.4,9.8,9.8,9.8c5.4,0,9.8-4.4,9.8-9.8S433.2,433.5,427.8,433.5z"/>
		</g>
	</g>
	<g>
		<g>
			<path class="st18" d="M450.5,436.7c-5.4,0-9.8,4.4-9.8,9.8c0,5.4,4.4,9.8,9.8,9.8s9.8-4.4,9.8-9.8
				C460.3,441.1,455.9,436.7,450.5,436.7z"/>
		</g>
	</g>
	<g>
		<g>
			<path class="st18" d="M473.3,438c-5.4,0-9.8,4.4-9.8,9.8s4.4,9.8,9.8,9.8c5.4,0,9.8-4.4,9.8-9.8S478.7,438,473.3,438z"/>
		</g>
	</g>
	<g>
		<g>
			<path class="st18" d="M496.2,435.3c-5.4,0-9.8,4.4-9.8,9.8c0,5.4,4.4,9.8,9.8,9.8c5.4,0,9.8-4.4,9.8-9.8
				C506,439.7,501.6,435.3,496.2,435.3z"/>
		</g>
	</g>
	<g>
		<g>
			<path class="st18" d="M518.2,429.5c-5.4,0-9.8,4.4-9.8,9.8s4.4,9.8,9.8,9.8c5.4,0,9.8-4.4,9.8-9.8S523.6,429.5,518.2,429.5z"/>
		</g>
	</g>
	<g>
		<g>
			<path class="st19" d="M539.8,421.6c-5.4,0-9.8,4.4-9.8,9.8c0,5.4,4.4,9.8,9.8,9.8c5.4,0,9.8-4.4,9.8-9.8
				C549.6,426,545.2,421.6,539.8,421.6z"/>
		</g>
	</g>
</g>
<g id="april_numbers">
	<text transform="matrix(1 0 0 1 515.3785 442.539)" class="st2 st3">1</text>
	<text transform="matrix(1 0 0 1 493.3783 448.3389)" class="st2 st3">2</text>
	<text transform="matrix(1 0 0 1 470.4785 451.0382)" class="st2 st3">3</text>
	<text transform="matrix(1 0 0 1 447.6785 449.7386)" class="st2 st3">4</text>
	<text transform="matrix(1 0 0 1 424.9784 446.5389)" class="st2 st3">5</text>
	<text transform="matrix(1 0 0 1 403.2787 438.7382)" class="st2 st3">6</text>
	<text transform="matrix(1 0 0 1 382.8783 428.5384)" class="st2 st3">7</text>
	<text transform="matrix(1 0 0 1 363.4784 416.239)" class="st2 st3">8</text>
	<text transform="matrix(1 0 0 1 347.1785 400.1385)" class="st2 st3">9</text>
	<text transform="matrix(1 0 0 1 329.7574 382.4383)" class="st2 st3">10</text>
	<text transform="matrix(1 0 0 1 317.4574 363.0384)" class="st2 st3">11</text>
	<text transform="matrix(1 0 0 1 307.991 341.739)" class="st2 st3">12 </text>
	<text transform="matrix(1 0 0 1 302.857 319.7389)" class="st2 st3">13</text>
	<text transform="matrix(1 0 0 1 300.2571 296.9385)" class="st2 st3">14</text>
	<text transform="matrix(1 0 0 1 301.0573 274.0386)" class="st2 st3">15</text>
	<text transform="matrix(1 0 0 1 303.7572 251.2387)" class="st2 st3">16</text>
	<text transform="matrix(1 0 0 1 310.9571 229.4386)" class="st2 st3">17</text>
	<text transform="matrix(1 0 0 1 319.657 208.2384)" class="st2 st3">18</text>
	<text transform="matrix(1 0 0 1 331.9574 188.8387)" class="st2 st3">19</text>
	<text transform="matrix(1 0 0 1 346.357 171.1386)" class="st2 st3">20</text>
	<text transform="matrix(1 0 0 1 362.6571 154.9386)" class="st2 st3">21</text>
	<text transform="matrix(1 0 0 1 381.5572 142.0386)" class="st2 st3">22</text>
	<text transform="matrix(1 0 0 1 401.4574 130.5383)" class="st2 st3">23</text>
	<text transform="matrix(1 0 0 1 423.057 122.8386)" class="st2 st3">24</text>
	<text transform="matrix(1 0 0 1 445.2571 117.5384)" class="st2 st3">25</text>
	<text transform="matrix(1 0 0 1 468.1572 114.9387)" class="st2 st3">26</text>
	<text transform="matrix(1 0 0 1 490.9574 116.1387)" class="st2 st3">27</text>
	<text transform="matrix(1 0 0 1 513.7571 118.7387)" class="st2 st3">28</text>
	<text transform="matrix(1 0 0 1 535.4573 126.3387)" class="st2 st3">29</text>
	<text transform="matrix(1 0 0 1 556.5573 135.2384)" class="st2 st3">30</text>
</g>
<g id="march">
	<g>
		<g>
			<path class="st20" d="M559.2,428.9c-5.4,0-9.8-4.4-9.8-9.8c0-5.4,4.4-9.8,9.8-9.8c5.4,0,9.8,4.4,9.8,9.8
				C569,424.5,564.6,428.9,559.2,428.9z"/>
		</g>
	</g>
	<g>
		<g>
			<path class="st20" d="M577.1,414.6c-5.4,0-9.8-4.4-9.8-9.8s4.4-9.8,9.8-9.8c5.4,0,9.8,4.4,9.8,9.8S582.5,414.6,577.1,414.6z"/>
		</g>
	</g>
	<g>
		<g>
			<path class="st20" d="M593.3,398.4c-5.4,0-9.8-4.4-9.8-9.8c0-5.4,4.4-9.8,9.8-9.8c5.4,0,9.8,4.4,9.8,9.8
				C603.1,394,598.7,398.4,593.3,398.4z"/>
		</g>
	</g>
	<g>
		<g>
			<path class="st20" d="M605.9,379.2c-5.4,0-9.8-4.4-9.8-9.8c0-5.4,4.4-9.8,9.8-9.8c5.4,0,9.8,4.4,9.8,9.8
				C615.7,374.8,611.3,379.2,605.9,379.2z"/>
		</g>
	</g>
	<g>
		<g>
			<path class="st20" d="M616.5,358.9c-5.4,0-9.8-4.4-9.8-9.8c0-5.4,4.4-9.8,9.8-9.8s9.8,4.4,9.8,9.8
				C626.3,354.5,621.9,358.9,616.5,358.9z"/>
		</g>
	</g>
	<g>
		<g>
			<path class="st20" d="M624.2,337.3c-5.4,0-9.8-4.4-9.8-9.8c0-5.4,4.4-9.8,9.8-9.8c5.4,0,9.8,4.4,9.8,9.8
				C634,332.9,629.6,337.3,624.2,337.3z"/>
		</g>
	</g>
	<g>
		<g>
			<path class="st20" d="M627.8,314.7c-5.4,0-9.8-4.4-9.8-9.8c0-5.4,4.4-9.8,9.8-9.8c5.4,0,9.8,4.4,9.8,9.8
				C637.6,310.3,633.2,314.7,627.8,314.7z"/>
		</g>
	</g>
	<g>
		<g>
			<path class="st20" d="M629.5,291.8c-5.4,0-9.8-4.4-9.8-9.8c0-5.4,4.4-9.8,9.8-9.8s9.8,4.4,9.8,9.8
				C639.3,287.4,634.9,291.8,629.5,291.8z"/>
		</g>
	</g>
	<g>
		<g>
			<path class="st20" d="M626.4,269c-5.4,0-9.8-4.4-9.8-9.8c0-5.4,4.4-9.8,9.8-9.8c5.4,0,9.8,4.4,9.8,9.8
				C636.2,264.6,631.8,269,626.4,269z"/>
		</g>
	</g>
	<g>
		<g>
			<path class="st20" d="M620.9,246.9c-5.4,0-9.8-4.4-9.8-9.8c0-5.4,4.4-9.8,9.8-9.8c5.4,0,9.8,4.4,9.8,9.8
				C630.7,242.5,626.3,246.9,620.9,246.9z"/>
		</g>
	</g>
	<g>
		<g>
			<path class="st20" d="M611.9,225.8c-5.4,0-9.8-4.4-9.8-9.8c0-5.4,4.4-9.8,9.8-9.8c5.4,0,9.8,4.4,9.8,9.8
				C621.7,221.4,617.3,225.8,611.9,225.8z"/>
		</g>
	</g>
	<g>
		<g>
			<path class="st20" d="M599.3,206.8c-5.4,0-9.8-4.4-9.8-9.8c0-5.4,4.4-9.8,9.8-9.8c5.4,0,9.8,4.4,9.8,9.8
				C609.1,202.4,604.7,206.8,599.3,206.8z"/>
		</g>
	</g>
	<g>
		<g>
			<path class="st20" d="M585,188.8c-5.4,0-9.8-4.4-9.8-9.8c0-5.4,4.4-9.8,9.8-9.8s9.8,4.4,9.8,9.8
				C594.8,184.4,590.4,188.8,585,188.8z"/>
		</g>
	</g>
	<g>
		<g>
			<path class="st20" d="M566.8,174.8c-5.4,0-9.8-4.4-9.8-9.8c0-5.4,4.4-9.8,9.8-9.8c5.4,0,9.8,4.4,9.8,9.8
				C576.6,170.4,572.2,174.8,566.8,174.8z"/>
		</g>
	</g>
	<g>
		<g>
			<path class="st20" d="M547.4,162.7c-5.4,0-9.8-4.4-9.8-9.8c0-5.4,4.4-9.8,9.8-9.8c5.4,0,9.8,4.4,9.8,9.8
				C557.2,158.3,552.8,162.7,547.4,162.7z"/>
		</g>
	</g>
	<g>
		<g>
			<path class="st20" d="M526.2,153.8c-5.4,0-9.8-4.4-9.8-9.8c0-5.4,4.4-9.8,9.8-9.8c5.4,0,9.8,4.4,9.8,9.8
				C536,149.4,531.6,153.8,526.2,153.8z"/>
		</g>
	</g>
	<g>
		<g>
			<path class="st20" d="M503.9,149c-5.4,0-9.8-4.4-9.8-9.8c0-5.4,4.4-9.8,9.8-9.8c5.4,0,9.8,4.4,9.8,9.8
				C513.7,144.6,509.3,149,503.9,149z"/>
		</g>
	</g>
	<g>
		<g>
			<path class="st20" d="M481.2,145.9c-5.4,0-9.8-4.4-9.8-9.8c0-5.4,4.4-9.8,9.8-9.8c5.4,0,9.8,4.4,9.8,9.8
				C491,141.5,486.6,145.9,481.2,145.9z"/>
		</g>
	</g>
	<g>
		<g>
			<path class="st20" d="M458.4,148.6c-5.4,0-9.8-4.4-9.8-9.8s4.4-9.8,9.8-9.8c5.4,0,9.8,4.4,9.8,9.8S463.8,148.6,458.4,148.6z"/>
		</g>
	</g>
	<g>
		<g>
			<path class="st20" d="M435.9,152.9c-5.4,0-9.8-4.4-9.8-9.8c0-5.4,4.4-9.8,9.8-9.8c5.4,0,9.8,4.4,9.8,9.8
				C445.7,148.5,441.3,152.9,435.9,152.9z"/>
		</g>
	</g>
	<g>
		<g>
			<path class="st20" d="M414.7,161.8c-5.4,0-9.8-4.4-9.8-9.8c0-5.4,4.4-9.8,9.8-9.8c5.4,0,9.8,4.4,9.8,9.8
				C424.5,157.4,420.1,161.8,414.7,161.8z"/>
		</g>
	</g>
	<g>
		<g>
			<path class="st20" d="M395.1,173.3c-5.4,0-9.8-4.4-9.8-9.8c0-5.4,4.4-9.8,9.8-9.8c5.4,0,9.8,4.4,9.8,9.8
				C404.9,168.9,400.5,173.3,395.1,173.3z"/>
		</g>
	</g>
	<g>
		<g>
			<path class="st20" d="M376.9,187.4c-5.4,0-9.8-4.4-9.8-9.8c0-5.4,4.4-9.8,9.8-9.8c5.4,0,9.8,4.4,9.8,9.8
				C386.7,183,382.3,187.4,376.9,187.4z"/>
		</g>
	</g>
	<g>
		<g>
			<path class="st20" d="M362.2,204.9c-5.4,0-9.8-4.4-9.8-9.8c0-5.4,4.4-9.8,9.8-9.8c5.4,0,9.8,4.4,9.8,9.8
				C372,200.5,367.6,204.9,362.2,204.9z"/>
		</g>
	</g>
	<g>
		<g>
			<path class="st20" d="M349,223.6c-5.4,0-9.8-4.4-9.8-9.8s4.4-9.8,9.8-9.8s9.8,4.4,9.8,9.8S354.4,223.6,349,223.6z"/>
		</g>
	</g>
	<g>
		<g>
			<path class="st20" d="M340,244.8c-5.4,0-9.8-4.4-9.8-9.8c0-5.4,4.4-9.8,9.8-9.8s9.8,4.4,9.8,9.8
				C349.8,240.4,345.4,244.8,340,244.8z"/>
		</g>
	</g>
	<g>
		<g>
			<path class="st20" d="M333.9,266.7c-5.4,0-9.8-4.4-9.8-9.8c0-5.4,4.4-9.8,9.8-9.8c5.4,0,9.8,4.4,9.8,9.8
				C343.7,262.3,339.3,266.7,333.9,266.7z"/>
		</g>
	</g>
	<g>
		<g>
			<path class="st20" d="M330.8,289.5c-5.4,0-9.8-4.4-9.8-9.8c0-5.4,4.4-9.8,9.8-9.8c5.4,0,9.8,4.4,9.8,9.8
				C340.6,285.1,336.2,289.5,330.8,289.5z"/>
		</g>
	</g>
	<g>
		<g>
			<path class="st20" d="M332.5,312.3c-5.5,0-10-4.4-10-9.8c0-5.4,4.5-9.8,10-9.8s10,4.4,10,9.8C342.5,307.9,338,312.3,332.5,312.3z
				"/>
		</g>
	</g>
	<g>
		<g>
			<path class="st20" d="M336,334.9c-5.4,0-9.8-4.4-9.8-9.8c0-5.4,4.4-9.8,9.8-9.8s9.8,4.4,9.8,9.8
				C345.8,330.5,341.4,334.9,336,334.9z"/>
		</g>
	</g>
	<g>
		<g>
			<path class="st20" d="M344.9,356.1c-5.4,0-9.8-4.4-9.8-9.8s4.4-9.8,9.8-9.8c5.4,0,9.8,4.4,9.8,9.8S350.3,356.1,344.9,356.1z"/>
		</g>
	</g>
	<g>
		<g>
			<path class="st21" d="M356.8,375.5c-5.4,0-9.8-4.4-9.8-9.8c0-5.4,4.4-9.8,9.8-9.8c5.4,0,9.8,4.4,9.8,9.8
				C366.6,371.1,362.2,375.5,356.8,375.5z"/>
		</g>
	</g>
</g>
<g id="march_numbers">
	<text transform="matrix(1 0 0 1 342.0785 349.5389)" class="st2 st3">1</text>
	<text transform="matrix(1 0 0 1 333.1786 328.3384)" class="st2 st3">2</text>
	<text transform="matrix(1 0 0 1 329.6785 305.7385)" class="st2 st3">3</text>
	<text transform="matrix(1 0 0 1 327.9783 282.9387)" class="st2 st3">4</text>
	<text transform="matrix(1 0 0 1 331.0785 260.1385)" class="st2 st3">5</text>
	<text transform="matrix(1 0 0 1 337.1783 238.2387)" class="st2 st3">6</text>
	<text transform="matrix(1 0 0 1 346.1786 217.0383)" class="st2 st3">7</text>
	<text transform="matrix(1 0 0 1 359.3783 198.3384)" class="st2 st3">8</text>
	<text transform="matrix(1 0 0 1 374.0786 180.8386)" class="st2 st3">9</text>
	<text transform="matrix(1 0 0 1 389.4572 166.7383)" class="st2 st3">10</text>
	<text transform="matrix(1 0 0 1 409.057 155.2385)" class="st2 st3">11</text>
	<text transform="matrix(1 0 0 1 429.0911 146.3387)" class="st2 st3">12 </text>
	<text transform="matrix(1 0 0 1 452.7572 142.0384)" class="st2 st3">13</text>
	<text transform="matrix(1 0 0 1 475.557 139.3386)" class="st2 st3">14</text>
	<text transform="matrix(1 0 0 1 498.2573 142.4385)" class="st2 st3">15</text>
	<text transform="matrix(1 0 0 1 520.5574 147.2387)" class="st2 st3">16</text>
	<text transform="matrix(1 0 0 1 541.757 156.1385)" class="st2 st3">17</text>
	<text transform="matrix(1 0 0 1 561.157 168.2386)" class="st2 st3">18</text>
	<text transform="matrix(1 0 0 1 579.3572 182.2384)" class="st2 st3">19</text>
	<text transform="matrix(1 0 0 1 593.6571 200.2383)" class="st2 st3">20</text>
	<text transform="matrix(1 0 0 1 606.257 219.2387)" class="st2 st3">21</text>
	<text transform="matrix(1 0 0 1 615.2571 240.3385)" class="st2 st3">22</text>
	<text transform="matrix(1 0 0 1 620.7571 262.4384)" class="st2 st3">23</text>
	<text transform="matrix(1 0 0 1 623.8574 285.2383)" class="st2 st3">24</text>
	<text transform="matrix(1 0 0 1 622.157 308.1381)" class="st2 st3">25</text>
	<text transform="matrix(1 0 0 1 618.557 330.7381)" class="st2 st3">26</text>
	<text transform="matrix(1 0 0 1 610.8571 352.3387)" class="st2 st3">27</text>
	<text transform="matrix(1 0 0 1 600.2571 372.6389)" class="st2 st3">28</text>
	<text transform="matrix(1 0 0 1 587.6572 391.8387)" class="st2 st3">29</text>
	<text transform="matrix(1 0 0 1 571.457 408.0389)" class="st2 st3">30</text>
	<text transform="matrix(1 0 0 1 553.557 422.3386)" class="st2 st3">31</text>
</g>
<g id="feb">
	<g>
		<g>
			<path class="st22" d="M371,393.5c-5.4,0-9.8-4.4-9.8-9.8c0-5.4,4.4-9.8,9.8-9.8s9.8,4.4,9.8,9.8
				C380.8,389.1,376.4,393.5,371,393.5z"/>
		</g>
	</g>
	<g>
		<g>
			<path class="st22" d="M389.2,407.6c-5.4,0-9.8-4.4-9.8-9.8s4.4-9.8,9.8-9.8c5.4,0,9.8,4.4,9.8,9.8S394.6,407.6,389.2,407.6z"/>
		</g>
	</g>
	<g>
		<g>
			<path class="st22" d="M408.9,419c-5.4,0-9.8-4.4-9.8-9.8c0-5.4,4.4-9.8,9.8-9.8c5.4,0,9.8,4.4,9.8,9.8
				C418.7,414.6,414.3,419,408.9,419z"/>
		</g>
	</g>
	<g>
		<g>
			<path class="st22" d="M430.1,428c-5.4,0-9.8-4.4-9.8-9.8c0-5.4,4.4-9.8,9.8-9.8c5.4,0,9.8,4.4,9.8,9.8
				C439.9,423.6,435.5,428,430.1,428z"/>
		</g>
	</g>
	<g>
		<g>
			<path class="st22" d="M452.8,431.3c-5.4,0-9.8-4.4-9.8-9.8c0-5.4,4.4-9.8,9.8-9.8c5.4,0,9.8,4.4,9.8,9.8
				C462.6,426.9,458.2,431.3,452.8,431.3z"/>
		</g>
	</g>
	<g>
		<g>
			<path class="st22" d="M475.6,432.2c-5.4,0-9.8-4.4-9.8-9.8c0-5.4,4.4-9.8,9.8-9.8c5.4,0,9.8,4.4,9.8,9.8
				C485.4,427.8,481,432.2,475.6,432.2z"/>
		</g>
	</g>
	<g>
		<g>
			<path class="st22" d="M498.4,429.1c-5.4,0-9.8-4.4-9.8-9.8s4.4-9.8,9.8-9.8c5.4,0,9.8,4.4,9.8,9.8S503.8,429.1,498.4,429.1z"/>
		</g>
	</g>
	<g>
		<g>
			<path class="st22" d="M520,421.6c-5.4,0-9.8-4.4-9.8-9.8s4.4-9.8,9.8-9.8s9.8,4.4,9.8,9.8S525.4,421.6,520,421.6z"/>
		</g>
	</g>
	<g>
		<g>
			<path class="st22" d="M540.5,411.7c-5.4,0-9.8-4.4-9.8-9.8c0-5.4,4.4-9.8,9.8-9.8s9.8,4.4,9.8,9.8
				C550.3,407.3,545.9,411.7,540.5,411.7z"/>
		</g>
	</g>
	<g>
		<g>
			<path class="st22" d="M558.7,397.6c-5.4,0-9.8-4.4-9.8-9.8s4.4-9.8,9.8-9.8c5.4,0,9.8,4.4,9.8,9.8S564.1,397.6,558.7,397.6z"/>
		</g>
	</g>
	<g>
		<g>
			<path class="st22" d="M574.1,380.8c-5.4,0-9.8-4.4-9.8-9.8c0-5.4,4.4-9.8,9.8-9.8c5.4,0,9.8,4.4,9.8,9.8
				C583.9,376.4,579.5,380.8,574.1,380.8z"/>
		</g>
	</g>
	<g>
		<g>
			<path class="st22" d="M587.5,362.2c-5.4,0-9.8-4.4-9.8-9.8c0-5.4,4.4-9.8,9.8-9.8s9.8,4.4,9.8,9.8
				C597.3,357.8,592.9,362.2,587.5,362.2z"/>
		</g>
	</g>
	<g>
		<g>
			<path class="st22" d="M596.4,341c-5.4,0-9.8-4.4-9.8-9.8c0-5.4,4.4-9.8,9.8-9.8c5.4,0,9.8,4.4,9.8,9.8
				C606.2,336.6,601.8,341,596.4,341z"/>
		</g>
	</g>
	<g>
		<g>
			<path class="st22" d="M601.9,318.9c-5.4,0-9.8-4.4-9.8-9.8c0-5.4,4.4-9.8,9.8-9.8c5.4,0,9.8,4.4,9.8,9.8
				C611.7,314.5,607.3,318.9,601.9,318.9z"/>
		</g>
	</g>
	<g>
		<g>
			<path class="st22" d="M605,296.1c-5.4,0-9.8-4.4-9.8-9.8s4.4-9.8,9.8-9.8s9.8,4.4,9.8,9.8S610.4,296.1,605,296.1z"/>
		</g>
	</g>
	<g>
		<g>
			<path class="st22" d="M602,273.3c-5.4,0-9.8-4.4-9.8-9.8c0-5.4,4.4-9.8,9.8-9.8s9.8,4.4,9.8,9.8
				C611.8,268.9,607.4,273.3,602,273.3z"/>
		</g>
	</g>
	<g>
		<g>
			<path class="st22" d="M595.8,251.4c-5.4,0-9.8-4.4-9.8-9.8c0-5.4,4.4-9.8,9.8-9.8c5.4,0,9.8,4.4,9.8,9.8
				C605.6,247,601.2,251.4,595.8,251.4z"/>
		</g>
	</g>
	<g>
		<g>
			<path class="st22" d="M586.3,230.5c-5.4,0-9.8-4.4-9.8-9.8c0-5.4,4.4-9.8,9.8-9.8c5.4,0,9.8,4.4,9.8,9.8
				C596.1,226.1,591.7,230.5,586.3,230.5z"/>
		</g>
	</g>
	<g>
		<g>
			<path class="st22" d="M572.2,212.3c-5.4,0-9.8-4.4-9.8-9.8c0-5.4,4.4-9.8,9.8-9.8c5.4,0,9.8,4.4,9.8,9.8
				C582,207.9,577.6,212.3,572.2,212.3z"/>
		</g>
	</g>
	<g>
		<g>
			<path class="st22" d="M555.2,197.2c-5.4,0-9.8-4.4-9.8-9.8c0-5.4,4.4-9.8,9.8-9.8c5.4,0,9.8,4.4,9.8,9.8
				C565,192.8,560.6,197.2,555.2,197.2z"/>
		</g>
	</g>
	<g>
		<g>
			<path class="st22" d="M536,184.8c-5.4,0-9.8-4.4-9.8-9.8c0-5.4,4.4-9.8,9.8-9.8s9.8,4.4,9.8,9.8
				C545.8,180.4,541.4,184.8,536,184.8z"/>
		</g>
	</g>
	<g>
		<g>
			<path class="st22" d="M514.8,175.9c-5.4,0-9.8-4.4-9.8-9.8c0-5.4,4.4-9.8,9.8-9.8c5.4,0,9.8,4.4,9.8,9.8
				C524.6,171.5,520.2,175.9,514.8,175.9z"/>
		</g>
	</g>
	<g>
		<g>
			<path class="st22" d="M492.2,172.4c-5.4,0-9.8-4.4-9.8-9.8c0-5.4,4.4-9.8,9.8-9.8c5.4,0,9.8,4.4,9.8,9.8
				C502,168,497.6,172.4,492.2,172.4z"/>
		</g>
	</g>
	<g>
		<g>
			<path class="st22" d="M469.4,172.2c-5.4,0-9.8-4.4-9.8-9.8c0-5.4,4.4-9.8,9.8-9.8c5.4,0,9.8,4.4,9.8,9.8
				C479.2,167.8,474.8,172.2,469.4,172.2z"/>
		</g>
	</g>
	<g>
		<g>
			<path class="st22" d="M446.6,175.3c-5.4,0-9.8-4.4-9.8-9.8c0-5.4,4.4-9.8,9.8-9.8c5.4,0,9.8,4.4,9.8,9.8
				C456.4,170.9,452,175.3,446.6,175.3z"/>
		</g>
	</g>
	<g>
		<g>
			<path class="st22" d="M425.4,184.2c-5.4,0-9.8-4.4-9.8-9.8c0-5.4,4.4-9.8,9.8-9.8c5.4,0,9.8,4.4,9.8,9.8
				C435.2,179.8,430.8,184.2,425.4,184.2z"/>
		</g>
	</g>
	<g>
		<g>
			<path class="st22" d="M406,196.2c-5.4,0-9.8-4.4-9.8-9.8c0-5.4,4.4-9.8,9.8-9.8s9.8,4.4,9.8,9.8
				C415.8,191.8,411.4,196.2,406,196.2z"/>
		</g>
	</g>
	<g>
		<g>
			<path class="st22" d="M388.7,211.1c-5.4,0-9.8-4.4-9.8-9.8s4.4-9.8,9.8-9.8c5.4,0,9.8,4.4,9.8,9.8S394.1,211.1,388.7,211.1z"/>
		</g>
	</g>
	<g>
		<g>
			<path class="st23" d="M374.7,229.3c-5.4,0-9.8-4.4-9.8-9.8c0-5.4,4.4-9.8,9.8-9.8c5.4,0,9.8,4.4,9.8,9.8
				C384.5,224.9,380.1,229.3,374.7,229.3z"/>
		</g>
	</g>
</g>
<g id="feb_numbers">
	<text transform="matrix(1 0 0 1 385.8787 204.5383)" class="st2 st3">1</text>
	<text transform="matrix(1 0 0 1 403.1785 189.6387)" class="st2 st3">2</text>
	<text transform="matrix(1 0 0 1 422.5785 177.6385)" class="st2 st3">3</text>
	<text transform="matrix(1 0 0 1 443.7784 168.7386)" class="st2 st3">4</text>
	<text transform="matrix(1 0 0 1 466.5785 165.6383)" class="st2 st3">5</text>
	<text transform="matrix(1 0 0 1 489.3786 165.8387)" class="st2 st3">6</text>
	<text transform="matrix(1 0 0 1 511.9786 169.3386)" class="st2 st3">7</text>
	<text transform="matrix(1 0 0 1 533.1783 178.2385)" class="st2 st3">8</text>
	<text transform="matrix(1 0 0 1 552.3786 190.6387)" class="st2 st3">9</text>
	<text transform="matrix(1 0 0 1 566.5571 205.7383)" class="st2 st3">10</text>
	<text transform="matrix(1 0 0 1 580.6572 223.9386)" class="st2 st3">11</text>
	<text transform="matrix(1 0 0 1 588.9913 244.8386)" class="st2 st3">12 </text>
	<text transform="matrix(1 0 0 1 596.3574 266.7386)" class="st2 st3">13</text>
	<text transform="matrix(1 0 0 1 599.3573 289.5383)" class="st2 st3">14</text>
	<text transform="matrix(1 0 0 1 596.2573 312.3382)" class="st2 st3">15</text>
	<text transform="matrix(1 0 0 1 590.7574 334.4386)" class="st2 st3">16</text>
	<text transform="matrix(1 0 0 1 581.8571 355.6383)" class="st2 st3">17</text>
	<text transform="matrix(1 0 0 1 568.4572 374.2388)" class="st2 st3">18</text>
	<text transform="matrix(1 0 0 1 553.0573 391.0389)" class="st2 st3">19</text>
	<text transform="matrix(1 0 0 1 534.8573 405.1382)" class="st2 st3">20</text>
	<text transform="matrix(1 0 0 1 514.3572 415.0385)" class="st2 st3">21</text>
	<text transform="matrix(1 0 0 1 492.757 422.5382)" class="st2 st3">22</text>
	<text transform="matrix(1 0 0 1 469.9573 425.6388)" class="st2 st3">23</text>
	<text transform="matrix(1 0 0 1 447.1571 424.7386)" class="st2 st3">24</text>
	<text transform="matrix(1 0 0 1 424.4572 421.4384)" class="st2 st3">25</text>
	<text transform="matrix(1 0 0 1 403.2574 412.4386)" class="st2 st3">26</text>
	<text transform="matrix(1 0 0 1 383.5573 401.0381)" class="st2 st3">27</text>
	<text transform="matrix(1 0 0 1 365.357 386.9388)" class="st2 st3">28</text>
</g>
<g id="jan">
	<g>
		<g>
			<path class="st24" d="M364.8,249.9c-5.4,0-9.8-4.4-9.8-9.8c0-5.4,4.4-9.8,9.8-9.8c5.4,0,9.8,4.4,9.8,9.8
				C374.6,245.5,370.2,249.9,364.8,249.9z"/>
		</g>
	</g>
	<g>
		<g>
			<path class="st24" d="M358.2,271.8c-5.4,0-9.8-4.4-9.8-9.8c0-5.4,4.4-9.8,9.8-9.8c5.4,0,9.8,4.4,9.8,9.8
				C368,267.4,363.6,271.8,358.2,271.8z"/>
		</g>
	</g>
	<g>
		<g>
			<path class="st24" d="M357.9,317.3c-5.4,0-9.8-4.4-9.8-9.8c0-5.4,4.4-9.8,9.8-9.8c5.4,0,9.8,4.4,9.8,9.8
				C367.7,312.9,363.3,317.3,357.9,317.3z"/>
		</g>
	</g>
	<g>
		<g>
			<path class="st24" d="M364.7,339.1c-5.4,0-9.8-4.4-9.8-9.8s4.4-9.8,9.8-9.8c5.4,0,9.8,4.4,9.8,9.8S370.1,339.1,364.7,339.1z"/>
		</g>
	</g>
	<g>
		<g>
			<path class="st24" d="M375.5,359.2c-5.4,0-9.8-4.4-9.8-9.8c0-5.4,4.4-9.8,9.8-9.8s9.8,4.4,9.8,9.8
				C385.3,354.8,380.9,359.2,375.5,359.2z"/>
		</g>
	</g>
	<g>
		<g>
			<path class="st24" d="M390,376.9c-5.4,0-9.8-4.4-9.8-9.8c0-5.4,4.4-9.8,9.8-9.8s9.8,4.4,9.8,9.8
				C399.8,372.5,395.4,376.9,390,376.9z"/>
		</g>
	</g>
	<g>
		<g>
			<path class="st24" d="M408.2,390.9c-5.4,0-9.8-4.4-9.8-9.8c0-5.4,4.4-9.8,9.8-9.8c5.4,0,9.8,4.4,9.8,9.8
				C418,386.5,413.6,390.9,408.2,390.9z"/>
		</g>
	</g>
	<g>
		<g>
			<path class="st24" d="M429,400.6c-5.4,0-9.8-4.4-9.8-9.8s4.4-9.8,9.8-9.8s9.8,4.4,9.8,9.8S434.4,400.6,429,400.6z"/>
		</g>
	</g>
	<g>
		<g>
			<path class="st24" d="M451.1,406c-5.4,0-9.8-4.4-9.8-9.8c0-5.4,4.4-9.8,9.8-9.8c5.4,0,9.8,4.4,9.8,9.8
				C460.9,401.6,456.5,406,451.1,406z"/>
		</g>
	</g>
	<g>
		<g>
			<path class="st24" d="M473.9,407.4c-5.4,0-9.8-4.4-9.8-9.8c0-5.4,4.4-9.8,9.8-9.8c5.4,0,9.8,4.4,9.8,9.8
				C483.7,403,479.3,407.4,473.9,407.4z"/>
		</g>
	</g>
	<g>
		<g>
			<path class="st24" d="M496.7,404.3c-5.4,0-9.8-4.4-9.8-9.8c0-5.4,4.4-9.8,9.8-9.8c5.4,0,9.8,4.4,9.8,9.8
				C506.5,399.9,502.1,404.3,496.7,404.3z"/>
		</g>
	</g>
	<g>
		<g>
			<path class="st24" d="M517.9,395.6c-5.4,0-9.8-4.4-9.8-9.8s4.4-9.8,9.8-9.8c5.4,0,9.8,4.4,9.8,9.8S523.3,395.6,517.9,395.6z"/>
		</g>
	</g>
	<g>
		<g>
			<path class="st24" d="M537,383.1c-5.4,0-9.8-4.4-9.8-9.8s4.4-9.8,9.8-9.8s9.8,4.4,9.8,9.8S542.4,383.1,537,383.1z"/>
		</g>
	</g>
	<g>
		<g>
			<path class="st24" d="M553.3,367.2c-5.4,0-9.8-4.4-9.8-9.8c0-5.4,4.4-9.8,9.8-9.8c5.4,0,9.8,4.4,9.8,9.8
				C563.1,362.8,558.7,367.2,553.3,367.2z"/>
		</g>
	</g>
	<g>
		<g>
			<path class="st24" d="M566.4,348.4c-5.4,0-9.8-4.4-9.8-9.8c0-5.4,4.4-9.8,9.8-9.8c5.4,0,9.8,4.4,9.8,9.8
				C576.2,344,571.8,348.4,566.4,348.4z"/>
		</g>
	</g>
	<g>
		<g>
			<path class="st24" d="M575.3,327.2c-5.4,0-9.8-4.4-9.8-9.8c0-5.4,4.4-9.8,9.8-9.8c5.4,0,9.8,4.4,9.8,9.8
				C585.1,322.8,580.7,327.2,575.3,327.2z"/>
		</g>
	</g>
	<path class="st24" d="M413.4,222.6c0,5.4-4.4,9.8-9.8,9.8c-5.4,0-9.8-4.4-9.8-9.8c0-5.4,4.4-9.8,9.8-9.8
		C409,212.8,413.4,217.2,413.4,222.6z"/>
	<path class="st24" d="M494.2,186.6c0,5.4-4.4,9.8-9.8,9.8c-5.4,0-9.8-4.4-9.8-9.8c0-5.4,4.4-9.8,9.8-9.8
		C489.8,176.8,494.2,181.2,494.2,186.6z"/>
	<path class="st24" d="M556.3,212.6c0,5.4-4.4,9.8-9.8,9.8s-9.8-4.4-9.8-9.8c0-5.4,4.4-9.8,9.8-9.8S556.3,207.2,556.3,212.6z"/>
	<path class="st24" d="M571.8,229.4c0,5.4-4.4,9.8-9.8,9.8s-9.8-4.4-9.8-9.8c0-5.4,4.4-9.8,9.8-9.8S571.8,224,571.8,229.4z"/>
	<path class="st24" d="M587.6,272c0,5.4-4.4,9.8-9.8,9.8c-5.4,0-9.8-4.4-9.8-9.8c0-5.4,4.4-9.8,9.8-9.8
		C583.2,262.2,587.6,266.6,587.6,272z"/>
	<path class="st24" d="M588.6,294.8c0,5.4-4.4,9.8-9.8,9.8c-5.4,0-9.8-4.4-9.8-9.8s4.4-9.8,9.8-9.8
		C584.2,285,588.6,289.4,588.6,294.8z"/>
	<g>
		<g>
			<path class="st24" d="M572.6,240c-5.4,0-9.8,4.4-9.8,9.8s4.4,9.8,9.8,9.8c5.4,0,9.8-4.4,9.8-9.8S578,240,572.6,240z"/>
		</g>
	</g>
	<g>
		<g>
			<path class="st24" d="M528,189.7c-5.4,0-9.8,4.4-9.8,9.8c0,5.4,4.4,9.8,9.8,9.8s9.8-4.4,9.8-9.8
				C537.8,194.1,533.4,189.7,528,189.7z"/>
		</g>
	</g>
	<g>
		<g>
			<path class="st24" d="M507.1,180.5c-5.4,0-9.8,4.4-9.8,9.8s4.4,9.8,9.8,9.8c5.4,0,9.8-4.4,9.8-9.8S512.5,180.5,507.1,180.5z"/>
		</g>
	</g>
	<g>
		<g>
			<path class="st24" d="M461.7,198.7c-5.4,0-9.8-4.4-9.8-9.8c0-5.4,4.4-9.8,9.8-9.8c5.4,0,9.8,4.4,9.8,9.8
				C471.5,194.3,467.1,198.7,461.7,198.7z"/>
		</g>
	</g>
	<g>
		<g>
			<path class="st24" d="M439.9,205.2c-5.4,0-9.8-4.4-9.8-9.8c0-5.4,4.4-9.8,9.8-9.8c5.4,0,9.8,4.4,9.8,9.8
				C449.7,200.8,445.3,205.2,439.9,205.2z"/>
		</g>
	</g>
	<g>
		<g>
			<path class="st24" d="M419.8,216.2c-5.4,0-9.8-4.4-9.8-9.8c0-5.4,4.4-9.8,9.8-9.8c5.4,0,9.8,4.4,9.8,9.8
				C429.6,211.8,425.2,216.2,419.8,216.2z"/>
		</g>
	</g>
	<g>
		<g>
			<path class="st24" d="M391.5,232.1c-5.4,0-9.8,4.4-9.8,9.8c0,5.4,4.4,9.8,9.8,9.8s9.8-4.4,9.8-9.8
				C401.3,236.5,396.9,232.1,391.5,232.1z"/>
		</g>
	</g>
	<g>
		<g>
			<g>
				<path class="st24" d="M383.7,253.4c-5.4,0-9.8,4.4-9.8,9.8c0,5.4,4.4,9.8,9.8,9.8c5.4,0,9.8-4.4,9.8-9.8
					C393.5,257.8,389.1,253.4,383.7,253.4z"/>
			</g>
		</g>
	</g>
	<path class="st24" d="M365,284.7c0,5.4-4.4,9.8-9.8,9.8c-5.4,0-9.8-4.4-9.8-9.8c0-5.4,4.4-9.8,9.8-9.8
		C360.6,274.9,365,279.3,365,284.7z"/>
	<path class="st25" d="M389.8,285.9c0,5.4-4.4,9.8-9.8,9.8s-9.8-4.4-9.8-9.8c0-5.4,4.4-9.8,9.8-9.8S389.8,280.5,389.8,285.9z"/>
</g>
<g id="jan_numbers">
	<text transform="matrix(1 0 0 1 380.8787 266.4384)" class="st2 st3">1</text>
	<text transform="matrix(1 0 0 1 388.6785 245.1386)" class="st2 st3">2</text>
	<text transform="matrix(1 0 0 1 400.7784 225.8387)" class="st2 st3">3</text>
	<text transform="matrix(1 0 0 1 416.9785 209.6383)" class="st2 st3">4</text>
	<text transform="matrix(1 0 0 1 437.0786 198.6383)" class="st2 st3">5</text>
	<text transform="matrix(1 0 0 1 458.8785 192.1384)" class="st2 st3">6</text>
	<text transform="matrix(1 0 0 1 481.5783 189.8383)" class="st2 st3">7</text>
	<text transform="matrix(1 0 0 1 504.2783 193.5387)" class="st2 st3">8</text>
	<text transform="matrix(1 0 0 1 525.1784 202.7386)" class="st2 st3">9</text>
	<text transform="matrix(1 0 0 1 540.857 215.8387)" class="st2 st3">10</text>
	<text transform="matrix(1 0 0 1 556.3572 232.6386)" class="st2 st3">11</text>
	<text transform="matrix(1 0 0 1 565.791 253.0383)" class="st2 st3">12 </text>
	<text transform="matrix(1 0 0 1 572.157 275.2384)" class="st2 st3">13</text>
	<text transform="matrix(1 0 0 1 573.1574 298.0386)" class="st2 st3">14</text>
	<text transform="matrix(1 0 0 1 569.6571 320.6389)" class="st2 st3">15</text>
	<text transform="matrix(1 0 0 1 560.7571 341.8381)" class="st2 st3">16</text>
	<text transform="matrix(1 0 0 1 547.6571 360.6386)" class="st2 st3">17</text>
	<text transform="matrix(1 0 0 1 531.3571 376.5383)" class="st2 st3">18</text>
	<text transform="matrix(1 0 0 1 512.2572 389.0384)" class="st2 st3">19</text>
	<text transform="matrix(1 0 0 1 491.0574 397.7381)" class="st2 st3">20</text>
	<text transform="matrix(1 0 0 1 468.257 400.8382)" class="st2 st3">21</text>
	<text transform="matrix(1 0 0 1 445.4571 399.4381)" class="st2 st3">22</text>
	<text transform="matrix(1 0 0 1 423.357 394.038)" class="st2 st3">23</text>
	<text transform="matrix(1 0 0 1 402.5571 384.3382)" class="st2 st3">24</text>
	<text transform="matrix(1 0 0 1 384.3571 370.3387)" class="st2 st3">25</text>
	<text transform="matrix(1 0 0 1 369.8571 352.6385)" class="st2 st3">26</text>
	<text transform="matrix(1 0 0 1 359.0572 332.5382)" class="st2 st3">27</text>
	<text transform="matrix(1 0 0 1 352.257 310.739)" class="st2 st3">28</text>
	<text transform="matrix(1 0 0 1 349.5571 287.9384)" class="st2 st3">29</text>
	<text transform="matrix(1 0 0 1 352.5574 265.2386)" class="st2 st3">30</text>
	<text transform="matrix(1 0 0 1 359.157 243.3383)" class="st2 st3">31</text>
</g>
<g id="month_names">
	<text transform="matrix(1 0 0 1 374.6999 288.0145)" class="st26 st2 st27">jan</text>
	<text transform="matrix(1 0 0 1 533.6345 433.8148)" class="st26 st2 st27">apr</text>
	<text transform="matrix(1 0 0 1 662.0999 354.6389)" class="st26 st2 st27">july</text>
	<text transform="matrix(1 0 0 1 708.1003 372.0102)" class="st26 st2 st27">nov</text>
	<text transform="matrix(1 0 0 1 642.0003 441.1102)" class="st26 st2 st27">sep</text>
	<text transform="matrix(1 0 0 1 259.5001 161.5099)" class="st26 st2 st27">oct</text>
	<text transform="matrix(1 0 0 1 573.1997 146.6103)" class="st26 st2 st27">may</text>
	<text transform="matrix(1 0 0 1 349.557 367.6104)" class="st26 st2 st27">mar</text>
	<text transform="matrix(1 0 0 1 277.0002 305.7389)" class="st26 st2 st27">jun</text>
	<text transform="matrix(1 0 0 1 201.0998 314.3097)" class="st26 st2 st27">dec</text>
	<text transform="matrix(1 0 0 1 369.2002 222.2142)" class="st26 st2 st27">feb</text>
	<text transform="matrix(1 0 0 1 288.4 160.6143)" class="st26 st2 st27">aug</text>
</g>
</svg>
