<?xml version="1.0" encoding="utf-8"?>
<!-- Generator: Adobe Illustrator 19.1.0, SVG Export Plug-In . SVG Version: 6.00 Build 0)  -->
<svg version="1.1" xmlns="http://www.w3.org/2000/svg" xmlns:xlink="http://www.w3.org/1999/xlink" x="0px" y="0px"
	 viewBox="-196 -8 565.5 576" style="enable-background:new -196 -8 565.5 576;" xml:space="preserve">
<style type="text/css">
	.st0{fill:#FFFFFF;stroke:#6C11CC;stroke-miterlimit:10;}
	.st1{stroke:#6C11CC;stroke-miterlimit:10;}
	.st2{fill:#FFFFFF;stroke:#CC155F;stroke-miterlimit:10;}
	.st3{stroke:#CC155F;stroke-miterlimit:10;}
	.st4{stroke:#57BABC;stroke-miterlimit:10;}
	.st5{fill:#FFFFFF;stroke:#57BABC;stroke-miterlimit:10;}
	.st6{fill:#FFFFFF;stroke:#DBD067;stroke-miterlimit:10;}
	.st7{stroke:#DBD067;stroke-miterlimit:10;}
	.st8{fill:#FFFFFF;stroke:#CE55CE;stroke-miterlimit:10;}
	.st9{stroke:#CE55CE;stroke-miterlimit:10;}
	.st10{fill:#FFFFFF;stroke:#EDE60F;stroke-miterlimit:10;}
	.st11{stroke:#EDE60F;stroke-miterlimit:10;}
	.st12{stroke:#59966C;stroke-miterlimit:10;}
	.st13{fill:#FFFFFF;stroke:#59966C;stroke-miterlimit:10;}
	.st14{fill:#FFFFFF;stroke:#C211CC;stroke-miterlimit:10;}
	.st15{stroke:#C211CC;stroke-miterlimit:10;}
	.st16{fill:#FFFFFF;stroke:#0E7BCC;stroke-miterlimit:10;}
	.st17{stroke:#0E7BCC;stroke-miterlimit:10;}
	.st18{fill:#FFFFFF;stroke:#38CC0E;stroke-miterlimit:10;}
	.st19{stroke:#38CC0E;stroke-miterlimit:10;}
	.st20{fill:#FFFFFF;stroke:#CC910D;stroke-miterlimit:10;}
	.st21{stroke:#CC910D;stroke-miterlimit:10;}
	.st22{fill:#FFFFFF;stroke:#FF1806;stroke-miterlimit:10;}
	.st23{stroke:#FF1806;stroke-miterlimit:10;}
	.st24{font-family:'ArialMT';}
	.st25{font-size:11px;}
	.st26{fill:#FFFFFF;}
	.st27{font-size:9px;}
</style>
<g id="december_circ">
	<g id="december">
		<g>
			<g>
				<path class="st0" d="M318.3,131.6c-5.4,0-9.8-4.4-9.8-9.8s4.4-9.8,9.8-9.8s9.8,4.4,9.8,9.8S323.7,131.6,318.3,131.6z"/>
			</g>
		</g>
		<g>
			<g>
				<path class="st0" d="M304.2,113.6c-5.4,0-9.8-4.4-9.8-9.8s4.4-9.8,9.8-9.8c5.4,0,9.8,4.4,9.8,9.8S309.6,113.6,304.2,113.6z"/>
			</g>
		</g>
		<g>
			<g>
				<path class="st0" d="M287.9,97.3c-5.4,0-9.8-4.4-9.8-9.8s4.4-9.8,9.8-9.8c5.4,0,9.8,4.4,9.8,9.8
					C297.7,92.9,293.3,97.3,287.9,97.3z"/>
			</g>
		</g>
		<g>
			<g>
				<path class="st0" d="M271,81.9c-5.4,0-9.8-4.4-9.8-9.8s4.4-9.8,9.8-9.8c5.4,0,9.8,4.4,9.8,9.8S276.4,81.9,271,81.9z"/>
			</g>
		</g>
		<g>
			<g>
				<path class="st0" d="M252.2,68.6c-5.4,0-9.8-4.4-9.8-9.8s4.4-9.8,9.8-9.8c5.4,0,9.8,4.4,9.8,9.8S257.6,68.6,252.2,68.6z"/>
			</g>
		</g>
		<g>
			<g>
				<path class="st0" d="M233,56.1c-5.4,0-9.8-4.4-9.8-9.8s4.4-9.8,9.8-9.8c5.4,0,9.8,4.4,9.8,9.8S238.4,56.1,233,56.1z"/>
			</g>
		</g>
		<g>
			<g>
				<path class="st0" d="M212.2,46.2c-5.4,0-9.8-4.4-9.8-9.8s4.4-9.8,9.8-9.8c5.4,0,9.8,4.4,9.8,9.8S217.6,46.2,212.2,46.2z"/>
			</g>
		</g>
		<g>
			<g>
				<path class="st0" d="M191.2,37c-5.4,0-9.8-4.4-9.8-9.8s4.4-9.8,9.8-9.8c5.4,0,9.8,4.4,9.8,9.8S196.6,37,191.2,37z"/>
			</g>
		</g>
		<g>
			<g>
				<path class="st0" d="M169.1,30.9c-5.4,0-9.8-4.4-9.8-9.8s4.4-9.8,9.8-9.8c5.4,0,9.8,4.4,9.8,9.8S174.5,30.9,169.1,30.9z"/>
			</g>
		</g>
		<g>
			<g>
				<path class="st0" d="M146.9,25c-5.4,0-9.8-4.4-9.8-9.8s4.4-9.8,9.8-9.8c5.4,0,9.8,4.4,9.8,9.8C156.7,20.6,152.3,25,146.9,25z"/>
			</g>
		</g>
		<g>
			<g>
				<path class="st0" d="M124,23c-5.4,0-9.8-4.4-9.8-9.8s4.4-9.8,9.8-9.8s9.8,4.4,9.8,9.8S129.4,23,124,23z"/>
			</g>
		</g>
		<g>
			<g>
				<path class="st0" d="M101.1,20.9c-5.4,0-9.8-4.4-9.8-9.8s4.4-9.8,9.8-9.8s9.8,4.4,9.8,9.8C110.9,16.5,106.5,20.9,101.1,20.9z"/>
			</g>
		</g>
		<g>
			<g>
				<path class="st0" d="M78.2,22.6c-5.4,0-9.8-4.4-9.8-9.8S72.8,3,78.2,3S88,7.4,88,12.8S83.6,22.6,78.2,22.6z"/>
			</g>
		</g>
		<g>
			<g>
				<path class="st0" d="M55.3,24.6c-5.4,0-9.8-4.4-9.8-9.8S49.9,5,55.3,5s9.8,4.4,9.8,9.8S60.7,24.6,55.3,24.6z"/>
			</g>
		</g>
		<g>
			<g>
				<path class="st0" d="M32.9,29.7c-5.4,0-9.8-4.4-9.8-9.8s4.4-9.8,9.8-9.8s9.8,4.4,9.8,9.8S38.3,29.7,32.9,29.7z"/>
			</g>
		</g>
		<g>
			<g>
				<path class="st0" d="M10.8,35.8C5.4,35.8,1,31.4,1,26s4.4-9.8,9.8-9.8s9.8,4.4,9.8,9.8S16.2,35.8,10.8,35.8z"/>
			</g>
		</g>
		<g>
			<g>
				<path class="st0" d="M-10.5,44.3c-5.4,0-9.8-4.4-9.8-9.8s4.4-9.8,9.8-9.8s9.8,4.4,9.8,9.8S-5.1,44.3-10.5,44.3z"/>
			</g>
		</g>
		<g>
			<g>
				<path class="st0" d="M-31.3,54.1c-5.4,0-9.8-4.4-9.8-9.8s4.4-9.8,9.8-9.8s9.8,4.4,9.8,9.8S-25.9,54.1-31.3,54.1z"/>
			</g>
		</g>
		<g>
			<g>
				<path class="st0" d="M-50.9,66c-5.4,0-9.8-4.4-9.8-9.8s4.4-9.8,9.8-9.8s9.8,4.4,9.8,9.8C-41.1,61.6-45.5,66-50.9,66z"/>
			</g>
		</g>
		<g>
			<g>
				<path class="st0" d="M-69.6,79.2c-5.4,0-9.8-4.4-9.8-9.8s4.4-9.8,9.8-9.8s9.8,4.4,9.8,9.8C-59.8,74.8-64.2,79.2-69.6,79.2z"/>
			</g>
		</g>
		<g>
			<g>
				<path class="st0" d="M-87.1,94.1c-5.4,0-9.8-4.4-9.8-9.8s4.4-9.8,9.8-9.8s9.8,4.4,9.8,9.8S-81.7,94.1-87.1,94.1z"/>
			</g>
		</g>
		<g>
			<g>
				<path class="st0" d="M-103.3,110.4c-5.4,0-9.8-4.4-9.8-9.8s4.4-9.8,9.8-9.8s9.8,4.4,9.8,9.8C-93.5,106-97.9,110.4-103.3,110.4z"
					/>
			</g>
		</g>
		<g>
			<g>
				<path class="st0" d="M-118.1,127.9c-5.4,0-9.8-4.4-9.8-9.8s4.4-9.8,9.8-9.8s9.8,4.4,9.8,9.8S-112.7,127.9-118.1,127.9z"/>
			</g>
		</g>
		<g>
			<g>
				<path class="st0" d="M-131.4,146.6c-5.4,0-9.8-4.4-9.8-9.8s4.4-9.8,9.8-9.8c5.4,0,9.8,4.4,9.8,9.8S-126,146.6-131.4,146.6z"/>
			</g>
		</g>
		<g>
			<g>
				<path class="st0" d="M-143.1,166.3c-5.4,0-9.8-4.4-9.8-9.8c0-5.4,4.4-9.8,9.8-9.8c5.4,0,9.8,4.4,9.8,9.8
					C-133.3,161.9-137.7,166.3-143.1,166.3z"/>
			</g>
		</g>
		<g>
			<g>
				<path class="st0" d="M-153,187.1c-5.4,0-9.8-4.4-9.8-9.8s4.4-9.8,9.8-9.8c5.4,0,9.8,4.4,9.8,9.8S-147.6,187.1-153,187.1z"/>
			</g>
		</g>
		<g>
			<g>
				<path class="st0" d="M-161.4,208.4c-5.4,0-9.8-4.4-9.8-9.8c0-5.4,4.4-9.8,9.8-9.8c5.4,0,9.8,4.4,9.8,9.8S-156,208.4-161.4,208.4
					z"/>
			</g>
		</g>
		<g>
			<g>
				<path class="st0" d="M-167.4,230.5c-5.4,0-9.8-4.4-9.8-9.8c0-5.4,4.4-9.8,9.8-9.8c5.4,0,9.8,4.4,9.8,9.8S-162,230.5-167.4,230.5
					z"/>
			</g>
		</g>
		<g>
			<g>
				<path class="st0" d="M-172.4,252.9c-5.4,0-9.8-4.4-9.8-9.8c0-5.4,4.4-9.8,9.8-9.8c5.4,0,9.8,4.4,9.8,9.8S-167,252.9-172.4,252.9
					z"/>
			</g>
		</g>
		<g>
			<g>
				<path class="st0" d="M-174.4,275.8c-5.4,0-9.8-4.4-9.8-9.8s4.4-9.8,9.8-9.8c5.4,0,9.8,4.4,9.8,9.8S-169,275.8-174.4,275.8z"/>
			</g>
		</g>
		<g>
			<g>
				<path class="st0" d="M-175.9,298.7c-5.4,0-9.8-4.4-9.8-9.8s4.4-9.8,9.8-9.8c5.4,0,9.8,4.4,9.8,9.8
					C-166.1,294.3-170.5,298.7-175.9,298.7z"/>
			</g>
		</g>
		<g>
			<g>
				<path class="st1" d="M-173.6,321.6c-5.4,0-9.8-4.4-9.8-9.8s4.4-9.8,9.8-9.8c5.4,0,9.8,4.4,9.8,9.8S-168.2,321.6-173.6,321.6z"/>
			</g>
		</g>
	</g>
</g>
<g id="november_circ">
	<g id="november">
		<path class="st2" d="M-30.8,514.4c0,5.4-4.4,9.8-9.8,9.8s-9.8-4.4-9.8-9.8c0-5.4,4.4-9.8,9.8-9.8C-35.2,504.6-30.8,509-30.8,514.4
			z"/>
		<path class="st2" d="M211.6,520.6c0,5.4-4.4,9.8-9.8,9.8s-9.8-4.4-9.8-9.8c0-5.4,4.4-9.8,9.8-9.8S211.6,515.2,211.6,520.6z"/>
		<path class="st2" d="M231.8,509.6c0,5.4-4.4,9.8-9.8,9.8c-5.4,0-9.8-4.4-9.8-9.8c0-5.4,4.4-9.8,9.8-9.8
			C227.4,499.8,231.8,504.2,231.8,509.6z"/>
		<g>
			<g>
				<path class="st2" d="M-171.3,324.8c-5.4,0-9.8,4.4-9.8,9.8s4.4,9.8,9.8,9.8c5.4,0,9.8-4.4,9.8-9.8
					C-161.5,329.2-165.9,324.8-171.3,324.8z"/>
			</g>
		</g>
		<g>
			<g>
				<path class="st2" d="M-165.3,347c-5.4,0-9.8,4.4-9.8,9.8s4.4,9.8,9.8,9.8c5.4,0,9.8-4.4,9.8-9.8S-159.9,347-165.3,347z"/>
			</g>
		</g>
		<g>
			<g>
				<path class="st2" d="M-158.5,368.9c-5.4,0-9.8,4.4-9.8,9.8s4.4,9.8,9.8,9.8c5.4,0,9.8-4.4,9.8-9.8S-153.1,368.9-158.5,368.9z"/>
			</g>
		</g>
		<g>
			<g>
				<path class="st2" d="M-149.3,389.9c-5.4,0-9.8,4.4-9.8,9.8s4.4,9.8,9.8,9.8c5.4,0,9.8-4.4,9.8-9.8S-143.9,389.9-149.3,389.9z"/>
			</g>
		</g>
		<g>
			<g>
				<path class="st2" d="M-138.3,410.1c-5.4,0-9.8,4.4-9.8,9.8s4.4,9.8,9.8,9.8c5.4,0,9.8-4.4,9.8-9.8S-132.9,410.1-138.3,410.1z"/>
			</g>
		</g>
		<g>
			<g>
				<path class="st2" d="M-126,429.4c-5.4,0-9.8,4.4-9.8,9.8s4.4,9.8,9.8,9.8s9.8-4.4,9.8-9.8S-120.6,429.4-126,429.4z"/>
			</g>
		</g>
		<g>
			<g>
				<path class="st2" d="M-111.4,447.1c-5.4,0-9.8,4.4-9.8,9.8s4.4,9.8,9.8,9.8s9.8-4.4,9.8-9.8C-101.6,451.5-106,447.1-111.4,447.1
					z"/>
			</g>
		</g>
		<g>
			<g>
				<path class="st2" d="M-96.3,464.3c-5.4,0-9.8,4.4-9.8,9.8s4.4,9.8,9.8,9.8s9.8-4.4,9.8-9.8C-86.5,468.7-90.9,464.3-96.3,464.3z"
					/>
			</g>
		</g>
		<g>
			<g>
				<path class="st2" d="M-78.5,478.9c-5.4,0-9.8,4.4-9.8,9.8s4.4,9.8,9.8,9.8s9.8-4.4,9.8-9.8S-73.1,478.9-78.5,478.9z"/>
			</g>
		</g>
		<g>
			<g>
				<path class="st2" d="M-59.9,493.5c-5.4,0-9.8,4.4-9.8,9.8s4.4,9.8,9.8,9.8s9.8-4.4,9.8-9.8S-54.5,493.5-59.9,493.5z"/>
			</g>
		</g>
		<g>
			<g>
				<path class="st2" d="M-20.4,515.5c-5.4,0-9.8,4.4-9.8,9.8s4.4,9.8,9.8,9.8s9.8-4.4,9.8-9.8S-15,515.5-20.4,515.5z"/>
			</g>
		</g>
		<g>
			<g>
				<path class="st2" d="M1.1,523.3c-5.4,0-9.8,4.4-9.8,9.8c0,5.4,4.4,9.8,9.8,9.8s9.8-4.4,9.8-9.8C10.9,527.7,6.5,523.3,1.1,523.3z
					"/>
			</g>
		</g>
		<g>
			<g>
				<path class="st2" d="M23.1,530.1c-5.4,0-9.8,4.4-9.8,9.8c0,5.4,4.4,9.8,9.8,9.8s9.8-4.4,9.8-9.8
					C32.9,534.5,28.5,530.1,23.1,530.1z"/>
			</g>
		</g>
		<g>
			<g>
				<path class="st2" d="M45.5,534.5c-5.4,0-9.8,4.4-9.8,9.8s4.4,9.8,9.8,9.8s9.8-4.4,9.8-9.8S50.9,534.5,45.5,534.5z"/>
			</g>
		</g>
		<g>
			<g>
				<path class="st2" d="M68.4,536.8c-5.4,0-9.8,4.4-9.8,9.8c0,5.4,4.4,9.8,9.8,9.8s9.8-4.4,9.8-9.8S73.8,536.8,68.4,536.8z"/>
			</g>
		</g>
		<g>
			<g>
				<path class="st2" d="M91.3,538.1c-5.4,0-9.8,4.4-9.8,9.8c0,5.4,4.4,9.8,9.8,9.8s9.8-4.4,9.8-9.8S96.7,538.1,91.3,538.1z"/>
			</g>
		</g>
		<g>
			<g>
				<path class="st2" d="M114.1,535.8c-5.4,0-9.8,4.4-9.8,9.8c0,5.4,4.4,9.8,9.8,9.8s9.8-4.4,9.8-9.8
					C123.9,540.2,119.5,535.8,114.1,535.8z"/>
			</g>
		</g>
		<g>
			<g>
				<path class="st2" d="M137,533.5c-5.4,0-9.8,4.4-9.8,9.8s4.4,9.8,9.8,9.8c5.4,0,9.8-4.4,9.8-9.8S142.4,533.5,137,533.5z"/>
			</g>
		</g>
		<g>
			<g>
				<path class="st2" d="M159,527.2c-5.4,0-9.8,4.4-9.8,9.8c0,5.4,4.4,9.8,9.8,9.8c5.4,0,9.8-4.4,9.8-9.8
					C168.8,531.6,164.4,527.2,159,527.2z"/>
			</g>
		</g>
		<g>
			<g>
				<path class="st2" d="M181,520.3c-5.4,0-9.8,4.4-9.8,9.8c0,5.4,4.4,9.8,9.8,9.8c5.4,0,9.8-4.4,9.8-9.8S186.4,520.3,181,520.3z"/>
			</g>
		</g>
		<g>
			<g>
				<path class="st2" d="M241.1,506.8c-5.4,0-9.8-4.4-9.8-9.8s4.4-9.8,9.8-9.8c5.4,0,9.8,4.4,9.8,9.8S246.5,506.8,241.1,506.8z"/>
			</g>
		</g>
		<g>
			<g>
				<path class="st2" d="M258.8,492.2c-5.4,0-9.8-4.4-9.8-9.8s4.4-9.8,9.8-9.8s9.8,4.4,9.8,9.8C268.6,487.8,264.2,492.2,258.8,492.2
					z"/>
			</g>
		</g>
		<g>
			<g>
				<path class="st2" d="M275.7,476.7c-5.4,0-9.8-4.4-9.8-9.8s4.4-9.8,9.8-9.8c5.4,0,9.8,4.4,9.8,9.8
					C285.5,472.3,281.1,476.7,275.7,476.7z"/>
			</g>
		</g>
		<g>
			<g>
				<path class="st2" d="M290.4,459c-5.4,0-9.8-4.4-9.8-9.8s4.4-9.8,9.8-9.8c5.4,0,9.8,4.4,9.8,9.8C300.2,454.6,295.8,459,290.4,459
					z"/>
			</g>
		</g>
		<g>
			<g>
				<path class="st2" d="M304.7,441.1c-5.4,0-9.8-4.4-9.8-9.8s4.4-9.8,9.8-9.8c5.4,0,9.8,4.4,9.8,9.8S310.1,441.1,304.7,441.1z"/>
			</g>
		</g>
		<g>
			<g>
				<path class="st2" d="M315.7,420.9c-5.4,0-9.8-4.4-9.8-9.8s4.4-9.8,9.8-9.8c5.4,0,9.8,4.4,9.8,9.8S321.1,420.9,315.7,420.9z"/>
			</g>
		</g>
		<g>
			<g>
				<path class="st2" d="M326.7,400.7c-5.4,0-9.8-4.4-9.8-9.8s4.4-9.8,9.8-9.8c5.4,0,9.8,4.4,9.8,9.8
					C336.5,396.3,332.1,400.7,326.7,400.7z"/>
			</g>
		</g>
		<g>
			<g>
				<path class="st3" d="M334,379c-5.4,0-9.8-4.4-9.8-9.8s4.4-9.8,9.8-9.8c5.4,0,9.8,4.4,9.8,9.8S339.4,379,334,379z"/>
			</g>
		</g>
	</g>
</g>
<g id="october_circ">
	<g id="october">
		<path class="st4" d="M-105.6,158.9c0,5.4-4.4,9.8-9.8,9.8s-9.8-4.4-9.8-9.8c0-5.4,4.4-9.8,9.8-9.8
			C-110,149.1-105.6,153.5-105.6,158.9z"/>
		<path class="st5" d="M-93.3,139.6c0,5.4-4.4,9.8-9.8,9.8s-9.8-4.4-9.8-9.8c0-5.4,4.4-9.8,9.8-9.8S-93.3,134.2-93.3,139.6z"/>
		<path class="st5" d="M57.3,41.3c0,5.4-4.4,9.8-9.8,9.8s-9.8-4.4-9.8-9.8s4.4-9.8,9.8-9.8S57.3,35.9,57.3,41.3z"/>
		<g>
			<g>
				<path class="st5" d="M340.9,337.4c-5.4,0-9.8,4.4-9.8,9.8s4.4,9.8,9.8,9.8c5.4,0,9.8-4.4,9.8-9.8
					C350.7,341.8,346.3,337.4,340.9,337.4z"/>
			</g>
		</g>
		<g>
			<g>
				<path class="st5" d="M344.9,314.9c-5.4,0-9.8,4.4-9.8,9.8s4.4,9.8,9.8,9.8c5.4,0,9.8-4.4,9.8-9.8
					C354.7,319.3,350.3,314.9,344.9,314.9z"/>
			</g>
		</g>
		<g>
			<g>
				<path class="st5" d="M347.2,292c-5.4,0-9.8,4.4-9.8,9.8s4.4,9.8,9.8,9.8c5.4,0,9.8-4.4,9.8-9.8S352.6,292,347.2,292z"/>
			</g>
		</g>
		<g>
			<g>
				<path class="st5" d="M348.1,269.2c-5.4,0-9.8,4.4-9.8,9.8s4.4,9.8,9.8,9.8c5.4,0,9.8-4.4,9.8-9.8S353.5,269.2,348.1,269.2z"/>
			</g>
		</g>
		<g>
			<g>
				<path class="st5" d="M345.8,246.3c-5.4,0-9.8,4.4-9.8,9.8c0,5.4,4.4,9.8,9.8,9.8s9.8-4.4,9.8-9.8
					C355.6,250.7,351.2,246.3,345.8,246.3z"/>
			</g>
		</g>
		<g>
			<g>
				<path class="st5" d="M343,223.5c-5.4,0-9.8,4.4-9.8,9.8s4.4,9.8,9.8,9.8c5.4,0,9.8-4.4,9.8-9.8S348.4,223.5,343,223.5z"/>
			</g>
		</g>
		<g>
			<g>
				<path class="st5" d="M336.2,201.6c-5.4,0-9.8,4.4-9.8,9.8c0,5.4,4.4,9.8,9.8,9.8c5.4,0,9.8-4.4,9.8-9.8S341.6,201.6,336.2,201.6
					z"/>
			</g>
		</g>
		<g>
			<g>
				<path class="st5" d="M329.4,179.6c-5.4,0-9.8,4.4-9.8,9.8c0,5.4,4.4,9.8,9.8,9.8c5.4,0,9.8-4.4,9.8-9.8
					C339.2,184,334.8,179.6,329.4,179.6z"/>
			</g>
		</g>
		<g>
			<g>
				<path class="st5" d="M318.6,159.4c-5.4,0-9.8,4.4-9.8,9.8c0,5.4,4.4,9.8,9.8,9.8c5.4,0,9.8-4.4,9.8-9.8
					C328.4,163.8,324,159.4,318.6,159.4z"/>
			</g>
		</g>
		<g>
			<g>
				<path class="st5" d="M307.6,139.2c-5.4,0-9.8,4.4-9.8,9.8c0,5.4,4.4,9.8,9.8,9.8c5.4,0,9.8-4.4,9.8-9.8
					C317.4,143.6,313,139.2,307.6,139.2z"/>
			</g>
		</g>
		<g>
			<g>
				<path class="st5" d="M293.5,121.1c-5.4,0-9.8,4.4-9.8,9.8s4.4,9.8,9.8,9.8c5.4,0,9.8-4.4,9.8-9.8
					C303.3,125.5,298.9,121.1,293.5,121.1z"/>
			</g>
		</g>
		<g>
			<g>
				<path class="st5" d="M278.9,103.4c-5.4,0-9.8,4.4-9.8,9.8s4.4,9.8,9.8,9.8c5.4,0,9.8-4.4,9.8-9.8
					C288.7,107.8,284.3,103.4,278.9,103.4z"/>
			</g>
		</g>
		<g>
			<g>
				<path class="st5" d="M261.8,88c-5.4,0-9.8,4.4-9.8,9.8s4.4,9.8,9.8,9.8s9.8-4.4,9.8-9.8S267.2,88,261.8,88z"/>
			</g>
		</g>
		<g>
			<g>
				<path class="st5" d="M244.1,73.4c-5.4,0-9.8,4.4-9.8,9.8s4.4,9.8,9.8,9.8c5.4,0,9.8-4.4,9.8-9.8S249.5,73.4,244.1,73.4z"/>
			</g>
		</g>
		<g>
			<g>
				<path class="st5" d="M224.7,61.3c-5.4,0-9.8,4.4-9.8,9.8s4.4,9.8,9.8,9.8c5.4,0,9.8-4.4,9.8-9.8S230.1,61.3,224.7,61.3z"/>
			</g>
		</g>
		<g>
			<g>
				<path class="st5" d="M204.5,50.3c-5.4,0-9.8,4.4-9.8,9.8s4.4,9.8,9.8,9.8c5.4,0,9.8-4.4,9.8-9.8S209.9,50.3,204.5,50.3z"/>
			</g>
		</g>
		<g>
			<g>
				<path class="st5" d="M183.2,41.8c-5.4,0-9.8,4.4-9.8,9.8s4.4,9.8,9.8,9.8c5.4,0,9.8-4.4,9.8-9.8S188.6,41.8,183.2,41.8z"/>
			</g>
		</g>
		<g>
			<g>
				<path class="st5" d="M161.3,35c-5.4,0-9.8,4.4-9.8,9.8s4.4,9.8,9.8,9.8s9.8-4.4,9.8-9.8S166.7,35,161.3,35z"/>
			</g>
		</g>
		<g>
			<g>
				<path class="st5" d="M138.9,30.2c-5.4,0-9.8,4.4-9.8,9.8s4.4,9.8,9.8,9.8c5.4,0,9.8-4.4,9.8-9.8
					C148.7,34.6,144.3,30.2,138.9,30.2z"/>
			</g>
		</g>
		<g>
			<g>
				<path class="st5" d="M116.1,27.9c-5.4,0-9.8,4.4-9.8,9.8s4.4,9.8,9.8,9.8s9.8-4.4,9.8-9.8C125.9,32.3,121.5,27.9,116.1,27.9z"/>
			</g>
		</g>
		<g>
			<g>
				<path class="st5" d="M93.2,26.7c-5.4,0-9.8,4.4-9.8,9.8s4.4,9.8,9.8,9.8s9.8-4.4,9.8-9.8C103,31.1,98.6,26.7,93.2,26.7z"/>
			</g>
		</g>
		<g>
			<g>
				<path class="st5" d="M70.3,29c-5.4,0-9.8,4.4-9.8,9.8s4.4,9.8,9.8,9.8s9.8-4.4,9.8-9.8S75.7,29,70.3,29z"/>
			</g>
		</g>
		<g>
			<g>
				<path class="st5" d="M25.5,38.3c-5.4,0-9.8,4.4-9.8,9.8s4.4,9.8,9.8,9.8s9.8-4.4,9.8-9.8S30.9,38.3,25.5,38.3z"/>
			</g>
		</g>
		<g>
			<g>
				<path class="st5" d="M3.6,45.1c-5.4,0-9.8,4.4-9.8,9.8s4.4,9.8,9.8,9.8s9.8-4.4,9.8-9.8C13.4,49.5,9,45.1,3.6,45.1z"/>
			</g>
		</g>
		<g>
			<g>
				<path class="st5" d="M-16.8,55.7c-5.4,0-9.8,4.4-9.8,9.8s4.4,9.8,9.8,9.8S-7,70.9-7,65.5C-7,60.1-11.4,55.7-16.8,55.7z"/>
			</g>
		</g>
		<g>
			<g>
				<path class="st5" d="M-37,66.7c-5.4,0-9.8,4.4-9.8,9.8s4.4,9.8,9.8,9.8s9.8-4.4,9.8-9.8S-31.6,66.7-37,66.7z"/>
			</g>
		</g>
		<g>
			<g>
				<path class="st5" d="M-55.2,80.6c-5.4,0-9.8,4.4-9.8,9.8s4.4,9.8,9.8,9.8s9.8-4.4,9.8-9.8S-49.8,80.6-55.2,80.6z"/>
			</g>
		</g>
		<g>
			<g>
				<path class="st5" d="M-72.9,95.2c-5.4,0-9.8,4.4-9.8,9.8s4.4,9.8,9.8,9.8s9.8-4.4,9.8-9.8C-63.1,99.6-67.5,95.2-72.9,95.2z"/>
			</g>
		</g>
		<g>
			<g>
				<path class="st5" d="M-88.4,112.1c-5.4,0-9.8,4.4-9.8,9.8s4.4,9.8,9.8,9.8s9.8-4.4,9.8-9.8C-78.6,116.5-83,112.1-88.4,112.1z"/>
			</g>
		</g>
	</g>
</g>
<g id="september_circ">
	<g id="september">
		<path class="st6" d="M-139.5,267.3c0,5.4-4.4,9.8-9.8,9.8c-5.4,0-9.8-4.4-9.8-9.8s4.4-9.8,9.8-9.8S-139.5,261.9-139.5,267.3z"/>
		<path class="st6" d="M-129.1,357.8c0,5.4-4.4,9.8-9.8,9.8c-5.4,0-9.8-4.4-9.8-9.8s4.4-9.8,9.8-9.8
			C-133.5,348-129.1,352.4-129.1,357.8z"/>
		<path class="st6" d="M49.9,518.8c0,5.4-4.4,9.8-9.8,9.8s-9.8-4.4-9.8-9.8s4.4-9.8,9.8-9.8S49.9,513.4,49.9,518.8z"/>
		<path class="st6" d="M118.5,521.2c0,5.4-4.4,9.8-9.8,9.8s-9.8-4.4-9.8-9.8c0-5.4,4.4-9.8,9.8-9.8
			C114.1,511.4,118.5,515.8,118.5,521.2z"/>
		<g>
			<g>
				<path class="st6" d="M-126.4,169.3c-5.4,0-9.8,4.4-9.8,9.8c0,5.4,4.4,9.8,9.8,9.8s9.8-4.4,9.8-9.8S-121,169.3-126.4,169.3z"/>
			</g>
		</g>
		<g>
			<g>
				<path class="st6" d="M-135.1,190.4c-5.4,0-9.8,4.4-9.8,9.8c0,5.4,4.4,9.8,9.8,9.8c5.4,0,9.8-4.4,9.8-9.8
					C-125.3,194.8-129.7,190.4-135.1,190.4z"/>
			</g>
		</g>
		<g>
			<g>
				<path class="st6" d="M-142,212.3c-5.4,0-9.8,4.4-9.8,9.8c0,5.4,4.4,9.8,9.8,9.8c5.4,0,9.8-4.4,9.8-9.8S-136.6,212.3-142,212.3z"
					/>
			</g>
		</g>
		<g>
			<g>
				<path class="st6" d="M-147,234.7c-5.4,0-9.8,4.4-9.8,9.8c0,5.4,4.4,9.8,9.8,9.8c5.4,0,9.8-4.4,9.8-9.8
					C-137.2,239.1-141.6,234.7-147,234.7z"/>
			</g>
		</g>
		<g>
			<g>
				<path class="st6" d="M-150.8,280.4c-5.4,0-9.8,4.4-9.8,9.8s4.4,9.8,9.8,9.8c5.4,0,9.8-4.4,9.8-9.8S-145.4,280.4-150.8,280.4z"/>
			</g>
		</g>
		<g>
			<g>
				<path class="st6" d="M-148.5,303.3c-5.4,0-9.8,4.4-9.8,9.8s4.4,9.8,9.8,9.8c5.4,0,9.8-4.4,9.8-9.8
					C-138.7,307.7-143.1,303.3-148.5,303.3z"/>
			</g>
		</g>
		<g>
			<g>
				<path class="st6" d="M-145.7,326.1c-5.4,0-9.8,4.4-9.8,9.8s4.4,9.8,9.8,9.8s9.8-4.4,9.8-9.8S-140.3,326.1-145.7,326.1z"/>
			</g>
		</g>
		<g>
			<g>
				<path class="st6" d="M-131.9,369.8c-5.4,0-9.8,4.4-9.8,9.8s4.4,9.8,9.8,9.8c5.4,0,9.8-4.4,9.8-9.8
					C-122.1,374.2-126.5,369.8-131.9,369.8z"/>
			</g>
		</g>
		<g>
			<g>
				<path class="st6" d="M-120.9,390.1c-5.4,0-9.8,4.4-9.8,9.8s4.4,9.8,9.8,9.8c5.4,0,9.8-4.4,9.8-9.8
					C-111.1,394.5-115.5,390.1-120.9,390.1z"/>
			</g>
		</g>
		<g>
			<g>
				<path class="st6" d="M-109.7,410.1c-5.4,0-9.8,4.4-9.8,9.8s4.4,9.8,9.8,9.8s9.8-4.4,9.8-9.8S-104.3,410.1-109.7,410.1z"/>
			</g>
		</g>
		<g>
			<g>
				<path class="st6" d="M-95.1,427.8c-5.4,0-9.8,4.4-9.8,9.8s4.4,9.8,9.8,9.8s9.8-4.4,9.8-9.8C-85.3,432.2-89.7,427.8-95.1,427.8z"
					/>
			</g>
		</g>
		<g>
			<g>
				<path class="st6" d="M-80.2,445.3c-5.4,0-9.8,4.4-9.8,9.8s4.4,9.8,9.8,9.8s9.8-4.4,9.8-9.8C-70.4,449.7-74.8,445.3-80.2,445.3z"
					/>
			</g>
		</g>
		<g>
			<g>
				<path class="st6" d="M-62.4,459.9c-5.4,0-9.8,4.4-9.8,9.8s4.4,9.8,9.8,9.8s9.8-4.4,9.8-9.8C-52.6,464.3-57,459.9-62.4,459.9z"/>
			</g>
		</g>
		<g>
			<g>
				<path class="st6" d="M-44.5,474.2c-5.4,0-9.8,4.4-9.8,9.8s4.4,9.8,9.8,9.8s9.8-4.4,9.8-9.8S-39.1,474.2-44.5,474.2z"/>
			</g>
		</g>
		<g>
			<g>
				<path class="st6" d="M-24.3,485.1c-5.4,0-9.8,4.4-9.8,9.8s4.4,9.8,9.8,9.8s9.8-4.4,9.8-9.8C-14.5,489.5-18.9,485.1-24.3,485.1z"
					/>
			</g>
		</g>
		<g>
			<g>
				<path class="st6" d="M-3.9,495.7c-5.4,0-9.8,4.4-9.8,9.8s4.4,9.8,9.8,9.8s9.8-4.4,9.8-9.8C5.9,500.1,1.5,495.7-3.9,495.7z"/>
			</g>
		</g>
		<g>
			<g>
				<path class="st6" d="M18.1,502.5c-5.4,0-9.8,4.4-9.8,9.8c0,5.4,4.4,9.8,9.8,9.8s9.8-4.4,9.8-9.8S23.5,502.5,18.1,502.5z"/>
			</g>
		</g>
		<g>
			<g>
				<path class="st6" d="M63,511.3c-5.4,0-9.8,4.4-9.8,9.8c0,5.4,4.4,9.8,9.8,9.8s9.8-4.4,9.8-9.8S68.4,511.3,63,511.3z"/>
			</g>
		</g>
		<g>
			<g>
				<path class="st6" d="M85.8,513.6c-5.4,0-9.8,4.4-9.8,9.8c0,5.4,4.4,9.8,9.8,9.8s9.8-4.4,9.8-9.8S91.2,513.6,85.8,513.6z"/>
			</g>
		</g>
		<g>
			<g>
				<path class="st6" d="M131.6,528.7c-5.4,0-9.8-4.4-9.8-9.8c0-5.4,4.4-9.8,9.8-9.8c5.4,0,9.8,4.4,9.8,9.8S137,528.7,131.6,528.7z"
					/>
			</g>
		</g>
		<g>
			<g>
				<path class="st6" d="M153.6,522.4c-5.4,0-9.8-4.4-9.8-9.8c0-5.4,4.4-9.8,9.8-9.8c5.4,0,9.8,4.4,9.8,9.8
					C163.4,518,159,522.4,153.6,522.4z"/>
			</g>
		</g>
		<g>
			<g>
				<path class="st6" d="M175.6,515.6c-5.4,0-9.8-4.4-9.8-9.8s4.4-9.8,9.8-9.8c5.4,0,9.8,4.4,9.8,9.8S181,515.6,175.6,515.6z"/>
			</g>
		</g>
		<g>
			<g>
				<path class="st6" d="M196,505.2c-5.4,0-9.8-4.4-9.8-9.8s4.4-9.8,9.8-9.8c5.4,0,9.8,4.4,9.8,9.8
					C205.8,500.8,201.4,505.2,196,505.2z"/>
			</g>
		</g>
		<g>
			<g>
				<path class="st6" d="M216.2,494.2c-5.4,0-9.8-4.4-9.8-9.8s4.4-9.8,9.8-9.8c5.4,0,9.8,4.4,9.8,9.8
					C226,489.8,221.6,494.2,216.2,494.2z"/>
			</g>
		</g>
		<g>
			<g>
				<path class="st6" d="M234.3,480.1c-5.4,0-9.8-4.4-9.8-9.8s4.4-9.8,9.8-9.8s9.8,4.4,9.8,9.8S239.7,480.1,234.3,480.1z"/>
			</g>
		</g>
		<g>
			<g>
				<path class="st6" d="M252.1,465.5c-5.4,0-9.8-4.4-9.8-9.8s4.4-9.8,9.8-9.8c5.4,0,9.8,4.4,9.8,9.8S257.5,465.5,252.1,465.5z"/>
			</g>
		</g>
		<g>
			<g>
				<path class="st7" d="M267.1,448.1c-5.4,0-9.8-4.4-9.8-9.8s4.4-9.8,9.8-9.8c5.4,0,9.8,4.4,9.8,9.8S272.5,448.1,267.1,448.1z"/>
			</g>
		</g>
	</g>
</g>
<g id="august_circ">
	<g id="august">
		<path class="st8" d="M134.9,74.4c-5.4,0-9.8-4.4-9.8-9.8s4.4-9.8,9.8-9.8c5.4,0,9.8,4.4,9.8,9.8C144.7,70,140.3,74.4,134.9,74.4z"
			/>
		<path class="st8" d="M313.8,380.5c0,5.4-4.4,9.8-9.8,9.8c-5.4,0-9.8-4.4-9.8-9.8s4.4-9.8,9.8-9.8S313.8,375.1,313.8,380.5z"/>
		<path class="st8" d="M321.1,358.7c0,5.4-4.4,9.8-9.8,9.8s-9.8-4.4-9.8-9.8s4.4-9.8,9.8-9.8S321.1,353.3,321.1,358.7z"/>
		<g>
			<g>
				<path class="st8" d="M281.7,410.8c-5.4,0-9.8,4.4-9.8,9.8s4.4,9.8,9.8,9.8c5.4,0,9.8-4.4,9.8-9.8
					C291.5,415.2,287.1,410.8,281.7,410.8z"/>
			</g>
		</g>
		<g>
			<g>
				<path class="st8" d="M293,390.9c-5.4,0-9.8,4.4-9.8,9.8s4.4,9.8,9.8,9.8c5.4,0,9.8-4.4,9.8-9.8S298.4,390.9,293,390.9z"/>
			</g>
		</g>
		<g>
			<g>
				<path class="st8" d="M318.1,346.5c-5.4,0-9.8-4.4-9.8-9.8s4.4-9.8,9.8-9.8c5.4,0,9.8,4.4,9.8,9.8S323.5,346.5,318.1,346.5z"/>
			</g>
		</g>
		<g>
			<g>
				<path class="st8" d="M321,323.8c-5.4,0-9.8-4.4-9.8-9.8s4.4-9.8,9.8-9.8c5.4,0,9.8,4.4,9.8,9.8S326.4,323.8,321,323.8z"/>
			</g>
		</g>
		<g>
			<g>
				<path class="st8" d="M323.3,300.9c-5.4,0-9.8-4.4-9.8-9.8s4.4-9.8,9.8-9.8s9.8,4.4,9.8,9.8S328.7,300.9,323.3,300.9z"/>
			</g>
		</g>
		<g>
			<g>
				<path class="st8" d="M322,278c-5.4,0-9.8-4.4-9.8-9.8s4.4-9.8,9.8-9.8c5.4,0,9.8,4.4,9.8,9.8S327.4,278,322,278z"/>
			</g>
		</g>
		<g>
			<g>
				<path class="st8" d="M319.7,255.2c-5.4,0-9.8-4.4-9.8-9.8c0-5.4,4.4-9.8,9.8-9.8c5.4,0,9.8,4.4,9.8,9.8S325.1,255.2,319.7,255.2
					z"/>
			</g>
		</g>
		<g>
			<g>
				<path class="st8" d="M313.8,233c-5.4,0-9.8-4.4-9.8-9.8c0-5.4,4.4-9.8,9.8-9.8s9.8,4.4,9.8,9.8S319.2,233,313.8,233z"/>
			</g>
		</g>
		<g>
			<g>
				<path class="st8" d="M307,211.1c-5.4,0-9.8-4.4-9.8-9.8s4.4-9.8,9.8-9.8c5.4,0,9.8,4.4,9.8,9.8S312.4,211.1,307,211.1z"/>
			</g>
		</g>
		<g>
			<g>
				<path class="st8" d="M296.6,190.6c-5.4,0-9.8-4.4-9.8-9.8s4.4-9.8,9.8-9.8c5.4,0,9.8,4.4,9.8,9.8S302,190.6,296.6,190.6z"/>
			</g>
		</g>
		<g>
			<g>
				<path class="st8" d="M285.6,170.4c-5.4,0-9.8-4.4-9.8-9.8c0-5.4,4.4-9.8,9.8-9.8c5.4,0,9.8,4.4,9.8,9.8S291,170.4,285.6,170.4z"
					/>
			</g>
		</g>
		<g>
			<g>
				<path class="st8" d="M271.1,152.7c-5.4,0-9.8-4.4-9.8-9.8c0-5.4,4.4-9.8,9.8-9.8c5.4,0,9.8,4.4,9.8,9.8S276.5,152.7,271.1,152.7
					z"/>
			</g>
		</g>
		<g>
			<g>
				<path class="st8" d="M256.2,135.2c-5.4,0-9.8-4.4-9.8-9.8c0-5.4,4.4-9.8,9.8-9.8c5.4,0,9.8,4.4,9.8,9.8
					C266,130.8,261.6,135.2,256.2,135.2z"/>
			</g>
		</g>
		<g>
			<g>
				<path class="st8" d="M238.4,120.6c-5.4,0-9.8-4.4-9.8-9.8s4.4-9.8,9.8-9.8c5.4,0,9.8,4.4,9.8,9.8S243.8,120.6,238.4,120.6z"/>
			</g>
		</g>
		<g>
			<g>
				<path class="st8" d="M220.2,106.8c-5.4,0-9.8-4.4-9.8-9.8s4.4-9.8,9.8-9.8c5.4,0,9.8,4.4,9.8,9.8S225.6,106.8,220.2,106.8z"/>
			</g>
		</g>
		<g>
			<g>
				<path class="st8" d="M200,95.8c-5.4,0-9.8-4.4-9.8-9.8s4.4-9.8,9.8-9.8c5.4,0,9.8,4.4,9.8,9.8S205.4,95.8,200,95.8z"/>
			</g>
		</g>
		<g>
			<g>
				<path class="st8" d="M179.2,86.2c-5.4,0-9.8-4.4-9.8-9.8s4.4-9.8,9.8-9.8c5.4,0,9.8,4.4,9.8,9.8C189,81.8,184.6,86.2,179.2,86.2
					z"/>
			</g>
		</g>
		<g>
			<g>
				<path class="st8" d="M157.2,79.4c-5.4,0-9.8-4.4-9.8-9.8s4.4-9.8,9.8-9.8c5.4,0,9.8,4.4,9.8,9.8S162.6,79.4,157.2,79.4z"/>
			</g>
		</g>
		<g>
			<g>
				<path class="st8" d="M134.9,74.4c-5.4,0-9.8-4.4-9.8-9.8s4.4-9.8,9.8-9.8c5.4,0,9.8,4.4,9.8,9.8C144.7,70,140.3,74.4,134.9,74.4
					z"/>
				<path class="st8" d="M144.7,64.6c0,5.4-4.4,9.8-9.8,9.8c-5.4,0-9.8-4.4-9.8-9.8s4.4-9.8,9.8-9.8
					C140.3,54.8,144.7,59.2,144.7,64.6z"/>
			</g>
		</g>
		<g>
			<g>
				<path class="st8" d="M112.1,72.1c-5.4,0-9.8-4.4-9.8-9.8s4.4-9.8,9.8-9.8s9.8,4.4,9.8,9.8S117.5,72.1,112.1,72.1z"/>
			</g>
		</g>
		<g>
			<g>
				<path class="st8" d="M89.2,71.7c-5.4,0-9.8-4.4-9.8-9.8s4.4-9.8,9.8-9.8s9.8,4.4,9.8,9.8C99,67.3,94.6,71.7,89.2,71.7z"/>
			</g>
		</g>
		<g>
			<g>
				<path class="st8" d="M66.3,74c-5.4,0-9.8-4.4-9.8-9.8s4.4-9.8,9.8-9.8s9.8,4.4,9.8,9.8S71.7,74,66.3,74z"/>
			</g>
		</g>
		<g>
			<g>
				<path class="st8" d="M43.8,78.3c-5.4,0-9.8-4.4-9.8-9.8s4.4-9.8,9.8-9.8s9.8,4.4,9.8,9.8S49.2,78.3,43.8,78.3z"/>
			</g>
		</g>
		<g>
			<g>
				<path class="st8" d="M21.9,85.1c-5.4,0-9.8-4.4-9.8-9.8s4.4-9.8,9.8-9.8s9.8,4.4,9.8,9.8S27.3,85.1,21.9,85.1z"/>
			</g>
		</g>
		<g>
			<g>
				<path class="st8" d="M0.8,94.1c-5.4,0-9.8-4.4-9.8-9.8s4.4-9.8,9.8-9.8s9.8,4.4,9.8,9.8S6.2,94.1,0.8,94.1z"/>
			</g>
		</g>
		<g>
			<g>
				<path class="st8" d="M-19.4,105c-5.4,0-9.8-4.4-9.8-9.8s4.4-9.8,9.8-9.8s9.8,4.4,9.8,9.8C-9.6,100.6-14,105-19.4,105z"/>
			</g>
		</g>
		<g>
			<g>
				<path class="st8" d="M-38,118.3c-5.4,0-9.8-4.4-9.8-9.8s4.4-9.8,9.8-9.8s9.8,4.4,9.8,9.8S-32.6,118.3-38,118.3z"/>
			</g>
		</g>
		<g>
			<g>
				<path class="st8" d="M-55.8,132.9c-5.4,0-9.8-4.4-9.8-9.8c0-5.4,4.4-9.8,9.8-9.8s9.8,4.4,9.8,9.8
					C-46,128.5-50.4,132.9-55.8,132.9z"/>
			</g>
		</g>
		<g>
			<g>
				<path class="st8" d="M-71.2,149.8c-5.4,0-9.8-4.4-9.8-9.8c0-5.4,4.4-9.8,9.8-9.8s9.8,4.4,9.8,9.8
					C-61.4,145.4-65.8,149.8-71.2,149.8z"/>
			</g>
		</g>
		<g>
			<g>
				<path class="st9" d="M-85.8,167.6c-5.4,0-9.8-4.4-9.8-9.8s4.4-9.8,9.8-9.8s9.8,4.4,9.8,9.8S-80.4,167.6-85.8,167.6z"/>
			</g>
		</g>
	</g>
</g>
<g id="july_circ">
	<g id="july">
		<path class="st10" d="M-110.8,333c0,5.4-4.4,9.8-9.8,9.8s-9.8-4.4-9.8-9.8s4.4-9.8,9.8-9.8C-115.2,323.2-110.8,327.6-110.8,333z"
			/>
		<path class="st10" d="M-39.7,448.2c0,5.4-4.4,9.8-9.8,9.8s-9.8-4.4-9.8-9.8s4.4-9.8,9.8-9.8C-44.1,438.4-39.7,442.8-39.7,448.2z"
			/>
		<path class="st10" d="M63.3,495.1c0,5.4-4.4,9.8-9.8,9.8s-9.8-4.4-9.8-9.8s4.4-9.8,9.8-9.8C58.9,485.3,63.3,489.7,63.3,495.1z"/>
		<path class="st10" d="M251,430.6c0,5.4-4.4,9.8-9.8,9.8c-5.4,0-9.8-4.4-9.8-9.8s4.4-9.8,9.8-9.8C246.6,420.8,251,425.2,251,430.6z
			"/>
		<g>
			<g>
				<path class="st10" d="M-97.3,167.8c-5.4,0-9.8,4.4-9.8,9.8c0,5.4,4.4,9.8,9.8,9.8s9.8-4.4,9.8-9.8
					C-87.5,172.2-91.9,167.8-97.3,167.8z"/>
			</g>
		</g>
		<g>
			<g>
				<path class="st10" d="M-108.2,188c-5.4,0-9.8,4.4-9.8,9.8s4.4,9.8,9.8,9.8s9.8-4.4,9.8-9.8S-102.8,188-108.2,188z"/>
			</g>
		</g>
		<g>
			<g>
				<path class="st10" d="M-115.2,209.9c-5.4,0-9.8,4.4-9.8,9.8c0,5.4,4.4,9.8,9.8,9.8s9.8-4.4,9.8-9.8
					C-105.4,214.3-109.8,209.9-115.2,209.9z"/>
			</g>
		</g>
		<g>
			<g>
				<path class="st10" d="M-121.7,231.9c-5.4,0-9.8,4.4-9.8,9.8c0,5.4,4.4,9.8,9.8,9.8c5.4,0,9.8-4.4,9.8-9.8
					C-111.9,236.3-116.3,231.9-121.7,231.9z"/>
			</g>
		</g>
		<g>
			<g>
				<path class="st10" d="M-124,254.8c-5.4,0-9.8,4.4-9.8,9.8s4.4,9.8,9.8,9.8c5.4,0,9.8-4.4,9.8-9.8S-118.6,254.8-124,254.8z"/>
			</g>
		</g>
		<g>
			<g>
				<path class="st10" d="M-126,277.7c-5.4,0-9.8,4.4-9.8,9.8s4.4,9.8,9.8,9.8s9.8-4.4,9.8-9.8S-120.6,277.7-126,277.7z"/>
			</g>
		</g>
		<g>
			<g>
				<path class="st10" d="M-123.7,300.5c-5.4,0-9.8,4.4-9.8,9.8s4.4,9.8,9.8,9.8c5.4,0,9.8-4.4,9.8-9.8S-118.3,300.5-123.7,300.5z"
					/>
			</g>
		</g>
		<g>
			<g>
				<path class="st10" d="M-113.7,345.2c-5.4,0-9.8,4.4-9.8,9.8s4.4,9.8,9.8,9.8s9.8-4.4,9.8-9.8S-108.3,345.2-113.7,345.2z"/>
			</g>
		</g>
		<g>
			<g>
				<path class="st10" d="M-105.4,366.5c-5.4,0-9.8,4.4-9.8,9.8s4.4,9.8,9.8,9.8s9.8-4.4,9.8-9.8S-100,366.5-105.4,366.5z"/>
			</g>
		</g>
		<g>
			<g>
				<path class="st10" d="M-94.4,386.7c-5.4,0-9.8,4.4-9.8,9.8s4.4,9.8,9.8,9.8s9.8-4.4,9.8-9.8C-84.6,391.1-89,386.7-94.4,386.7z"
					/>
			</g>
		</g>
		<g>
			<g>
				<path class="st10" d="M-81.3,405.4c-5.4,0-9.8,4.4-9.8,9.8s4.4,9.8,9.8,9.8s9.8-4.4,9.8-9.8C-71.5,409.8-75.9,405.4-81.3,405.4z
					"/>
			</g>
		</g>
		<g>
			<g>
				<path class="st10" d="M-66.6,423.2c-5.4,0-9.8,4.4-9.8,9.8s4.4,9.8,9.8,9.8s9.8-4.4,9.8-9.8S-61.2,423.2-66.6,423.2z"/>
			</g>
		</g>
		<g>
			<g>
				<path class="st10" d="M-31.6,452.8c-5.4,0-9.8,4.4-9.8,9.8s4.4,9.8,9.8,9.8s9.8-4.4,9.8-9.8C-21.8,457.2-26.2,452.8-31.6,452.8z
					"/>
			</g>
		</g>
		<g>
			<g>
				<path class="st10" d="M-11.4,463.8c-5.4,0-9.8,4.4-9.8,9.8s4.4,9.8,9.8,9.8s9.8-4.4,9.8-9.8C-1.6,468.2-6,463.8-11.4,463.8z"/>
			</g>
		</g>
		<g>
			<g>
				<path class="st10" d="M9.2,473.7c-5.4,0-9.8,4.4-9.8,9.8s4.4,9.8,9.8,9.8s9.8-4.4,9.8-9.8C19,478.1,14.6,473.7,9.2,473.7z"/>
			</g>
		</g>
		<g>
			<g>
				<path class="st10" d="M31.2,480.5c-5.4,0-9.8,4.4-9.8,9.8s4.4,9.8,9.8,9.8s9.8-4.4,9.8-9.8S36.6,480.5,31.2,480.5z"/>
			</g>
		</g>
		<g>
			<g>
				<path class="st10" d="M76.4,487.6c-5.4,0-9.8,4.4-9.8,9.8s4.4,9.8,9.8,9.8s9.8-4.4,9.8-9.8S81.8,487.6,76.4,487.6z"/>
			</g>
		</g>
		<g>
			<g>
				<path class="st10" d="M99.3,487.3c-5.4,0-9.8,4.4-9.8,9.8s4.4,9.8,9.8,9.8s9.8-4.4,9.8-9.8C109.1,491.7,104.7,487.3,99.3,487.3z
					"/>
			</g>
		</g>
		<g>
			<g>
				<path class="st10" d="M122.1,485c-5.4,0-9.8,4.4-9.8,9.8s4.4,9.8,9.8,9.8s9.8-4.4,9.8-9.8S127.5,485,122.1,485z"/>
			</g>
		</g>
		<g>
			<g>
				<path class="st10" d="M144.4,479.6c-5.4,0-9.8,4.4-9.8,9.8s4.4,9.8,9.8,9.8c5.4,0,9.8-4.4,9.8-9.8
					C154.2,484,149.8,479.6,144.4,479.6z"/>
			</g>
		</g>
		<g>
			<g>
				<path class="st10" d="M166.3,472.8c-5.4,0-9.8,4.4-9.8,9.8s4.4,9.8,9.8,9.8s9.8-4.4,9.8-9.8
					C176.1,477.2,171.7,472.8,166.3,472.8z"/>
			</g>
		</g>
		<g>
			<g>
				<path class="st10" d="M186.7,462.3c-5.4,0-9.8,4.4-9.8,9.8s4.4,9.8,9.8,9.8c5.4,0,9.8-4.4,9.8-9.8
					C196.5,466.7,192.1,462.3,186.7,462.3z"/>
			</g>
		</g>
		<g>
			<g>
				<path class="st10" d="M206.7,451c-5.4,0-9.8,4.4-9.8,9.8s4.4,9.8,9.8,9.8c5.4,0,9.8-4.4,9.8-9.8S212.1,451,206.7,451z"/>
			</g>
		</g>
		<g>
			<g>
				<path class="st10" d="M224.4,436.4c-5.4,0-9.8,4.4-9.8,9.8s4.4,9.8,9.8,9.8c5.4,0,9.8-4.4,9.8-9.8
					C234.2,440.8,229.8,436.4,224.4,436.4z"/>
			</g>
		</g>
		<g>
			<g>
				<path class="st10" d="M255.8,422.7c-5.4,0-9.8-4.4-9.8-9.8s4.4-9.8,9.8-9.8s9.8,4.4,9.8,9.8
					C265.6,418.3,261.2,422.7,255.8,422.7z"/>
			</g>
		</g>
		<g>
			<g>
				<path class="st10" d="M268.5,403.6c-5.4,0-9.8-4.4-9.8-9.8s4.4-9.8,9.8-9.8c5.4,0,9.8,4.4,9.8,9.8S273.9,403.6,268.5,403.6z"/>
			</g>
		</g>
		<g>
			<g>
				<path class="st10" d="M279.4,383.4c-5.4,0-9.8-4.4-9.8-9.8s4.4-9.8,9.8-9.8c5.4,0,9.8,4.4,9.8,9.8
					C289.2,379,284.8,383.4,279.4,383.4z"/>
			</g>
		</g>
		<g>
			<g>
				<path class="st11" d="M287.3,361.9c-5.4,0-9.8-4.4-9.8-9.8s4.4-9.8,9.8-9.8s9.8,4.4,9.8,9.8S292.7,361.9,287.3,361.9z"/>
			</g>
		</g>
	</g>
</g>
<g id="june_circ">
	<g id="june">
		<path class="st12" d="M-89.3,303.9c0,5.4-4.4,9.8-9.8,9.8s-9.8-4.4-9.8-9.8s4.4-9.8,9.8-9.8S-89.3,298.5-89.3,303.9z"/>
		<path class="st13" d="M144.5,90.1c0,5.4-4.4,9.8-9.8,9.8c-5.4,0-9.8-4.4-9.8-9.8s4.4-9.8,9.8-9.8
			C140.1,80.3,144.5,84.7,144.5,90.1z"/>
		<g>
			<g>
				<path class="st13" d="M294.1,339.9c-5.4,0-9.8-4.4-9.8-9.8s4.4-9.8,9.8-9.8c5.4,0,9.8,4.4,9.8,9.8S299.5,339.9,294.1,339.9z"/>
			</g>
		</g>
		<g>
			<g>
				<path class="st13" d="M296.6,317.1c-5.4,0-9.8-4.4-9.8-9.8s4.4-9.8,9.8-9.8c5.4,0,9.8,4.4,9.8,9.8S302,317.1,296.6,317.1z"/>
			</g>
		</g>
		<g>
			<g>
				<path class="st13" d="M298.6,294.2c-5.4,0-9.8-4.4-9.8-9.8s4.4-9.8,9.8-9.8c5.4,0,9.8,4.4,9.8,9.8
					C308.4,289.8,304,294.2,298.6,294.2z"/>
			</g>
		</g>
		<g>
			<g>
				<path class="st13" d="M296,271.4c-5.4,0-9.8-4.4-9.8-9.8s4.4-9.8,9.8-9.8c5.4,0,9.8,4.4,9.8,9.8S301.4,271.4,296,271.4z"/>
			</g>
		</g>
		<g>
			<g>
				<path class="st13" d="M293.1,248.6c-5.4,0-9.8-4.4-9.8-9.8s4.4-9.8,9.8-9.8c5.4,0,9.8,4.4,9.8,9.8S298.5,248.6,293.1,248.6z"/>
			</g>
		</g>
		<g>
			<g>
				<path class="st13" d="M285.3,227c-5.4,0-9.8-4.4-9.8-9.8c0-5.4,4.4-9.8,9.8-9.8s9.8,4.4,9.8,9.8S290.7,227,285.3,227z"/>
			</g>
		</g>
		<g>
			<g>
				<path class="st13" d="M277.1,205.6c-5.4,0-9.8-4.4-9.8-9.8s4.4-9.8,9.8-9.8c5.4,0,9.8,4.4,9.8,9.8S282.5,205.6,277.1,205.6z"/>
			</g>
		</g>
		<g>
			<g>
				<path class="st13" d="M264.7,186.2c-5.4,0-9.8-4.4-9.8-9.8c0-5.4,4.4-9.8,9.8-9.8c5.4,0,9.8,4.4,9.8,9.8
					S270.1,186.2,264.7,186.2z"/>
			</g>
		</g>
		<g>
			<g>
				<path class="st13" d="M251.6,167.4c-5.4,0-9.8-4.4-9.8-9.8c0-5.4,4.4-9.8,9.8-9.8c5.4,0,9.8,4.4,9.8,9.8S257,167.4,251.6,167.4z
					"/>
			</g>
		</g>
		<g>
			<g>
				<path class="st13" d="M235.4,151.2c-5.4,0-9.8-4.4-9.8-9.8c0-5.4,4.4-9.8,9.8-9.8c5.4,0,9.8,4.4,9.8,9.8
					C245.2,146.8,240.8,151.2,235.4,151.2z"/>
			</g>
		</g>
		<g>
			<g>
				<path class="st13" d="M218.2,136.1c-5.4,0-9.8-4.4-9.8-9.8s4.4-9.8,9.8-9.8c5.4,0,9.8,4.4,9.8,9.8
					C228,131.7,223.6,136.1,218.2,136.1z"/>
			</g>
		</g>
		<g>
			<g>
				<path class="st13" d="M198.8,123.7c-5.4,0-9.8-4.4-9.8-9.8s4.4-9.8,9.8-9.8s9.8,4.4,9.8,9.8
					C208.6,119.3,204.2,123.7,198.8,123.7z"/>
			</g>
		</g>
		<g>
			<g>
				<path class="st13" d="M178.6,113.1c-5.4,0-9.8-4.4-9.8-9.8s4.4-9.8,9.8-9.8c5.4,0,9.8,4.4,9.8,9.8S184,113.1,178.6,113.1z"/>
			</g>
		</g>
		<g>
			<g>
				<path class="st13" d="M156.9,105.4c-5.4,0-9.8-4.4-9.8-9.8s4.4-9.8,9.8-9.8c5.4,0,9.8,4.4,9.8,9.8
					C166.7,101,162.3,105.4,156.9,105.4z"/>
			</g>
		</g>
		<g>
			<g>
				<path class="st13" d="M111.9,77.7c-5.4,0-9.8,4.4-9.8,9.8s4.4,9.8,9.8,9.8s9.8-4.4,9.8-9.8S117.3,77.7,111.9,77.7z"/>
			</g>
		</g>
		<g>
			<g>
				<path class="st13" d="M89.1,77.3c-5.4,0-9.8,4.4-9.8,9.8s4.4,9.8,9.8,9.8s9.8-4.4,9.8-9.8C98.9,81.7,94.5,77.3,89.1,77.3z"/>
			</g>
		</g>
		<g>
			<g>
				<path class="st13" d="M66.2,79.9c-5.4,0-9.8,4.4-9.8,9.8s4.4,9.8,9.8,9.8s9.8-4.4,9.8-9.8C76,84.3,71.6,79.9,66.2,79.9z"/>
			</g>
		</g>
		<g>
			<g>
				<path class="st13" d="M43.9,84.7c-5.4,0-9.8,4.4-9.8,9.8s4.4,9.8,9.8,9.8s9.8-4.4,9.8-9.8S49.3,84.7,43.9,84.7z"/>
			</g>
		</g>
		<g>
			<g>
				<path class="st13" d="M22.3,92.4c-5.4,0-9.8,4.4-9.8,9.8s4.4,9.8,9.8,9.8s9.8-4.4,9.8-9.8S27.7,92.4,22.3,92.4z"/>
			</g>
		</g>
		<g>
			<g>
				<path class="st13" d="M1.7,102.3c-5.4,0-9.8,4.4-9.8,9.8s4.4,9.8,9.8,9.8s9.8-4.4,9.8-9.8C11.5,106.7,7.1,102.3,1.7,102.3z"/>
			</g>
		</g>
		<g>
			<g>
				<path class="st13" d="M-17.7,114.6c-5.4,0-9.8,4.4-9.8,9.8s4.4,9.8,9.8,9.8s9.8-4.4,9.8-9.8C-7.9,119-12.3,114.6-17.7,114.6z"/>
			</g>
		</g>
		<g>
			<g>
				<path class="st13" d="M-35.4,129.2c-5.4,0-9.8,4.4-9.8,9.8c0,5.4,4.4,9.8,9.8,9.8s9.8-4.4,9.8-9.8
					C-25.6,133.6-30,129.2-35.4,129.2z"/>
			</g>
		</g>
		<g>
			<g>
				<path class="st13" d="M-51.6,145.4c-5.4,0-9.8,4.4-9.8,9.8c0,5.4,4.4,9.8,9.8,9.8s9.8-4.4,9.8-9.8
					C-41.8,149.8-46.2,145.4-51.6,145.4z"/>
			</g>
		</g>
		<g>
			<g>
				<path class="st13" d="M-65.3,163.7c-5.4,0-9.8,4.4-9.8,9.8c0,5.4,4.4,9.8,9.8,9.8s9.8-4.4,9.8-9.8
					C-55.5,168.1-59.9,163.7-65.3,163.7z"/>
			</g>
		</g>
		<g>
			<g>
				<path class="st13" d="M-77.6,183.1c-5.4,0-9.8,4.4-9.8,9.8c0,5.4,4.4,9.8,9.8,9.8s9.8-4.4,9.8-9.8S-72.2,183.1-77.6,183.1z"/>
			</g>
		</g>
		<g>
			<g>
				<path class="st13" d="M-86.6,204.2c-5.4,0-9.8,4.4-9.8,9.8c0,5.4,4.4,9.8,9.8,9.8s9.8-4.4,9.8-9.8
					C-76.8,208.6-81.2,204.2-86.6,204.2z"/>
			</g>
		</g>
		<g>
			<g>
				<path class="st13" d="M-94.3,225.8c-5.4,0-9.8,4.4-9.8,9.8c0,5.4,4.4,9.8,9.8,9.8s9.8-4.4,9.8-9.8
					C-84.5,230.2-88.9,225.8-94.3,225.8z"/>
			</g>
		</g>
		<g>
			<g>
				<path class="st13" d="M-98,248.4c-5.4,0-9.8,4.4-9.8,9.8s4.4,9.8,9.8,9.8s9.8-4.4,9.8-9.8C-88.2,252.8-92.6,248.4-98,248.4z"/>
			</g>
		</g>
		<g>
			<g>
				<path class="st13" d="M-100.6,271.2c-5.4,0-9.8,4.4-9.8,9.8s4.4,9.8,9.8,9.8s9.8-4.4,9.8-9.8S-95.2,271.2-100.6,271.2z"/>
			</g>
		</g>
	</g>
</g>
<g id="may_circ">
	<g id="may">
		<g>
			<g>
				<path class="st14" d="M-96.5,336.5c-5.4,0-9.8-4.4-9.8-9.8s4.4-9.8,9.8-9.8s9.8,4.4,9.8,9.8S-91.1,336.5-96.5,336.5z"/>
			</g>
		</g>
		<g>
			<g>
				<path class="st14" d="M-89.3,358.3c-5.4,0-9.8-4.4-9.8-9.8s4.4-9.8,9.8-9.8s9.8,4.4,9.8,9.8C-79.5,353.9-83.9,358.3-89.3,358.3z
					"/>
			</g>
		</g>
		<g>
			<g>
				<path class="st14" d="M-81.2,379.7c-5.4,0-9.8-4.4-9.8-9.8s4.4-9.8,9.8-9.8s9.8,4.4,9.8,9.8C-71.4,375.3-75.8,379.7-81.2,379.7z
					"/>
			</g>
		</g>
		<g>
			<g>
				<path class="st14" d="M-68.8,399.1c-5.4,0-9.8-4.4-9.8-9.8s4.4-9.8,9.8-9.8s9.8,4.4,9.8,9.8S-63.4,399.1-68.8,399.1z"/>
			</g>
		</g>
		<g>
			<g>
				<path class="st14" d="M-55.4,417.6c-5.4,0-9.8-4.4-9.8-9.8s4.4-9.8,9.8-9.8s9.8,4.4,9.8,9.8S-50,417.6-55.4,417.6z"/>
			</g>
		</g>
		<g>
			<g>
				<path class="st14" d="M-39.1,433.9c-5.4,0-9.8-4.4-9.8-9.8s4.4-9.8,9.8-9.8s9.8,4.4,9.8,9.8S-33.7,433.9-39.1,433.9z"/>
			</g>
		</g>
		<g>
			<g>
				<path class="st14" d="M-21.3,448.2c-5.4,0-9.8-4.4-9.8-9.8s4.4-9.8,9.8-9.8s9.8,4.4,9.8,9.8C-11.5,443.8-15.9,448.2-21.3,448.2z
					"/>
			</g>
		</g>
		<g>
			<g>
				<path class="st14" d="M-1.9,460.5c-5.4,0-9.8-4.4-9.8-9.8s4.4-9.8,9.8-9.8s9.8,4.4,9.8,9.8C7.9,456.1,3.5,460.5-1.9,460.5z"/>
			</g>
		</g>
		<g>
			<g>
				<path class="st14" d="M19.1,469.6c-5.4,0-9.8-4.4-9.8-9.8s4.4-9.8,9.8-9.8s9.8,4.4,9.8,9.8S24.5,469.6,19.1,469.6z"/>
			</g>
		</g>
		<g>
			<g>
				<path class="st14" d="M40.7,477.4c-5.4,0-9.8-4.4-9.8-9.8s4.4-9.8,9.8-9.8s9.8,4.4,9.8,9.8C50.5,473,46.1,477.4,40.7,477.4z"/>
			</g>
		</g>
		<g>
			<g>
				<path class="st14" d="M63.4,480.6c-5.4,0-9.8-4.4-9.8-9.8s4.4-9.8,9.8-9.8s9.8,4.4,9.8,9.8S68.8,480.6,63.4,480.6z"/>
			</g>
		</g>
		<g>
			<g>
				<path class="st14" d="M86.2,483.2c-5.4,0-9.8-4.4-9.8-9.8s4.4-9.8,9.8-9.8s9.8,4.4,9.8,9.8C96,478.8,91.6,483.2,86.2,483.2z"/>
			</g>
		</g>
		<g>
			<g>
				<path class="st14" d="M109.1,480.6c-5.4,0-9.8-4.4-9.8-9.8s4.4-9.8,9.8-9.8s9.8,4.4,9.8,9.8S114.5,480.6,109.1,480.6z"/>
			</g>
		</g>
		<g>
			<g>
				<path class="st14" d="M131.8,477.4c-5.4,0-9.8-4.4-9.8-9.8s4.4-9.8,9.8-9.8c5.4,0,9.8,4.4,9.8,9.8S137.2,477.4,131.8,477.4z"/>
			</g>
		</g>
		<g>
			<g>
				<path class="st14" d="M153.4,469.7c-5.4,0-9.8-4.4-9.8-9.8s4.4-9.8,9.8-9.8c5.4,0,9.8,4.4,9.8,9.8
					C163.2,465.3,158.8,469.7,153.4,469.7z"/>
			</g>
		</g>
		<g>
			<g>
				<path class="st14" d="M174.4,460.6c-5.4,0-9.8-4.4-9.8-9.8s4.4-9.8,9.8-9.8c5.4,0,9.8,4.4,9.8,9.8S179.8,460.6,174.4,460.6z"/>
			</g>
		</g>
		<g>
			<g>
				<path class="st14" d="M193.8,448.3c-5.4,0-9.8-4.4-9.8-9.8s4.4-9.8,9.8-9.8s9.8,4.4,9.8,9.8S199.2,448.3,193.8,448.3z"/>
			</g>
		</g>
		<g>
			<g>
				<path class="st14" d="M211.6,434c-5.4,0-9.8-4.4-9.8-9.8s4.4-9.8,9.8-9.8c5.4,0,9.8,4.4,9.8,9.8S217,434,211.6,434z"/>
			</g>
		</g>
		<g>
			<g>
				<path class="st14" d="M227.9,417.7c-5.4,0-9.8-4.4-9.8-9.8s4.4-9.8,9.8-9.8c5.4,0,9.8,4.4,9.8,9.8
					C237.7,413.3,233.3,417.7,227.9,417.7z"/>
			</g>
		</g>
		<g>
			<g>
				<path class="st14" d="M241.4,399.2c-5.4,0-9.8-4.4-9.8-9.8s4.4-9.8,9.8-9.8c5.4,0,9.8,4.4,9.8,9.8
					C251.2,394.8,246.8,399.2,241.4,399.2z"/>
			</g>
		</g>
		<g>
			<g>
				<path class="st14" d="M253.7,379.8c-5.4,0-9.8-4.4-9.8-9.8s4.4-9.8,9.8-9.8c5.4,0,9.8,4.4,9.8,9.8S259.1,379.8,253.7,379.8z"/>
			</g>
		</g>
		<g>
			<g>
				<path class="st14" d="M261.8,358.4c-5.4,0-9.8-4.4-9.8-9.8s4.4-9.8,9.8-9.8s9.8,4.4,9.8,9.8S267.2,358.4,261.8,358.4z"/>
			</g>
		</g>
		<g>
			<g>
				<path class="st14" d="M269.1,336.6c-5.4,0-9.8-4.4-9.8-9.8s4.4-9.8,9.8-9.8c5.4,0,9.8,4.4,9.8,9.8S274.5,336.6,269.1,336.6z"/>
			</g>
		</g>
		<g>
			<g>
				<path class="st14" d="M271.7,313.8c-5.4,0-9.8-4.4-9.8-9.8s4.4-9.8,9.8-9.8c5.4,0,9.8,4.4,9.8,9.8S277.1,313.8,271.7,313.8z"/>
			</g>
		</g>
		<g>
			<g>
				<path class="st14" d="M273.3,291c-5.4,0-9.8-4.4-9.8-9.8s4.4-9.8,9.8-9.8s9.8,4.4,9.8,9.8S278.7,291,273.3,291z"/>
			</g>
		</g>
		<g>
			<g>
				<path class="st14" d="M270.6,268.1c-5.4,0-9.8-4.4-9.8-9.8s4.4-9.8,9.8-9.8c5.4,0,9.8,4.4,9.8,9.8
					C280.4,263.7,276,268.1,270.6,268.1z"/>
			</g>
		</g>
		<g>
			<g>
				<path class="st14" d="M265.7,245.8c-5.4,0-9.8-4.4-9.8-9.8c0-5.4,4.4-9.8,9.8-9.8c5.4,0,9.8,4.4,9.8,9.8
					C275.5,241.4,271.1,245.8,265.7,245.8z"/>
			</g>
		</g>
		<g>
			<g>
				<path class="st14" d="M257.9,224.2c-5.4,0-9.8-4.4-9.8-9.8c0-5.4,4.4-9.8,9.8-9.8c5.4,0,9.8,4.4,9.8,9.8
					C267.7,219.8,263.3,224.2,257.9,224.2z"/>
			</g>
		</g>
		<g>
			<g>
				<path class="st14" d="M246.8,204.2c-5.4,0-9.8-4.4-9.8-9.8c0-5.4,4.4-9.8,9.8-9.8s9.8,4.4,9.8,9.8S252.2,204.2,246.8,204.2z"/>
			</g>
		</g>
		<g>
			<g>
				<path class="st14" d="M234.1,185.1c-5.4,0-9.8-4.4-9.8-9.8s4.4-9.8,9.8-9.8c5.4,0,9.8,4.4,9.8,9.8S239.5,185.1,234.1,185.1z"/>
			</g>
		</g>
		<g>
			<g>
				<path class="st14" d="M217.9,168.8c-5.4,0-9.8-4.4-9.8-9.8c0-5.4,4.4-9.8,9.8-9.8c5.4,0,9.8,4.4,9.8,9.8
					C227.7,164.4,223.3,168.8,217.9,168.8z"/>
			</g>
		</g>
		<g>
			<g>
				<path class="st15" d="M200.3,154.2c-5.4,0-9.8-4.4-9.8-9.8c0-5.4,4.4-9.8,9.8-9.8s9.8,4.4,9.8,9.8S205.7,154.2,200.3,154.2z"/>
			</g>
		</g>
	</g>
</g>
<g id="april_circ">
	<g id="april">
		<path class="st16" d="M15.8,138.8c0,5.4-4.4,9.8-9.8,9.8s-9.8-4.4-9.8-9.8S0.6,129,6,129S15.8,133.4,15.8,138.8z"/>
		<g>
			<g>
				<path class="st16" d="M181,141.8c-5.4,0-9.8-4.4-9.8-9.8c0-5.4,4.4-9.8,9.8-9.8c5.4,0,9.8,4.4,9.8,9.8
					C190.8,137.4,186.4,141.8,181,141.8z"/>
			</g>
		</g>
		<g>
			<g>
				<path class="st16" d="M159.9,132.9c-5.4,0-9.8-4.4-9.8-9.8c0-5.4,4.4-9.8,9.8-9.8c5.4,0,9.8,4.4,9.8,9.8
					C169.7,128.5,165.3,132.9,159.9,132.9z"/>
			</g>
		</g>
		<g>
			<g>
				<path class="st16" d="M138.2,125.3c-5.4,0-9.8-4.4-9.8-9.8s4.4-9.8,9.8-9.8c5.4,0,9.8,4.4,9.8,9.8S143.6,125.3,138.2,125.3z"/>
			</g>
		</g>
		<g>
			<g>
				<path class="st16" d="M115.4,122.7c-5.4,0-9.8-4.4-9.8-9.8s4.4-9.8,9.8-9.8s9.8,4.4,9.8,9.8
					C125.2,118.3,120.8,122.7,115.4,122.7z"/>
			</g>
		</g>
		<g>
			<g>
				<path class="st16" d="M92.6,121.5c-5.4,0-9.8-4.4-9.8-9.8s4.4-9.8,9.8-9.8s9.8,4.4,9.8,9.8C102.4,117.1,98,121.5,92.6,121.5z"/>
			</g>
		</g>
		<g>
			<g>
				<path class="st16" d="M69.7,124.1c-5.4,0-9.8-4.4-9.8-9.8s4.4-9.8,9.8-9.8s9.8,4.4,9.8,9.8S75.1,124.1,69.7,124.1z"/>
			</g>
		</g>
		<g>
			<g>
				<path class="st16" d="M47.5,129.4c-5.4,0-9.8-4.4-9.8-9.8s4.4-9.8,9.8-9.8s9.8,4.4,9.8,9.8C57.3,125,52.9,129.4,47.5,129.4z"/>
			</g>
		</g>
		<g>
			<g>
				<path class="st16" d="M25.9,137.1c-5.4,0-9.8-4.4-9.8-9.8s4.4-9.8,9.8-9.8s9.8,4.4,9.8,9.8C35.7,132.7,31.3,137.1,25.9,137.1z"
					/>
			</g>
		</g>
		<g>
			<g>
				<path class="st16" d="M-12.9,141.9c-5.4,0-9.8,4.4-9.8,9.8c0,5.4,4.4,9.8,9.8,9.8s9.8-4.4,9.8-9.8
					C-3.1,146.3-7.5,141.9-12.9,141.9z"/>
			</g>
		</g>
		<g>
			<g>
				<path class="st16" d="M-29.2,158.1c-5.4,0-9.8,4.4-9.8,9.8c0,5.4,4.4,9.8,9.8,9.8s9.8-4.4,9.8-9.8S-23.8,158.1-29.2,158.1z"/>
			</g>
		</g>
		<g>
			<g>
				<path class="st16" d="M-43.6,175.8c-5.4,0-9.8,4.4-9.8,9.8c0,5.4,4.4,9.8,9.8,9.8s9.8-4.4,9.8-9.8S-38.2,175.8-43.6,175.8z"/>
			</g>
		</g>
		<g>
			<g>
				<path class="st16" d="M-55.9,195.2c-5.4,0-9.8,4.4-9.8,9.8c0,5.4,4.4,9.8,9.8,9.8s9.8-4.4,9.8-9.8
					C-46.1,199.6-50.5,195.2-55.9,195.2z"/>
			</g>
		</g>
		<g>
			<g>
				<path class="st16" d="M-64.6,216.4c-5.4,0-9.8,4.4-9.8,9.8c0,5.4,4.4,9.8,9.8,9.8s9.8-4.4,9.8-9.8
					C-54.8,220.8-59.2,216.4-64.6,216.4z"/>
			</g>
		</g>
		<g>
			<g>
				<path class="st16" d="M-71.8,238.2c-5.4,0-9.8,4.4-9.8,9.8c0,5.4,4.4,9.8,9.8,9.8s9.8-4.4,9.8-9.8
					C-62,242.6-66.4,238.2-71.8,238.2z"/>
			</g>
		</g>
		<g>
			<g>
				<path class="st16" d="M-74.5,261c-5.4,0-9.8,4.4-9.8,9.8s4.4,9.8,9.8,9.8s9.8-4.4,9.8-9.8S-69.1,261-74.5,261z"/>
			</g>
		</g>
		<g>
			<g>
				<path class="st16" d="M-75.3,283.9c-5.4,0-9.8,4.4-9.8,9.8s4.4,9.8,9.8,9.8s9.8-4.4,9.8-9.8C-65.5,288.3-69.9,283.9-75.3,283.9z
					"/>
			</g>
		</g>
		<g>
			<g>
				<path class="st16" d="M-72.7,306.7c-5.4,0-9.8,4.4-9.8,9.8s4.4,9.8,9.8,9.8s9.8-4.4,9.8-9.8S-67.3,306.7-72.7,306.7z"/>
			</g>
		</g>
		<g>
			<g>
				<path class="st16" d="M-66.4,328.7c-5.4,0-9.8,4.4-9.8,9.8s4.4,9.8,9.8,9.8s9.8-4.4,9.8-9.8C-56.6,333.1-61,328.7-66.4,328.7z"
					/>
			</g>
		</g>
		<g>
			<g>
				<path class="st16" d="M-58.1,350c-5.4,0-9.8,4.4-9.8,9.8s4.4,9.8,9.8,9.8s9.8-4.4,9.8-9.8S-52.7,350-58.1,350z"/>
			</g>
		</g>
		<g>
			<g>
				<path class="st16" d="M-45.8,369.4c-5.4,0-9.8,4.4-9.8,9.8s4.4,9.8,9.8,9.8s9.8-4.4,9.8-9.8C-36,373.8-40.4,369.4-45.8,369.4z"
					/>
			</g>
		</g>
		<g>
			<g>
				<path class="st16" d="M-31.2,387.1c-5.4,0-9.8,4.4-9.8,9.8s4.4,9.8,9.8,9.8s9.8-4.4,9.8-9.8S-25.8,387.1-31.2,387.1z"/>
			</g>
		</g>
		<g>
			<g>
				<path class="st16" d="M-14.9,403.2c-5.4,0-9.8,4.4-9.8,9.8s4.4,9.8,9.8,9.8s9.8-4.4,9.8-9.8C-5.1,407.6-9.5,403.2-14.9,403.2z"
					/>
			</g>
		</g>
		<g>
			<g>
				<path class="st16" d="M4.5,415.5c-5.4,0-9.8,4.4-9.8,9.8s4.4,9.8,9.8,9.8s9.8-4.4,9.8-9.8S9.9,415.5,4.5,415.5z"/>
			</g>
		</g>
		<g>
			<g>
				<path class="st16" d="M24.9,425.7c-5.4,0-9.8,4.4-9.8,9.8s4.4,9.8,9.8,9.8s9.8-4.4,9.8-9.8S30.3,425.7,24.9,425.7z"/>
			</g>
		</g>
		<g>
			<g>
				<path class="st16" d="M46.6,433.5c-5.4,0-9.8,4.4-9.8,9.8s4.4,9.8,9.8,9.8s9.8-4.4,9.8-9.8S52,433.5,46.6,433.5z"/>
			</g>
		</g>
		<g>
			<g>
				<path class="st16" d="M69.3,436.7c-5.4,0-9.8,4.4-9.8,9.8s4.4,9.8,9.8,9.8s9.8-4.4,9.8-9.8S74.7,436.7,69.3,436.7z"/>
			</g>
		</g>
		<g>
			<g>
				<path class="st16" d="M92.1,438c-5.4,0-9.8,4.4-9.8,9.8s4.4,9.8,9.8,9.8s9.8-4.4,9.8-9.8S97.5,438,92.1,438z"/>
			</g>
		</g>
		<g>
			<g>
				<path class="st16" d="M115,435.3c-5.4,0-9.8,4.4-9.8,9.8s4.4,9.8,9.8,9.8s9.8-4.4,9.8-9.8C124.8,439.7,120.4,435.3,115,435.3z"
					/>
			</g>
		</g>
		<g>
			<g>
				<path class="st16" d="M137,429.5c-5.4,0-9.8,4.4-9.8,9.8s4.4,9.8,9.8,9.8c5.4,0,9.8-4.4,9.8-9.8S142.4,429.5,137,429.5z"/>
			</g>
		</g>
		<g>
			<g>
				<path class="st17" d="M158.6,421.6c-5.4,0-9.8,4.4-9.8,9.8s4.4,9.8,9.8,9.8c5.4,0,9.8-4.4,9.8-9.8S164,421.6,158.6,421.6z"/>
			</g>
		</g>
	</g>
</g>
<g id="march_circ">
	<g id="march">
		<g>
			<g>
				<path class="st18" d="M178,428.9c-5.4,0-9.8-4.4-9.8-9.8s4.4-9.8,9.8-9.8c5.4,0,9.8,4.4,9.8,9.8S183.4,428.9,178,428.9z"/>
			</g>
		</g>
		<g>
			<g>
				<path class="st18" d="M195.9,414.6c-5.4,0-9.8-4.4-9.8-9.8s4.4-9.8,9.8-9.8c5.4,0,9.8,4.4,9.8,9.8S201.3,414.6,195.9,414.6z"/>
			</g>
		</g>
		<g>
			<g>
				<path class="st18" d="M212.1,398.4c-5.4,0-9.8-4.4-9.8-9.8s4.4-9.8,9.8-9.8c5.4,0,9.8,4.4,9.8,9.8S217.5,398.4,212.1,398.4z"/>
			</g>
		</g>
		<g>
			<g>
				<path class="st18" d="M224.7,379.2c-5.4,0-9.8-4.4-9.8-9.8s4.4-9.8,9.8-9.8c5.4,0,9.8,4.4,9.8,9.8
					C234.5,374.8,230.1,379.2,224.7,379.2z"/>
			</g>
		</g>
		<g>
			<g>
				<path class="st18" d="M235.3,358.9c-5.4,0-9.8-4.4-9.8-9.8s4.4-9.8,9.8-9.8s9.8,4.4,9.8,9.8S240.7,358.9,235.3,358.9z"/>
			</g>
		</g>
		<g>
			<g>
				<path class="st18" d="M243,337.3c-5.4,0-9.8-4.4-9.8-9.8s4.4-9.8,9.8-9.8c5.4,0,9.8,4.4,9.8,9.8S248.4,337.3,243,337.3z"/>
			</g>
		</g>
		<g>
			<g>
				<path class="st18" d="M246.6,314.7c-5.4,0-9.8-4.4-9.8-9.8s4.4-9.8,9.8-9.8c5.4,0,9.8,4.4,9.8,9.8
					C256.4,310.3,252,314.7,246.6,314.7z"/>
			</g>
		</g>
		<g>
			<g>
				<path class="st18" d="M248.3,291.8c-5.4,0-9.8-4.4-9.8-9.8s4.4-9.8,9.8-9.8s9.8,4.4,9.8,9.8S253.7,291.8,248.3,291.8z"/>
			</g>
		</g>
		<g>
			<g>
				<path class="st18" d="M245.2,269c-5.4,0-9.8-4.4-9.8-9.8s4.4-9.8,9.8-9.8c5.4,0,9.8,4.4,9.8,9.8C255,264.6,250.6,269,245.2,269z
					"/>
			</g>
		</g>
		<g>
			<g>
				<path class="st18" d="M239.7,246.9c-5.4,0-9.8-4.4-9.8-9.8c0-5.4,4.4-9.8,9.8-9.8c5.4,0,9.8,4.4,9.8,9.8
					S245.1,246.9,239.7,246.9z"/>
			</g>
		</g>
		<g>
			<g>
				<path class="st18" d="M230.7,225.8c-5.4,0-9.8-4.4-9.8-9.8c0-5.4,4.4-9.8,9.8-9.8c5.4,0,9.8,4.4,9.8,9.8
					C240.5,221.4,236.1,225.8,230.7,225.8z"/>
			</g>
		</g>
		<g>
			<g>
				<path class="st18" d="M218.1,206.8c-5.4,0-9.8-4.4-9.8-9.8c0-5.4,4.4-9.8,9.8-9.8c5.4,0,9.8,4.4,9.8,9.8
					C227.9,202.4,223.5,206.8,218.1,206.8z"/>
			</g>
		</g>
		<g>
			<g>
				<path class="st18" d="M203.8,188.8c-5.4,0-9.8-4.4-9.8-9.8c0-5.4,4.4-9.8,9.8-9.8s9.8,4.4,9.8,9.8
					C213.6,184.4,209.2,188.8,203.8,188.8z"/>
			</g>
		</g>
		<g>
			<g>
				<path class="st18" d="M185.6,174.8c-5.4,0-9.8-4.4-9.8-9.8c0-5.4,4.4-9.8,9.8-9.8c5.4,0,9.8,4.4,9.8,9.8
					C195.4,170.4,191,174.8,185.6,174.8z"/>
			</g>
		</g>
		<g>
			<g>
				<path class="st18" d="M166.2,162.7c-5.4,0-9.8-4.4-9.8-9.8c0-5.4,4.4-9.8,9.8-9.8c5.4,0,9.8,4.4,9.8,9.8
					S171.6,162.7,166.2,162.7z"/>
			</g>
		</g>
		<g>
			<g>
				<path class="st18" d="M145,153.8c-5.4,0-9.8-4.4-9.8-9.8c0-5.4,4.4-9.8,9.8-9.8c5.4,0,9.8,4.4,9.8,9.8
					C154.8,149.4,150.4,153.8,145,153.8z"/>
			</g>
		</g>
		<g>
			<g>
				<path class="st18" d="M122.7,149c-5.4,0-9.8-4.4-9.8-9.8c0-5.4,4.4-9.8,9.8-9.8s9.8,4.4,9.8,9.8S128.1,149,122.7,149z"/>
			</g>
		</g>
		<g>
			<g>
				<path class="st18" d="M100,145.9c-5.4,0-9.8-4.4-9.8-9.8c0-5.4,4.4-9.8,9.8-9.8s9.8,4.4,9.8,9.8S105.4,145.9,100,145.9z"/>
			</g>
		</g>
		<g>
			<g>
				<path class="st18" d="M77.2,148.6c-5.4,0-9.8-4.4-9.8-9.8s4.4-9.8,9.8-9.8s9.8,4.4,9.8,9.8S82.6,148.6,77.2,148.6z"/>
			</g>
		</g>
		<g>
			<g>
				<path class="st18" d="M54.7,152.9c-5.4,0-9.8-4.4-9.8-9.8c0-5.4,4.4-9.8,9.8-9.8s9.8,4.4,9.8,9.8
					C64.5,148.5,60.1,152.9,54.7,152.9z"/>
			</g>
		</g>
		<g>
			<g>
				<path class="st18" d="M33.5,161.8c-5.4,0-9.8-4.4-9.8-9.8c0-5.4,4.4-9.8,9.8-9.8s9.8,4.4,9.8,9.8
					C43.3,157.4,38.9,161.8,33.5,161.8z"/>
			</g>
		</g>
		<g>
			<g>
				<path class="st18" d="M13.9,173.3c-5.4,0-9.8-4.4-9.8-9.8c0-5.4,4.4-9.8,9.8-9.8s9.8,4.4,9.8,9.8
					C23.7,168.9,19.3,173.3,13.9,173.3z"/>
			</g>
		</g>
		<g>
			<g>
				<path class="st18" d="M-4.3,187.4c-5.4,0-9.8-4.4-9.8-9.8c0-5.4,4.4-9.8,9.8-9.8s9.8,4.4,9.8,9.8C5.5,183,1.1,187.4-4.3,187.4z"
					/>
			</g>
		</g>
		<g>
			<g>
				<path class="st18" d="M-19,204.9c-5.4,0-9.8-4.4-9.8-9.8c0-5.4,4.4-9.8,9.8-9.8s9.8,4.4,9.8,9.8S-13.6,204.9-19,204.9z"/>
			</g>
		</g>
		<g>
			<g>
				<path class="st18" d="M-32.2,223.6c-5.4,0-9.8-4.4-9.8-9.8s4.4-9.8,9.8-9.8s9.8,4.4,9.8,9.8S-26.8,223.6-32.2,223.6z"/>
			</g>
		</g>
		<g>
			<g>
				<path class="st18" d="M-41.2,244.8c-5.4,0-9.8-4.4-9.8-9.8c0-5.4,4.4-9.8,9.8-9.8s9.8,4.4,9.8,9.8
					C-31.4,240.4-35.8,244.8-41.2,244.8z"/>
			</g>
		</g>
		<g>
			<g>
				<path class="st18" d="M-47.3,266.7c-5.4,0-9.8-4.4-9.8-9.8s4.4-9.8,9.8-9.8s9.8,4.4,9.8,9.8C-37.5,262.3-41.9,266.7-47.3,266.7z
					"/>
			</g>
		</g>
		<g>
			<g>
				<path class="st18" d="M-50.4,289.5c-5.4,0-9.8-4.4-9.8-9.8s4.4-9.8,9.8-9.8s9.8,4.4,9.8,9.8C-40.6,285.1-45,289.5-50.4,289.5z"
					/>
			</g>
		</g>
		<g>
			<g>
				<path class="st18" d="M-48.7,312.3c-5.5,0-10-4.4-10-9.8s4.5-9.8,10-9.8s10,4.4,10,9.8S-43.2,312.3-48.7,312.3z"/>
			</g>
		</g>
		<g>
			<g>
				<path class="st18" d="M-45.2,334.9c-5.4,0-9.8-4.4-9.8-9.8s4.4-9.8,9.8-9.8s9.8,4.4,9.8,9.8S-39.8,334.9-45.2,334.9z"/>
			</g>
		</g>
		<g>
			<g>
				<path class="st18" d="M-36.3,356.1c-5.4,0-9.8-4.4-9.8-9.8s4.4-9.8,9.8-9.8s9.8,4.4,9.8,9.8S-30.9,356.1-36.3,356.1z"/>
			</g>
		</g>
		<g>
			<g>
				<path class="st19" d="M-24.4,375.5c-5.4,0-9.8-4.4-9.8-9.8s4.4-9.8,9.8-9.8s9.8,4.4,9.8,9.8C-14.6,371.1-19,375.5-24.4,375.5z"
					/>
			</g>
		</g>
	</g>
</g>
<g id="feb_circ">
	<g id="feb">
		<g>
			<g>
				<path class="st20" d="M-10.2,393.5c-5.4,0-9.8-4.4-9.8-9.8s4.4-9.8,9.8-9.8s9.8,4.4,9.8,9.8S-4.8,393.5-10.2,393.5z"/>
			</g>
		</g>
		<g>
			<g>
				<path class="st20" d="M8,407.6c-5.4,0-9.8-4.4-9.8-9.8S2.6,388,8,388s9.8,4.4,9.8,9.8S13.4,407.6,8,407.6z"/>
			</g>
		</g>
		<g>
			<g>
				<path class="st20" d="M27.7,419c-5.4,0-9.8-4.4-9.8-9.8s4.4-9.8,9.8-9.8s9.8,4.4,9.8,9.8C37.5,414.6,33.1,419,27.7,419z"/>
			</g>
		</g>
		<g>
			<g>
				<path class="st20" d="M48.9,428c-5.4,0-9.8-4.4-9.8-9.8s4.4-9.8,9.8-9.8s9.8,4.4,9.8,9.8S54.3,428,48.9,428z"/>
			</g>
		</g>
		<g>
			<g>
				<path class="st20" d="M71.6,431.3c-5.4,0-9.8-4.4-9.8-9.8s4.4-9.8,9.8-9.8s9.8,4.4,9.8,9.8C81.4,426.9,77,431.3,71.6,431.3z"/>
			</g>
		</g>
		<g>
			<g>
				<path class="st20" d="M94.4,432.2c-5.4,0-9.8-4.4-9.8-9.8s4.4-9.8,9.8-9.8s9.8,4.4,9.8,9.8C104.2,427.8,99.8,432.2,94.4,432.2z"
					/>
			</g>
		</g>
		<g>
			<g>
				<path class="st20" d="M117.2,429.1c-5.4,0-9.8-4.4-9.8-9.8s4.4-9.8,9.8-9.8s9.8,4.4,9.8,9.8S122.6,429.1,117.2,429.1z"/>
			</g>
		</g>
		<g>
			<g>
				<path class="st20" d="M138.8,421.6c-5.4,0-9.8-4.4-9.8-9.8s4.4-9.8,9.8-9.8s9.8,4.4,9.8,9.8S144.2,421.6,138.8,421.6z"/>
			</g>
		</g>
		<g>
			<g>
				<path class="st20" d="M159.3,411.7c-5.4,0-9.8-4.4-9.8-9.8s4.4-9.8,9.8-9.8s9.8,4.4,9.8,9.8
					C169.1,407.3,164.7,411.7,159.3,411.7z"/>
			</g>
		</g>
		<g>
			<g>
				<path class="st20" d="M177.5,397.6c-5.4,0-9.8-4.4-9.8-9.8s4.4-9.8,9.8-9.8c5.4,0,9.8,4.4,9.8,9.8S182.9,397.6,177.5,397.6z"/>
			</g>
		</g>
		<g>
			<g>
				<path class="st20" d="M192.9,380.8c-5.4,0-9.8-4.4-9.8-9.8s4.4-9.8,9.8-9.8c5.4,0,9.8,4.4,9.8,9.8
					C202.7,376.4,198.3,380.8,192.9,380.8z"/>
			</g>
		</g>
		<g>
			<g>
				<path class="st20" d="M206.3,362.2c-5.4,0-9.8-4.4-9.8-9.8s4.4-9.8,9.8-9.8s9.8,4.4,9.8,9.8
					C216.1,357.8,211.7,362.2,206.3,362.2z"/>
			</g>
		</g>
		<g>
			<g>
				<path class="st20" d="M215.2,341c-5.4,0-9.8-4.4-9.8-9.8s4.4-9.8,9.8-9.8c5.4,0,9.8,4.4,9.8,9.8S220.6,341,215.2,341z"/>
			</g>
		</g>
		<g>
			<g>
				<path class="st20" d="M220.7,318.9c-5.4,0-9.8-4.4-9.8-9.8s4.4-9.8,9.8-9.8c5.4,0,9.8,4.4,9.8,9.8S226.1,318.9,220.7,318.9z"/>
			</g>
		</g>
		<g>
			<g>
				<path class="st20" d="M223.8,296.1c-5.4,0-9.8-4.4-9.8-9.8s4.4-9.8,9.8-9.8s9.8,4.4,9.8,9.8S229.2,296.1,223.8,296.1z"/>
			</g>
		</g>
		<g>
			<g>
				<path class="st20" d="M220.8,273.3c-5.4,0-9.8-4.4-9.8-9.8s4.4-9.8,9.8-9.8s9.8,4.4,9.8,9.8S226.2,273.3,220.8,273.3z"/>
			</g>
		</g>
		<g>
			<g>
				<path class="st20" d="M214.6,251.4c-5.4,0-9.8-4.4-9.8-9.8c0-5.4,4.4-9.8,9.8-9.8c5.4,0,9.8,4.4,9.8,9.8S220,251.4,214.6,251.4z
					"/>
			</g>
		</g>
		<g>
			<g>
				<path class="st20" d="M205.1,230.5c-5.4,0-9.8-4.4-9.8-9.8c0-5.4,4.4-9.8,9.8-9.8c5.4,0,9.8,4.4,9.8,9.8
					S210.5,230.5,205.1,230.5z"/>
			</g>
		</g>
		<g>
			<g>
				<path class="st20" d="M191,212.3c-5.4,0-9.8-4.4-9.8-9.8c0-5.4,4.4-9.8,9.8-9.8c5.4,0,9.8,4.4,9.8,9.8
					C200.8,207.9,196.4,212.3,191,212.3z"/>
			</g>
		</g>
		<g>
			<g>
				<path class="st20" d="M174,197.2c-5.4,0-9.8-4.4-9.8-9.8c0-5.4,4.4-9.8,9.8-9.8c5.4,0,9.8,4.4,9.8,9.8S179.4,197.2,174,197.2z"
					/>
			</g>
		</g>
		<g>
			<g>
				<path class="st20" d="M154.8,184.8c-5.4,0-9.8-4.4-9.8-9.8c0-5.4,4.4-9.8,9.8-9.8s9.8,4.4,9.8,9.8
					C164.6,180.4,160.2,184.8,154.8,184.8z"/>
			</g>
		</g>
		<g>
			<g>
				<path class="st20" d="M133.6,175.9c-5.4,0-9.8-4.4-9.8-9.8c0-5.4,4.4-9.8,9.8-9.8c5.4,0,9.8,4.4,9.8,9.8S139,175.9,133.6,175.9z
					"/>
			</g>
		</g>
		<g>
			<g>
				<path class="st20" d="M111,172.4c-5.4,0-9.8-4.4-9.8-9.8c0-5.4,4.4-9.8,9.8-9.8s9.8,4.4,9.8,9.8S116.4,172.4,111,172.4z"/>
			</g>
		</g>
		<g>
			<g>
				<path class="st20" d="M88.2,172.2c-5.4,0-9.8-4.4-9.8-9.8c0-5.4,4.4-9.8,9.8-9.8s9.8,4.4,9.8,9.8
					C98,167.8,93.6,172.2,88.2,172.2z"/>
			</g>
		</g>
		<g>
			<g>
				<path class="st20" d="M65.4,175.3c-5.4,0-9.8-4.4-9.8-9.8c0-5.4,4.4-9.8,9.8-9.8s9.8,4.4,9.8,9.8
					C75.2,170.9,70.8,175.3,65.4,175.3z"/>
			</g>
		</g>
		<g>
			<g>
				<path class="st20" d="M44.2,184.2c-5.4,0-9.8-4.4-9.8-9.8c0-5.4,4.4-9.8,9.8-9.8s9.8,4.4,9.8,9.8
					C54,179.8,49.6,184.2,44.2,184.2z"/>
			</g>
		</g>
		<g>
			<g>
				<path class="st20" d="M24.8,196.2c-5.4,0-9.8-4.4-9.8-9.8c0-5.4,4.4-9.8,9.8-9.8s9.8,4.4,9.8,9.8S30.2,196.2,24.8,196.2z"/>
			</g>
		</g>
		<g>
			<g>
				<path class="st20" d="M7.5,211.1c-5.4,0-9.8-4.4-9.8-9.8s4.4-9.8,9.8-9.8s9.8,4.4,9.8,9.8S12.9,211.1,7.5,211.1z"/>
			</g>
		</g>
		<g>
			<g>
				<path class="st21" d="M-6.5,229.3c-5.4,0-9.8-4.4-9.8-9.8c0-5.4,4.4-9.8,9.8-9.8s9.8,4.4,9.8,9.8C3.3,224.9-1.1,229.3-6.5,229.3
					z"/>
			</g>
		</g>
	</g>
</g>
<g id="jan_circ">
	<g>
		<g>
			<path class="st22" d="M-16.4,249.9c-5.4,0-9.8-4.4-9.8-9.8c0-5.4,4.4-9.8,9.8-9.8s9.8,4.4,9.8,9.8
				C-6.6,245.5-11,249.9-16.4,249.9z"/>
		</g>
	</g>
	<g>
		<g>
			<path class="st22" d="M-23,271.8c-5.4,0-9.8-4.4-9.8-9.8s4.4-9.8,9.8-9.8s9.8,4.4,9.8,9.8S-17.6,271.8-23,271.8z"/>
		</g>
	</g>
	<g>
		<g>
			<path class="st22" d="M-23.3,317.3c-5.4,0-9.8-4.4-9.8-9.8s4.4-9.8,9.8-9.8s9.8,4.4,9.8,9.8C-13.5,312.9-17.9,317.3-23.3,317.3z"
				/>
		</g>
	</g>
	<g>
		<g>
			<path class="st22" d="M-16.5,339.1c-5.4,0-9.8-4.4-9.8-9.8s4.4-9.8,9.8-9.8s9.8,4.4,9.8,9.8S-11.1,339.1-16.5,339.1z"/>
		</g>
	</g>
	<g>
		<g>
			<path class="st22" d="M-5.7,359.2c-5.4,0-9.8-4.4-9.8-9.8s4.4-9.8,9.8-9.8s9.8,4.4,9.8,9.8C4.1,354.8-0.3,359.2-5.7,359.2z"/>
		</g>
	</g>
	<g>
		<g>
			<path class="st22" d="M8.8,376.9c-5.4,0-9.8-4.4-9.8-9.8s4.4-9.8,9.8-9.8s9.8,4.4,9.8,9.8S14.2,376.9,8.8,376.9z"/>
		</g>
	</g>
	<g>
		<g>
			<path class="st22" d="M27,390.9c-5.4,0-9.8-4.4-9.8-9.8s4.4-9.8,9.8-9.8s9.8,4.4,9.8,9.8S32.4,390.9,27,390.9z"/>
		</g>
	</g>
	<g>
		<g>
			<path class="st22" d="M47.8,400.6c-5.4,0-9.8-4.4-9.8-9.8s4.4-9.8,9.8-9.8s9.8,4.4,9.8,9.8S53.2,400.6,47.8,400.6z"/>
		</g>
	</g>
	<g>
		<g>
			<path class="st22" d="M69.9,406c-5.4,0-9.8-4.4-9.8-9.8s4.4-9.8,9.8-9.8s9.8,4.4,9.8,9.8S75.3,406,69.9,406z"/>
		</g>
	</g>
	<g>
		<g>
			<path class="st22" d="M92.7,407.4c-5.4,0-9.8-4.4-9.8-9.8s4.4-9.8,9.8-9.8s9.8,4.4,9.8,9.8C102.5,403,98.1,407.4,92.7,407.4z"/>
		</g>
	</g>
	<g>
		<g>
			<path class="st22" d="M115.5,404.3c-5.4,0-9.8-4.4-9.8-9.8s4.4-9.8,9.8-9.8s9.8,4.4,9.8,9.8S120.9,404.3,115.5,404.3z"/>
		</g>
	</g>
	<g>
		<g>
			<path class="st22" d="M136.7,395.6c-5.4,0-9.8-4.4-9.8-9.8s4.4-9.8,9.8-9.8c5.4,0,9.8,4.4,9.8,9.8S142.1,395.6,136.7,395.6z"/>
		</g>
	</g>
	<g>
		<g>
			<path class="st22" d="M155.8,383.1c-5.4,0-9.8-4.4-9.8-9.8s4.4-9.8,9.8-9.8s9.8,4.4,9.8,9.8S161.2,383.1,155.8,383.1z"/>
		</g>
	</g>
	<g>
		<g>
			<path class="st22" d="M172.1,367.2c-5.4,0-9.8-4.4-9.8-9.8s4.4-9.8,9.8-9.8c5.4,0,9.8,4.4,9.8,9.8
				C181.9,362.8,177.5,367.2,172.1,367.2z"/>
		</g>
	</g>
	<g>
		<g>
			<path class="st22" d="M185.2,348.4c-5.4,0-9.8-4.4-9.8-9.8s4.4-9.8,9.8-9.8c5.4,0,9.8,4.4,9.8,9.8S190.6,348.4,185.2,348.4z"/>
		</g>
	</g>
	<g>
		<g>
			<path class="st22" d="M194.1,327.2c-5.4,0-9.8-4.4-9.8-9.8s4.4-9.8,9.8-9.8c5.4,0,9.8,4.4,9.8,9.8
				C203.9,322.8,199.5,327.2,194.1,327.2z"/>
		</g>
	</g>
	<path class="st22" d="M32.2,222.6c0,5.4-4.4,9.8-9.8,9.8s-9.8-4.4-9.8-9.8c0-5.4,4.4-9.8,9.8-9.8S32.2,217.2,32.2,222.6z"/>
	<path class="st22" d="M113,186.6c0,5.4-4.4,9.8-9.8,9.8s-9.8-4.4-9.8-9.8c0-5.4,4.4-9.8,9.8-9.8C108.6,176.8,113,181.2,113,186.6z"
		/>
	<path class="st22" d="M175.1,212.6c0,5.4-4.4,9.8-9.8,9.8s-9.8-4.4-9.8-9.8c0-5.4,4.4-9.8,9.8-9.8S175.1,207.2,175.1,212.6z"/>
	<path class="st22" d="M190.6,229.4c0,5.4-4.4,9.8-9.8,9.8s-9.8-4.4-9.8-9.8c0-5.4,4.4-9.8,9.8-9.8S190.6,224,190.6,229.4z"/>
	<path class="st22" d="M206.4,272c0,5.4-4.4,9.8-9.8,9.8c-5.4,0-9.8-4.4-9.8-9.8s4.4-9.8,9.8-9.8C202,262.2,206.4,266.6,206.4,272z"
		/>
	<path class="st22" d="M207.4,294.8c0,5.4-4.4,9.8-9.8,9.8c-5.4,0-9.8-4.4-9.8-9.8s4.4-9.8,9.8-9.8C203,285,207.4,289.4,207.4,294.8
		z"/>
	<g>
		<g>
			<path class="st22" d="M191.4,240c-5.4,0-9.8,4.4-9.8,9.8s4.4,9.8,9.8,9.8c5.4,0,9.8-4.4,9.8-9.8S196.8,240,191.4,240z"/>
		</g>
	</g>
	<g>
		<g>
			<path class="st22" d="M146.8,189.7c-5.4,0-9.8,4.4-9.8,9.8c0,5.4,4.4,9.8,9.8,9.8s9.8-4.4,9.8-9.8
				C156.6,194.1,152.2,189.7,146.8,189.7z"/>
		</g>
	</g>
	<g>
		<g>
			<path class="st22" d="M125.9,180.5c-5.4,0-9.8,4.4-9.8,9.8s4.4,9.8,9.8,9.8s9.8-4.4,9.8-9.8S131.3,180.5,125.9,180.5z"/>
		</g>
	</g>
	<g>
		<g>
			<path class="st22" d="M80.5,198.7c-5.4,0-9.8-4.4-9.8-9.8c0-5.4,4.4-9.8,9.8-9.8s9.8,4.4,9.8,9.8S85.9,198.7,80.5,198.7z"/>
		</g>
	</g>
	<g>
		<g>
			<path class="st22" d="M58.7,205.2c-5.4,0-9.8-4.4-9.8-9.8c0-5.4,4.4-9.8,9.8-9.8s9.8,4.4,9.8,9.8
				C68.5,200.8,64.1,205.2,58.7,205.2z"/>
		</g>
	</g>
	<g>
		<g>
			<path class="st22" d="M38.6,216.2c-5.4,0-9.8-4.4-9.8-9.8c0-5.4,4.4-9.8,9.8-9.8s9.8,4.4,9.8,9.8C48.4,211.8,44,216.2,38.6,216.2
				z"/>
		</g>
	</g>
	<g>
		<g>
			<path class="st22" d="M10.3,232.1c-5.4,0-9.8,4.4-9.8,9.8c0,5.4,4.4,9.8,9.8,9.8s9.8-4.4,9.8-9.8S15.7,232.1,10.3,232.1z"/>
		</g>
	</g>
	<g>
		<g>
			<g>
				<path class="st22" d="M2.5,253.4c-5.4,0-9.8,4.4-9.8,9.8s4.4,9.8,9.8,9.8s9.8-4.4,9.8-9.8S7.9,253.4,2.5,253.4z"/>
			</g>
		</g>
	</g>
	<path class="st22" d="M-16.2,284.7c0,5.4-4.4,9.8-9.8,9.8s-9.8-4.4-9.8-9.8s4.4-9.8,9.8-9.8C-20.6,274.9-16.2,279.3-16.2,284.7z"/>
	<path class="st23" d="M8.6,285.9c0,5.4-4.4,9.8-9.8,9.8s-9.8-4.4-9.8-9.8s4.4-9.8,9.8-9.8S8.6,280.5,8.6,285.9z"/>
</g>
<g id="december_num">
	<g id="december_numbers">
		<text transform="matrix(1 0 0 1 -178.7215 292.1385)" class="st24 st25">1</text>
		<text transform="matrix(1 0 0 1 -177.2215 269.2383)" class="st24 st25">2</text>
		<text transform="matrix(1 0 0 1 -175.2217 246.3387)" class="st24 st25">3</text>
		<text transform="matrix(1 0 0 1 -170.2213 223.9386)" class="st24 st25">4</text>
		<text transform="matrix(1 0 0 1 -164.2217 201.8386)" class="st24 st25">5</text>
		<text transform="matrix(1 0 0 1 -155.8213 180.5386)" class="st24 st25">6</text>
		<text transform="matrix(1 0 0 1 -145.9216 159.7383)" class="st24 st25">7</text>
		<text transform="matrix(1 0 0 1 -134.2215 140.0383)" class="st24 st25">8</text>
		<text transform="matrix(1 0 0 1 -120.9214 121.3384)" class="st24 st25">9</text>
		<text transform="matrix(1 0 0 1 -108.9428 103.8383)" class="st24 st25">10</text>
		<text transform="matrix(1 0 0 1 -92.743 87.5387)" class="st24 st25">11</text>
		<text transform="matrix(1 0 0 1 -76.4088 72.6386)" class="st24 st25">12 </text>
		<text transform="matrix(1 0 0 1 -56.5429 59.4385)" class="st24 st25">13</text>
		<text transform="matrix(1 0 0 1 -36.943 47.5387)" class="st24 st25">14</text>
		<text transform="matrix(1 0 0 1 -16.1426 37.7383)" class="st24 st25">15</text>
		<text transform="matrix(1 0 0 1 5.1571 29.2383)" class="st24 st25">16</text>
		<text transform="matrix(1 0 0 1 27.2573 23.1385)" class="st24 st25">17</text>
		<text transform="matrix(1 0 0 1 49.6571 18.0383)" class="st24 st25">18</text>
		<text transform="matrix(1 0 0 1 72.5572 16.0385)" class="st24 st25">19</text>
		<text transform="matrix(1 0 0 1 95.4572 14.3385)" class="st24 st25">20</text>
		<text transform="matrix(1 0 0 1 118.3571 16.4385)" class="st24 st25">21</text>
		<text transform="matrix(1 0 0 1 141.2571 18.4383)" class="st24 st25">22</text>
		<text transform="matrix(1 0 0 1 163.457 24.3386)" class="st24 st25">23</text>
		<text transform="matrix(1 0 0 1 185.557 30.4387)" class="st24 st25">24</text>
		<text transform="matrix(1 0 0 1 206.5571 39.7145)" class="st24 st25">25</text>
		<text transform="matrix(1 0 0 1 227.3573 49.5385)" class="st24 st25">26</text>
		<text transform="matrix(1 0 0 1 246.5574 62.0384)" class="st24 st25">27</text>
		<text transform="matrix(1 0 0 1 265.3572 75.3386)" class="st24 st25">28</text>
		<text transform="matrix(1 0 0 1 282.257 90.7383)" class="st24 st25">29</text>
		<text transform="matrix(1 0 0 1 298.5571 107.0385)" class="st24 st25">30</text>
		<text transform="matrix(1 0 0 1 312.6571 125.0386)" class="st24 st25">31</text>
	</g>
</g>
<g id="november_num">
	<g id="november_numbers">
		<text transform="matrix(1 0 0 1 323.8784 394.1386)" class="st24 st25">1</text>
		<text transform="matrix(1 0 0 1 312.8782 414.3381)" class="st24 st25">2</text>
		<text transform="matrix(1 0 0 1 301.8787 434.5382)" class="st24 st25">3</text>
		<text transform="matrix(1 0 0 1 287.5786 452.4385)" class="st24 st25">4</text>
		<text transform="matrix(1 0 0 1 272.8787 470.1387)" class="st24 st25">5</text>
		<text transform="matrix(1 0 0 1 255.9783 485.6382)" class="st24 st25">6</text>
		<text transform="matrix(1 0 0 1 238.2784 500.2385)" class="st24 st25">7</text>
		<text transform="matrix(1 0 0 1 219.1783 512.8381)" class="st24 st25">8</text>
		<text transform="matrix(1 0 0 1 198.9785 523.8388)" class="st24 st25">9</text>
		<text transform="matrix(1 0 0 1 175.3574 533.3384)" class="st24 st25">10</text>
		<text transform="matrix(1 0 0 1 153.3573 540.2386)" class="st24 st25">11</text>
		<text transform="matrix(1 0 0 1 130.1913 546.5388)" class="st24 st25">12 </text>
		<text transform="matrix(1 0 0 1 108.457 548.8387)" class="st24 st25">13</text>
		<text transform="matrix(1 0 0 1 84.6 552.1393)" class="st24 st25">14</text>
		<text transform="matrix(1 0 0 1 62.7574 549.8383)" class="st24 st25">15</text>
		<text transform="matrix(1 0 0 1 39.857 547.5386)" class="st24 st25">16</text>
		<text transform="matrix(1 0 0 1 17.457 543.1385)" class="st24 st25">17</text>
		<text transform="matrix(1 0 0 1 -4.5426 536.3387)" class="st24 st25">18</text>
		<text transform="matrix(1 0 0 1 -26.0429 528.5386)" class="st24 st25">19</text>
		<text transform="matrix(1 0 0 1 -46.2427 517.6385)" class="st24 st25">20</text>
		<text transform="matrix(1 0 0 1 -65.5713 506.5384)" class="st24 st25">21</text>
		<text transform="matrix(1 0 0 1 -84.1428 491.9387)" class="st24 st25">22</text>
		<text transform="matrix(1 0 0 1 -101.9426 477.3381)" class="st24 st25">23</text>
		<text transform="matrix(1 0 0 1 -117.0426 460.139)" class="st24 st25">24</text>
		<text transform="matrix(1 0 0 1 -131.643 442.4384)" class="st24 st25">25</text>
		<text transform="matrix(1 0 0 1 -143.9428 423.1389)" class="st24 st25">26</text>
		<text transform="matrix(1 0 0 1 -154.9428 402.9389)" class="st24 st25">27</text>
		<text transform="matrix(1 0 0 1 -164.1428 381.9384)" class="st24 st25">28</text>
		<text transform="matrix(1 0 0 1 -170.9428 360.0381)" class="st24 st25">29</text>
		<text transform="matrix(1 0 0 1 -176.943 337.8381)" class="st24 st25">30</text>
	</g>
</g>
<g id="october_num">
	<g id="october_numbers">
		<text transform="matrix(1 0 0 1 -105.9215 142.8383)" class="st24 st25">1</text>
		<text transform="matrix(1 0 0 1 -91.2215 125.1387)" class="st24 st25">2</text>
		<text transform="matrix(1 0 0 1 -75.7218 108.2383)" class="st24 st25">3</text>
		<text transform="matrix(1 0 0 1 -58.0214 93.6383)" class="st24 st25">4</text>
		<text transform="matrix(1 0 0 1 -39.8214 79.7385)" class="st24 st25">5</text>
		<text transform="matrix(1 0 0 1 -19.6218 68.7387)" class="st24 st25">6</text>
		<text transform="matrix(1 0 0 1 0.7785 58.1385)" class="st24 st25">7</text>
		<text transform="matrix(1 0 0 1 22.6786 51.3387)" class="st24 st25">8</text>
		<text transform="matrix(1 0 0 1 44.6786 44.5386)" class="st24 st25">9</text>
		<text transform="matrix(1 0 0 1 64.6571 42.0387)" class="st24 st25">10</text>
		<text transform="matrix(1 0 0 1 87.5574 39.7384)" class="st24 st25">11</text>
		<text transform="matrix(1 0 0 1 109.2911 40.9385)" class="st24 st25">12 </text>
		<text transform="matrix(1 0 0 1 133.2571 43.2383)" class="st24 st25">13</text>
		<text transform="matrix(1 0 0 1 155.6575 48.0383)" class="st24 st25">14</text>
		<text transform="matrix(1 0 0 1 177.557 54.8385)" class="st24 st25">15</text>
		<text transform="matrix(1 0 0 1 198.8572 63.3386)" class="st24 st25">16</text>
		<text transform="matrix(1 0 0 1 219.0574 74.3385)" class="st24 st25">17</text>
		<text transform="matrix(1 0 0 1 238.4569 86.4384)" class="st24 st25">18</text>
		<text transform="matrix(1 0 0 1 256.157 101.0387)" class="st24 st25">19</text>
		<text transform="matrix(1 0 0 1 273.257 116.4384)" class="st24 st25">20</text>
		<text transform="matrix(1 0 0 1 287.8574 134.1383)" class="st24 st25">21</text>
		<text transform="matrix(1 0 0 1 301.9573 152.2384)" class="st24 st25">22</text>
		<text transform="matrix(1 0 0 1 312.9573 172.4384)" class="st24 st25">23</text>
		<text transform="matrix(1 0 0 1 323.757 192.6385)" class="st24 st25">24</text>
		<text transform="matrix(1 0 0 1 330.5571 214.6383)" class="st24 st25">25</text>
		<text transform="matrix(1 0 0 1 337.3572 236.5386)" class="st24 st25">26</text>
		<text transform="matrix(1 0 0 1 340.1572 259.3386)" class="st24 st25">27</text>
		<text transform="matrix(1 0 0 1 342.4573 282.2384)" class="st24 st25">28</text>
		<text transform="matrix(1 0 0 1 341.5571 305.0382)" class="st24 st25">29</text>
		<text transform="matrix(1 0 0 1 339.2573 327.939)" class="st24 st25">30</text>
		<text transform="matrix(1 0 0 1 335.2573 350.4383)" class="st24 st25">31</text>
	</g>
</g>
<g id="september_num">
	<g id="september_numbers">
		<text transform="matrix(1 0 0 1 249.2784 458.9381)" class="st24 st25">1</text>
		<text transform="matrix(1 0 0 1 231.4786 473.5386)" class="st24 st25">2</text>
		<text transform="matrix(1 0 0 1 213.3783 487.6383)" class="st24 st25">3</text>
		<text transform="matrix(1 0 0 1 193.1785 498.6389)" class="st24 st25">4</text>
		<text transform="matrix(1 0 0 1 172.7786 509.0387)" class="st24 st25">5</text>
		<text transform="matrix(1 0 0 1 150.7784 515.8389)" class="st24 st25">6</text>
		<text transform="matrix(1 0 0 1 128.7783 522.1387)" class="st24 st25">7</text>
		<text transform="matrix(1 0 0 1 105.8785 524.439)" class="st24 st25">8</text>
		<text transform="matrix(1 0 0 1 82.9784 526.6385)" class="st24 st25">9</text>
		<text transform="matrix(1 0 0 1 57.3571 524.3384)" class="st24 st25">10</text>
		<text transform="matrix(1 0 0 1 34.457 522.0381)" class="st24 st25">11</text>
		<text transform="matrix(1 0 0 1 11.291 515.5386)" class="st24 st25">12 </text>
		<text transform="matrix(1 0 0 1 -9.5428 508.7386)" class="st24 st25">13</text>
		<text transform="matrix(1 0 0 1 -29.4 498.1389)" class="st24 st25">14</text>
		<text transform="matrix(1 0 0 1 -50.1427 487.2387)" class="st24 st25">15</text>
		<text transform="matrix(1 0 0 1 -68.043 472.9389)" class="st24 st25">16</text>
		<text transform="matrix(1 0 0 1 -85.8429 458.3386)" class="st24 st25">17</text>
		<text transform="matrix(1 0 0 1 -100.7427 440.8383)" class="st24 st25">18</text>
		<text transform="matrix(1 0 0 1 -115.3429 423.1381)" class="st24 st25">19</text>
		<text transform="matrix(1 0 0 1 -126.5431 403.1386)" class="st24 st25">20</text>
		<text transform="matrix(1 0 0 1 -137.5427 382.8387)" class="st24 st25">21</text>
		<text transform="matrix(1 0 0 1 -144.5428 361.0388)" class="st24 st25">22</text>
		<text transform="matrix(1 0 0 1 -151.3429 339.1382)" class="st24 st25">23</text>
		<text transform="matrix(1 0 0 1 -154.143 316.3382)" class="st24 st25">24</text>
		<text transform="matrix(1 0 0 1 -156.4427 293.4383)" class="st24 st25">25</text>
		<text transform="matrix(1 0 0 1 -154.9427 270.5385)" class="st24 st25">26</text>
		<text transform="matrix(1 0 0 1 -152.6426 247.7383)" class="st24 st25">27</text>
		<text transform="matrix(1 0 0 1 -147.6429 225.3383)" class="st24 st25">28</text>
		<text transform="matrix(1 0 0 1 -140.7428 203.4384)" class="st24 st25">29</text>
		<text transform="matrix(1 0 0 1 -132.0429 182.3385)" class="st24 st25">30</text>
	</g>
</g>
<g id="august_num">
	<g id="august_numbers">
		<text transform="matrix(1 0 0 1 -74.0217 143.2386)" class="st24 st25">1</text>
		<text transform="matrix(1 0 0 1 -58.6216 126.3387)" class="st24 st25">2</text>
		<text transform="matrix(1 0 0 1 -40.8214 111.7387)" class="st24 st25">3</text>
		<text transform="matrix(1 0 0 1 -22.2217 98.4383)" class="st24 st25">4</text>
		<text transform="matrix(1 0 0 1 -2.0216 87.5387)" class="st24 st25">5</text>
		<text transform="matrix(1 0 0 1 19.0786 78.5388)" class="st24 st25">6</text>
		<text transform="matrix(1 0 0 1 40.9784 71.7386)" class="st24 st25">7</text>
		<text transform="matrix(1 0 0 1 63.4784 67.4385)" class="st24 st25">8</text>
		<text transform="matrix(1 0 0 1 86.3786 65.1385)" class="st24 st25">9</text>
		<text transform="matrix(1 0 0 1 106.4571 65.5387)" class="st24 st25">10</text>
		<text transform="matrix(1 0 0 1 129.2574 67.8383)" class="st24 st25">11</text>
		<text transform="matrix(1 0 0 1 150.391 72.8385)" class="st24 st25">12 </text>
		<text transform="matrix(1 0 0 1 173.557 79.6385)" class="st24 st25">13</text>
		<text transform="matrix(1 0 0 1 194.3572 89.2383)" class="st24 st25">14</text>
		<text transform="matrix(1 0 0 1 214.557 100.2387)" class="st24 st25">15</text>
		<text transform="matrix(1 0 0 1 232.7572 114.0386)" class="st24 st25">16</text>
		<text transform="matrix(1 0 0 1 250.5574 128.6386)" class="st24 st25">17</text>
		<text transform="matrix(1 0 0 1 265.4572 146.1386)" class="st24 st25">18</text>
		<text transform="matrix(1 0 0 1 279.957 163.8387)" class="st24 st25">19</text>
		<text transform="matrix(1 0 0 1 290.957 184.0386)" class="st24 st25">20</text>
		<text transform="matrix(1 0 0 1 301.3574 204.5385)" class="st24 st25">21</text>
		<text transform="matrix(1 0 0 1 308.1573 226.4385)" class="st24 st25">22</text>
		<text transform="matrix(1 0 0 1 314.057 248.6387)" class="st24 st25">23</text>
		<text transform="matrix(1 0 0 1 316.3573 271.4383)" class="st24 st25">24</text>
		<text transform="matrix(1 0 0 1 317.6572 294.3382)" class="st24 st25">25</text>
		<text transform="matrix(1 0 0 1 315.3573 317.2387)" class="st24 st25">26</text>
		<text transform="matrix(1 0 0 1 312.4574 339.9384)" class="st24 st25">27</text>
		<text transform="matrix(1 0 0 1 305.6575 361.9383)" class="st24 st25">28</text>
		<text transform="matrix(1 0 0 1 298.3573 383.7384)" class="st24 st25">29</text>
		<text transform="matrix(1 0 0 1 287.3572 403.9383)" class="st24 st25">30</text>
		<text transform="matrix(1 0 0 1 276.057 423.8384)" class="st24 st25">31</text>
	</g>
</g>
<g id="july_num">
	<g id="july_numbers">
		<text transform="matrix(1 0 0 1 276.5784 376.8384)" class="st24 st25">1</text>
		<text transform="matrix(1 0 0 1 265.6785 397.039)" class="st24 st25">2</text>
		<text transform="matrix(1 0 0 1 252.9785 416.1387)" class="st24 st25">3</text>
		<text transform="matrix(1 0 0 1 238.3787 433.8146)" class="st24 st25">4</text>
		<text transform="matrix(1 0 0 1 221.5784 449.4388)" class="st24 st25">5</text>
		<text transform="matrix(1 0 0 1 203.8787 464.0386)" class="st24 st25">6</text>
		<text transform="matrix(1 0 0 1 183.8784 475.3382)" class="st24 st25">7</text>
		<text transform="matrix(1 0 0 1 163.4784 485.8387)" class="st24 st25">8</text>
		<text transform="matrix(1 0 0 1 141.5785 492.6381)" class="st24 st25">9</text>
		<text transform="matrix(1 0 0 1 116.4574 498.039)" class="st24 st25">10</text>
		<text transform="matrix(1 0 0 1 93.6571 500.3384)" class="st24 st25">11</text>
		<text transform="matrix(1 0 0 1 69.5912 500.6383)" class="st24 st25">12 </text>
		<text transform="matrix(1 0 0 1 47.8572 498.3385)" class="st24 st25">13</text>
		<text transform="matrix(1 0 0 1 25.5572 493.5381)" class="st24 st25">14</text>
		<text transform="matrix(1 0 0 1 3.5573 486.7388)" class="st24 st25">15</text>
		<text transform="matrix(1 0 0 1 -17.0427 476.8383)" class="st24 st25">16</text>
		<text transform="matrix(1 0 0 1 -37.2429 465.8387)" class="st24 st25">17</text>
		<text transform="matrix(1 0 0 1 -55.1427 451.4384)" class="st24 st25">18</text>
		<text transform="matrix(1 0 0 1 -72.2428 436.2386)" class="st24 st25">19</text>
		<text transform="matrix(1 0 0 1 -86.9429 418.4383)" class="st24 st25">20</text>
		<text transform="matrix(1 0 0 1 -100.043 399.7381)" class="st24 st25">21</text>
		<text transform="matrix(1 0 0 1 -111.0426 379.5388)" class="st24 st25">22</text>
		<text transform="matrix(1 0 0 1 -119.3426 358.2385)" class="st24 st25">23</text>
		<text transform="matrix(1 0 0 1 -126.2427 336.2387)" class="st24 st25">24</text>
		<text transform="matrix(1 0 0 1 -129.3428 313.5389)" class="st24 st25">25</text>
		<text transform="matrix(1 0 0 1 -131.6428 290.7389)" class="st24 st25">26</text>
		<text transform="matrix(1 0 0 1 -129.6427 267.8384)" class="st24 st25">27</text>
		<text transform="matrix(1 0 0 1 -127.3426 244.9383)" class="st24 st25">28</text>
		<text transform="matrix(1 0 0 1 -120.8428 222.9386)" class="st24 st25">29</text>
		<text transform="matrix(1 0 0 1 -113.8427 201.0388)" class="st24 st25">30</text>
		<text transform="matrix(1 0 0 1 -102.9428 180.8383)" class="st24 st25">31</text>
	</g>
</g>
<g id="june_num">
	<g id="june_numbers">
		<text transform="matrix(1 0 0 1 -103.4213 284.2384)" class="st24 st25">1</text>
		<text transform="matrix(1 0 0 1 -100.8216 261.4386)" class="st24 st25">2</text>
		<text transform="matrix(1 0 0 1 -97.1214 238.8387)" class="st24 st25">3</text>
		<text transform="matrix(1 0 0 1 -89.4216 217.2385)" class="st24 st25">4</text>
		<text transform="matrix(1 0 0 1 -80.4216 196.1387)" class="st24 st25">5</text>
		<text transform="matrix(1 0 0 1 -68.1216 176.7383)" class="st24 st25">6</text>
		<text transform="matrix(1 0 0 1 -54.4215 158.4388)" class="st24 st25">7</text>
		<text transform="matrix(1 0 0 1 -38.2213 142.2387)" class="st24 st25">8</text>
		<text transform="matrix(1 0 0 1 -20.5214 127.6387)" class="st24 st25">9</text>
		<text transform="matrix(1 0 0 1 -3.9429 115.3386)" class="st24 st25">10</text>
		<text transform="matrix(1 0 0 1 16.6574 105.4384)" class="st24 st25">11</text>
		<text transform="matrix(1 0 0 1 37.0914 97.7387)" class="st24 st25">12 </text>
		<text transform="matrix(1 0 0 1 60.5573 92.9386)" class="st24 st25">13</text>
		<text transform="matrix(1 0 0 1 83.4573 90.3385)" class="st24 st25">14</text>
		<text transform="matrix(1 0 0 1 106.2572 90.7386)" class="st24 st25">15</text>
		<text transform="matrix(1 0 0 1 129.057 93.3385)" class="st24 st25">16</text>
		<text transform="matrix(1 0 0 1 151.2573 98.8387)" class="st24 st25">17</text>
		<text transform="matrix(1 0 0 1 172.957 106.5384)" class="st24 st25">18</text>
		<text transform="matrix(1 0 0 1 193.1572 117.1387)" class="st24 st25">19</text>
		<text transform="matrix(1 0 0 1 212.557 129.5386)" class="st24 st25">20</text>
		<text transform="matrix(1 0 0 1 229.7573 144.6384)" class="st24 st25">21</text>
		<text transform="matrix(1 0 0 1 245.9573 160.8386)" class="st24 st25">22</text>
		<text transform="matrix(1 0 0 1 259.0571 179.6387)" class="st24 st25">23</text>
		<text transform="matrix(1 0 0 1 271.4573 199.0385)" class="st24 st25">24</text>
		<text transform="matrix(1 0 0 1 279.657 220.4385)" class="st24 st25">25</text>
		<text transform="matrix(1 0 0 1 287.457 242.0386)" class="st24 st25">26</text>
		<text transform="matrix(1 0 0 1 290.3571 264.8387)" class="st24 st25">27</text>
		<text transform="matrix(1 0 0 1 292.9573 287.6387)" class="st24 st25">28</text>
		<text transform="matrix(1 0 0 1 290.9573 310.5382)" class="st24 st25">29</text>
		<text transform="matrix(1 0 0 1 288.4573 333.3384)" class="st24 st25">30</text>
	</g>
</g>
<g id="may_num">
	<g id="may_numbers">
		<text transform="matrix(1 0 0 1 215.0784 162.2384)" class="st24 st25">1</text>
		<text transform="matrix(1 0 0 1 231.2786 178.5385)" class="st24 st25">2</text>
		<text transform="matrix(1 0 0 1 243.9786 197.6384)" class="st24 st25">3</text>
		<text transform="matrix(1 0 0 1 255.0786 217.6383)" class="st24 st25">4</text>
		<text transform="matrix(1 0 0 1 262.8787 239.2385)" class="st24 st25">5</text>
		<text transform="matrix(1 0 0 1 267.7783 261.5386)" class="st24 st25">6</text>
		<text transform="matrix(1 0 0 1 270.4783 284.4388)" class="st24 st25">7</text>
		<text transform="matrix(1 0 0 1 268.8784 307.2383)" class="st24 st25">8</text>
		<text transform="matrix(1 0 0 1 266.2786 330.0381)" class="st24 st25">9</text>
		<text transform="matrix(1 0 0 1 248.0574 373.2389)" class="st24 st25">11</text>
		<text transform="matrix(1 0 0 1 234.5912 392.6387)" class="st24 st25">12 </text>
		<text transform="matrix(1 0 0 1 222.2571 411.1385)" class="st24 st25">13</text>
		<text transform="matrix(1 0 0 1 205.957 427.4388)" class="st24 st25">14</text>
		<text transform="matrix(1 0 0 1 188.1573 441.7386)" class="st24 st25">15</text>
		<text transform="matrix(1 0 0 1 168.757 454.0382)" class="st24 st25">16</text>
		<text transform="matrix(1 0 0 1 147.757 463.1387)" class="st24 st25">17</text>
		<text transform="matrix(1 0 0 1 126.1571 470.8381)" class="st24 st25">18</text>
		<text transform="matrix(1 0 0 1 103.4573 474.0389)" class="st24 st25">19</text>
		<text transform="matrix(1 0 0 1 80.557 476.6381)" class="st24 st25">20</text>
		<text transform="matrix(1 0 0 1 57.7572 474.0382)" class="st24 st25">21</text>
		<text transform="matrix(1 0 0 1 35.0574 470.839)" class="st24 st25">22</text>
		<text transform="matrix(1 0 0 1 13.4573 463.0385)" class="st24 st25">23</text>
		<text transform="matrix(1 0 0 1 -7.5429 453.9381)" class="st24 st25">24</text>
		<text transform="matrix(1 0 0 1 -26.9429 441.6386)" class="st24 st25">25</text>
		<text transform="matrix(1 0 0 1 -44.7428 427.3388)" class="st24 st25">26</text>
		<text transform="matrix(1 0 0 1 -61.043 411.0385)" class="st24 st25">27</text>
		<text transform="matrix(1 0 0 1 -74.4429 392.5382)" class="st24 st25">28</text>
		<text transform="matrix(1 0 0 1 -86.8428 373.1384)" class="st24 st25">29</text>
		<text transform="matrix(1 0 0 1 -94.943 351.7384)" class="st24 st25">30</text>
		<text transform="matrix(1 0 0 1 -102.1426 329.9389)" class="st24 st25">31</text>
		<text transform="matrix(1 0 0 1 256.1573 351.8384)" class="st24 st25">10</text>
	</g>
</g>
<g id="april_num">
	<g id="april_numbers">
		<text transform="matrix(1 0 0 1 134.1785 442.539)" class="st24 st25">1</text>
		<text transform="matrix(1 0 0 1 112.1783 448.3389)" class="st24 st25">2</text>
		<text transform="matrix(1 0 0 1 89.2785 451.0382)" class="st24 st25">3</text>
		<text transform="matrix(1 0 0 1 66.4785 449.7386)" class="st24 st25">4</text>
		<text transform="matrix(1 0 0 1 43.7784 446.5389)" class="st24 st25">5</text>
		<text transform="matrix(1 0 0 1 22.0787 438.7382)" class="st24 st25">6</text>
		<text transform="matrix(1 0 0 1 1.6783 428.5384)" class="st24 st25">7</text>
		<text transform="matrix(1 0 0 1 -17.7216 416.239)" class="st24 st25">8</text>
		<text transform="matrix(1 0 0 1 -34.0215 400.1385)" class="st24 st25">9</text>
		<text transform="matrix(1 0 0 1 -51.4426 382.4383)" class="st24 st25">10</text>
		<text transform="matrix(1 0 0 1 -63.7426 363.0384)" class="st24 st25">11</text>
		<text transform="matrix(1 0 0 1 -73.209 341.739)" class="st24 st25">12 </text>
		<text transform="matrix(1 0 0 1 -78.343 319.7389)" class="st24 st25">13</text>
		<text transform="matrix(1 0 0 1 -80.9429 296.9385)" class="st24 st25">14</text>
		<text transform="matrix(1 0 0 1 -80.1427 274.0386)" class="st24 st25">15</text>
		<text transform="matrix(1 0 0 1 -77.4428 251.2387)" class="st24 st25">16</text>
		<text transform="matrix(1 0 0 1 -70.2429 229.4386)" class="st24 st25">17</text>
		<text transform="matrix(1 0 0 1 -61.543 208.2384)" class="st24 st25">18</text>
		<text transform="matrix(1 0 0 1 -49.2426 188.8387)" class="st24 st25">19</text>
		<text transform="matrix(1 0 0 1 -34.843 171.1386)" class="st24 st25">20</text>
		<text transform="matrix(1 0 0 1 -18.5429 154.9386)" class="st24 st25">21</text>
		<text transform="matrix(1 0 0 1 0.3572 142.0386)" class="st24 st25">22</text>
		<text transform="matrix(1 0 0 1 20.2574 130.5383)" class="st24 st25">23</text>
		<text transform="matrix(1 0 0 1 41.857 122.8386)" class="st24 st25">24</text>
		<text transform="matrix(1 0 0 1 64.0571 117.5384)" class="st24 st25">25</text>
		<text transform="matrix(1 0 0 1 86.9572 114.9387)" class="st24 st25">26</text>
		<text transform="matrix(1 0 0 1 109.7574 116.1387)" class="st24 st25">27</text>
		<text transform="matrix(1 0 0 1 132.5571 118.7387)" class="st24 st25">28</text>
		<text transform="matrix(1 0 0 1 154.2573 126.3387)" class="st24 st25">29</text>
		<text transform="matrix(1 0 0 1 175.3573 135.2384)" class="st24 st25">30</text>
	</g>
</g>
<g id="march_num">
	<g id="march_numbers">
		<text transform="matrix(1 0 0 1 -39.1215 349.5389)" class="st24 st25">1</text>
		<text transform="matrix(1 0 0 1 -48.0214 328.3384)" class="st24 st25">2</text>
		<text transform="matrix(1 0 0 1 -51.5215 305.7385)" class="st24 st25">3</text>
		<text transform="matrix(1 0 0 1 -53.2217 282.9387)" class="st24 st25">4</text>
		<text transform="matrix(1 0 0 1 -50.1215 260.1385)" class="st24 st25">5</text>
		<text transform="matrix(1 0 0 1 -44.0216 238.2387)" class="st24 st25">6</text>
		<text transform="matrix(1 0 0 1 -35.0214 217.0383)" class="st24 st25">7</text>
		<text transform="matrix(1 0 0 1 -21.8217 198.3384)" class="st24 st25">8</text>
		<text transform="matrix(1 0 0 1 -7.1214 180.8386)" class="st24 st25">9</text>
		<text transform="matrix(1 0 0 1 8.2572 166.7383)" class="st24 st25">10</text>
		<text transform="matrix(1 0 0 1 27.857 155.2385)" class="st24 st25">11</text>
		<text transform="matrix(1 0 0 1 47.8911 146.3387)" class="st24 st25">12 </text>
		<text transform="matrix(1 0 0 1 71.5572 142.0384)" class="st24 st25">13</text>
		<text transform="matrix(1 0 0 1 94.357 139.3386)" class="st24 st25">14</text>
		<text transform="matrix(1 0 0 1 117.0573 142.4385)" class="st24 st25">15</text>
		<text transform="matrix(1 0 0 1 139.3574 147.2387)" class="st24 st25">16</text>
		<text transform="matrix(1 0 0 1 160.557 156.1385)" class="st24 st25">17</text>
		<text transform="matrix(1 0 0 1 179.957 168.2386)" class="st24 st25">18</text>
		<text transform="matrix(1 0 0 1 198.1572 182.2384)" class="st24 st25">19</text>
		<text transform="matrix(1 0 0 1 212.4572 200.2383)" class="st24 st25">20</text>
		<text transform="matrix(1 0 0 1 225.057 219.2387)" class="st24 st25">21</text>
		<text transform="matrix(1 0 0 1 234.0571 240.3385)" class="st24 st25">22</text>
		<text transform="matrix(1 0 0 1 239.5571 262.4384)" class="st24 st25">23</text>
		<text transform="matrix(1 0 0 1 242.6575 285.2383)" class="st24 st25">24</text>
		<text transform="matrix(1 0 0 1 240.957 308.1381)" class="st24 st25">25</text>
		<text transform="matrix(1 0 0 1 237.3571 330.7381)" class="st24 st25">26</text>
		<text transform="matrix(1 0 0 1 229.6571 352.3387)" class="st24 st25">27</text>
		<text transform="matrix(1 0 0 1 219.0571 372.6389)" class="st24 st25">28</text>
		<text transform="matrix(1 0 0 1 206.4573 391.8387)" class="st24 st25">29</text>
		<text transform="matrix(1 0 0 1 190.257 408.0389)" class="st24 st25">30</text>
		<text transform="matrix(1 0 0 1 172.3571 422.3386)" class="st24 st25">31</text>
	</g>
</g>
<g id="feb_num">
	<g id="feb_numbers">
		<text transform="matrix(1 0 0 1 4.6787 204.5383)" class="st24 st25">1</text>
		<text transform="matrix(1 0 0 1 21.9785 189.6387)" class="st24 st25">2</text>
		<text transform="matrix(1 0 0 1 41.3785 177.6385)" class="st24 st25">3</text>
		<text transform="matrix(1 0 0 1 62.5785 168.7386)" class="st24 st25">4</text>
		<text transform="matrix(1 0 0 1 85.3785 165.6383)" class="st24 st25">5</text>
		<text transform="matrix(1 0 0 1 108.1786 165.8387)" class="st24 st25">6</text>
		<text transform="matrix(1 0 0 1 130.7787 169.3386)" class="st24 st25">7</text>
		<text transform="matrix(1 0 0 1 151.9783 178.2385)" class="st24 st25">8</text>
		<text transform="matrix(1 0 0 1 171.1786 190.6387)" class="st24 st25">9</text>
		<text transform="matrix(1 0 0 1 185.3572 205.7383)" class="st24 st25">10</text>
		<text transform="matrix(1 0 0 1 199.4573 223.9386)" class="st24 st25">11</text>
		<text transform="matrix(1 0 0 1 207.7913 244.8386)" class="st24 st25">12 </text>
		<text transform="matrix(1 0 0 1 215.1575 266.7386)" class="st24 st25">13</text>
		<text transform="matrix(1 0 0 1 218.1573 289.5383)" class="st24 st25">14</text>
		<text transform="matrix(1 0 0 1 215.0574 312.3382)" class="st24 st25">15</text>
		<text transform="matrix(1 0 0 1 209.5574 334.4386)" class="st24 st25">16</text>
		<text transform="matrix(1 0 0 1 200.6571 355.6383)" class="st24 st25">17</text>
		<text transform="matrix(1 0 0 1 187.2572 374.2388)" class="st24 st25">18</text>
		<text transform="matrix(1 0 0 1 171.8573 391.0389)" class="st24 st25">19</text>
		<text transform="matrix(1 0 0 1 153.6573 405.1382)" class="st24 st25">20</text>
		<text transform="matrix(1 0 0 1 133.1572 415.0385)" class="st24 st25">21</text>
		<text transform="matrix(1 0 0 1 111.557 422.5382)" class="st24 st25">22</text>
		<text transform="matrix(1 0 0 1 88.7573 425.6388)" class="st24 st25">23</text>
		<text transform="matrix(1 0 0 1 65.9571 424.7386)" class="st24 st25">24</text>
		<text transform="matrix(1 0 0 1 43.2572 421.4384)" class="st24 st25">25</text>
		<text transform="matrix(1 0 0 1 22.0574 412.4386)" class="st24 st25">26</text>
		<text transform="matrix(1 0 0 1 2.3573 401.0381)" class="st24 st25">27</text>
		<text transform="matrix(1 0 0 1 -15.843 386.9388)" class="st24 st25">28</text>
	</g>
</g>
<g id="jan_num">
	<g id="jan_numbers">
		<text transform="matrix(1 0 0 1 -0.3213 266.4384)" class="st24 st25">1</text>
		<text transform="matrix(1 0 0 1 7.4785 245.1386)" class="st24 st25">2</text>
		<text transform="matrix(1 0 0 1 19.5785 225.8387)" class="st24 st25">3</text>
		<text transform="matrix(1 0 0 1 35.7785 209.6383)" class="st24 st25">4</text>
		<text transform="matrix(1 0 0 1 55.8786 198.6383)" class="st24 st25">5</text>
		<text transform="matrix(1 0 0 1 77.6786 192.1384)" class="st24 st25">6</text>
		<text transform="matrix(1 0 0 1 100.3783 189.8383)" class="st24 st25">7</text>
		<text transform="matrix(1 0 0 1 123.0784 193.5387)" class="st24 st25">8</text>
		<text transform="matrix(1 0 0 1 143.9784 202.7386)" class="st24 st25">9</text>
		<text transform="matrix(1 0 0 1 159.657 215.8387)" class="st24 st25">10</text>
		<text transform="matrix(1 0 0 1 175.1572 232.6386)" class="st24 st25">11</text>
		<text transform="matrix(1 0 0 1 184.5911 253.0383)" class="st24 st25">12 </text>
		<text transform="matrix(1 0 0 1 190.957 275.2384)" class="st24 st25">13</text>
		<text transform="matrix(1 0 0 1 191.9574 298.0386)" class="st24 st25">14</text>
		<text transform="matrix(1 0 0 1 188.4572 320.6389)" class="st24 st25">15</text>
		<text transform="matrix(1 0 0 1 179.5571 341.8381)" class="st24 st25">16</text>
		<text transform="matrix(1 0 0 1 166.4572 360.6386)" class="st24 st25">17</text>
		<text transform="matrix(1 0 0 1 150.1571 376.5383)" class="st24 st25">18</text>
		<text transform="matrix(1 0 0 1 131.0573 389.0384)" class="st24 st25">19</text>
		<text transform="matrix(1 0 0 1 109.8574 397.7381)" class="st24 st25">20</text>
		<text transform="matrix(1 0 0 1 87.057 400.8382)" class="st24 st25">21</text>
		<text transform="matrix(1 0 0 1 64.2571 399.4381)" class="st24 st25">22</text>
		<text transform="matrix(1 0 0 1 42.157 394.038)" class="st24 st25">23</text>
		<text transform="matrix(1 0 0 1 21.3571 384.3382)" class="st24 st25">24</text>
		<text transform="matrix(1 0 0 1 3.1571 370.3387)" class="st24 st25">25</text>
		<text transform="matrix(1 0 0 1 -11.3429 352.6385)" class="st24 st25">26</text>
		<text transform="matrix(1 0 0 1 -22.1428 332.5382)" class="st24 st25">27</text>
		<text transform="matrix(1 0 0 1 -28.943 310.739)" class="st24 st25">28</text>
		<text transform="matrix(1 0 0 1 -31.6429 287.9384)" class="st24 st25">29</text>
		<text transform="matrix(1 0 0 1 -28.6426 265.2386)" class="st24 st25">30</text>
		<text transform="matrix(1 0 0 1 -22.043 243.3383)" class="st24 st25">31</text>
	</g>
</g>
<g id="months">
	<g id="month_names">
		<text transform="matrix(1 0 0 1 -6.5001 288.0145)" class="st26 st24 st27">jan</text>
		<text transform="matrix(1 0 0 1 152.4346 433.8148)" class="st26 st24 st27">apr</text>
		<text transform="matrix(1 0 0 1 280.8999 354.6389)" class="st26 st24 st27">july</text>
		<text transform="matrix(1 0 0 1 326.9003 372.0102)" class="st26 st24 st27">nov</text>
		<text transform="matrix(1 0 0 1 260.8003 441.1102)" class="st26 st24 st27">sep</text>
		<text transform="matrix(1 0 0 1 -121.6999 161.5099)" class="st26 st24 st27">oct</text>
		<text transform="matrix(1 0 0 1 191.9998 146.6103)" class="st26 st24 st27">may</text>
		<text transform="matrix(1 0 0 1 -31.643 367.6104)" class="st26 st24 st27">mar</text>
		<text transform="matrix(1 0 0 1 -104.1998 305.7389)" class="st26 st24 st27">jun</text>
		<text transform="matrix(1 0 0 1 -180.1002 314.3097)" class="st26 st24 st27">dec</text>
		<text transform="matrix(1 0 0 1 -11.9998 222.2142)" class="st26 st24 st27">feb</text>
		<text transform="matrix(1 0 0 1 -92.8 160.6143)" class="st26 st24 st27">aug</text>
	</g>
</g>
</svg>
